<?xml version="1.0" standalone="no"?>
<!DOCTYPE svg PUBLIC "-//W3C//DTD SVG 1.1//EN" "http://www.w3.org/Graphics/SVG/1.1/DTD/svg11.dtd" >
<svg xmlns="http://www.w3.org/2000/svg" xmlns:xlink="http://www.w3.org/1999/xlink" version="1.1">
<metadata>
Created by FontForge 20170924 at Sat Jul 24 12:00:29 2010
 By www-data
Copyright (c) 2010 by Dino dos Santos _DSType. All rights reserved.
</metadata>
<defs>
<font id="ActaDisplay-Light" horiz-adv-x="600" >
  <font-face 
    font-family="Acta Display Light"
    font-weight="300"
    font-stretch="normal"
    units-per-em="1000"
    panose-1="2 0 5 3 7 0 0 2 0 4"
    ascent="750"
    descent="-250"
    x-height="500"
    cap-height="700"
    bbox="-9 -260 1660 930.044"
    underline-thickness="50"
    underline-position="-100"
    stemh="25"
    stemv="55"
    unicode-range="U+0020-FB04"
  />
<missing-glyph horiz-adv-x="552" 
d="M128 249c0 45 17 85 46 114l-74 90l8 8l74 -90c26 22 59 36 95 36c35 0 68 -14 93 -36l74 90l8 -8l-73 -89c29 -29 47 -70 47 -115s-18 -86 -47 -114l72 -86l-8 -9l-73 87c-25 -22 -58 -35 -93 -35c-36 0 -69 13 -95 35l-71 -87l-9 9l72 86c-29 29 -46 69 -46 114z
M140 249c0 -79 62 -145 137 -145c74 0 137 66 137 145s-63 146 -137 146c-75 0 -137 -67 -137 -146z" />
    <glyph glyph-name="T_h" unicode="Th" horiz-adv-x="1085" 
d="M30 540l5 160h570l40 30h10l-5 -325h5c50 59 123 105 196 105c67 0 124 -40 124 -150v-300c0 -45 10 -45 95 -50v-10h-225v10c65 5 75 5 75 50v303c0 58 -25 112 -110 112c-60 0 -115 -40 -155 -80v-335c0 -45 10 -45 95 -50v-10h-245v10c85 5 95 5 95 50v630h-285v-630
c0 -45 10 -45 95 -50v-10h-245v10c85 5 95 5 95 50v630h-85c-81 0 -115 -63 -135 -150h-10z" />
    <glyph glyph-name="ff" unicode="ff" horiz-adv-x="650" 
d="M290 500v-10h-105v-430c0 -45 10 -45 105 -50v-10h-255v10c85 5 95 5 95 50v430h-95v5l95 5v40c0 80 50 190 200 190c68 0 120 -28 146 -61c24 35 64 61 124 61c55 0 100 -30 100 -75c0 -35 -22 -45 -38 -45c-14 0 -32 5 -32 26c0 16 30 24 30 49c0 24 -30 35 -65 35
c-85 0 -100 -98 -100 -180v-40h130v-10h-130v-430c0 -45 10 -45 115 -50v-10h-265v10c85 5 95 5 95 50v430h-95v5l95 5v40c0 33 6 70 21 104c-23 50 -67 76 -131 76c-120 0 -145 -98 -145 -180v-40h105z" />
    <glyph glyph-name="ffi" unicode="ffi" horiz-adv-x="915" 
d="M805 510v-450c0 -45 10 -45 95 -50v-10h-245v10c85 5 95 5 95 50v380c0 45 -9 50 -95 50h-160v-430c0 -45 10 -45 105 -50v-10h-255v10c85 5 95 5 95 50v430h-95v5l95 5v40c0 30 7 66 24 97c-22 55 -67 83 -134 83c-120 0 -145 -98 -145 -180v-40h105v-10h-105v-430
c0 -45 10 -45 105 -50v-10h-255v10c85 5 95 5 95 50v430h-95v5l95 5v40c0 80 50 190 200 190c72 0 127 -32 151 -68c31 39 82 68 159 68c100 0 165 -60 165 -110c0 -30 -20 -45 -43 -45s-39 12 -39 31c0 18 25 32 25 49c0 24 -34 65 -103 65c-128 0 -150 -98 -150 -180v-40
h230l70 10h10z" />
    <glyph glyph-name="f_f_j" unicode="ffj" horiz-adv-x="895" 
d="M805 510v-490c0 -150 -63 -230 -130 -230c-34 0 -45 17 -45 36c0 17 13 34 35 34c23 0 47 -35 60 -35c14 0 25 9 25 80v535c0 40 -8 49 -72 50h-183v-430c0 -45 10 -45 105 -50v-10h-255v10c85 5 95 5 95 50v430h-95v5l95 5v40c0 30 7 66 24 97c-22 55 -67 83 -134 83
c-120 0 -145 -98 -145 -180v-40h105v-10h-105v-430c0 -45 10 -45 105 -50v-10h-255v10c85 5 95 5 95 50v430h-95v5l95 5v40c0 80 50 190 200 190c72 0 127 -32 151 -68c31 39 82 68 159 68c100 0 165 -60 165 -110c0 -30 -20 -45 -43 -45s-39 12 -39 31c0 18 25 32 25 49
c0 24 -34 65 -103 65c-128 0 -150 -98 -150 -180v-40h230l70 10h10z" />
    <glyph glyph-name="ffl" unicode="ffl" horiz-adv-x="915" 
d="M805 730v-106v-4v-560c0 -45 10 -45 95 -50v-10h-245v10c85 5 95 5 95 50v615c-24 30 -58 45 -110 45c-120 0 -145 -98 -145 -180v-40h130v-10h-130v-430c0 -45 10 -45 105 -50v-10h-255v10c85 5 95 5 95 50v430h-95v5l95 5v40c0 30 7 66 24 97c-22 55 -67 83 -134 83
c-120 0 -145 -98 -145 -180v-40h105v-10h-105v-430c0 -45 10 -45 105 -50v-10h-255v10c85 5 95 5 95 50v430h-95v5l95 5v40c0 80 50 190 200 190c72 0 127 -32 151 -68c31 39 82 68 159 68c51 0 92 -15 121 -37l34 37h10z" />
    <glyph glyph-name="fi" unicode="fi" horiz-adv-x="605" 
d="M495 510v-450c0 -45 10 -45 95 -50v-10h-245v10c85 5 95 5 95 50v380c0 40 -8 49 -72 50h-183v-430c0 -45 10 -45 105 -50v-10h-255v10c85 5 95 5 95 50v430h-95v5l95 5v40c0 80 50 190 200 190c100 0 165 -60 165 -110c0 -30 -20 -45 -43 -45s-39 12 -39 31
c0 18 25 32 25 49c0 24 -34 65 -103 65c-128 0 -150 -98 -150 -180v-40h230l70 10h10z" />
    <glyph glyph-name="f_j" unicode="fj" horiz-adv-x="585" 
d="M495 510v-490c0 -150 -63 -230 -130 -230c-34 0 -45 17 -45 36c0 17 13 34 35 34c23 0 47 -35 60 -35c14 0 25 9 25 80v535c0 45 -10 50 -95 50h-160v-430c0 -45 10 -45 105 -50v-10h-255v10c85 5 95 5 95 50v430h-95v5l95 5v40c0 80 50 190 200 190
c100 0 165 -60 165 -110c0 -30 -20 -45 -43 -45s-39 12 -39 31c0 18 25 32 25 49c0 24 -34 65 -103 65c-128 0 -150 -98 -150 -180v-40h230l70 10h10z" />
    <glyph glyph-name="fl" unicode="fl" horiz-adv-x="605" 
d="M495 730v-670c0 -45 10 -45 95 -50v-10h-245v10c85 5 95 5 95 50v615c-24 30 -58 45 -110 45c-120 0 -145 -98 -145 -180v-40h130v-10h-130v-430c0 -45 10 -45 105 -50v-10h-255v10c85 5 95 5 95 50v430h-95v5l95 5v40c0 80 50 190 200 190c51 0 92 -15 121 -37l34 37h10
z" />
    <glyph glyph-name="Tcaron_h" unicode="&#x164;h" horiz-adv-x="1085" 
d="M30 540l5 160h570l40 30h10l-5 -325h5c50 59 123 105 196 105c67 0 124 -40 124 -150v-300c0 -45 10 -45 95 -50v-10h-225v10c65 5 75 5 75 50v303c0 58 -25 112 -110 112c-60 0 -115 -40 -155 -80v-335c0 -45 10 -45 95 -50v-10h-245v10c85 5 95 5 95 50v630h-285v-630
c0 -45 10 -45 95 -50v-10h-245v10c85 5 95 5 95 50v630h-85c-81 0 -115 -63 -135 -150h-10zM163 920l127 -101l127 101h2l-125 -180h-9l-124 180h2z" />
    <glyph glyph-name="Tcommaaccent_h" unicode="&#x162;h" horiz-adv-x="1085" 
d="M284 -30c50 0 65 -41 65 -80c0 -48 -28 -91 -91 -125l-4 7c41 23 60 44 60 62c0 6 1 26 -30 26c-34 0 -55 27 -55 55c0 33 27 55 55 55zM30 540l5 160h570l40 30h10l-5 -325h5c50 59 123 105 196 105c67 0 124 -40 124 -150v-300c0 -45 10 -45 95 -50v-10h-225v10
c65 5 75 5 75 50v303c0 58 -25 112 -110 112c-60 0 -115 -40 -155 -80v-335c0 -45 10 -45 95 -50v-10h-245v10c85 5 95 5 95 50v630h-285v-630c0 -45 10 -45 95 -50v-10h-245v10c85 5 95 5 95 50v630h-85c-81 0 -115 -63 -135 -150h-10z" />
    <glyph glyph-name=".notdef" horiz-adv-x="552" 
d="M128 249c0 45 17 85 46 114l-74 90l8 8l74 -90c26 22 59 36 95 36c35 0 68 -14 93 -36l74 90l8 -8l-73 -89c29 -29 47 -70 47 -115s-18 -86 -47 -114l72 -86l-8 -9l-73 87c-25 -22 -58 -35 -93 -35c-36 0 -69 13 -95 35l-71 -87l-9 9l72 86c-29 29 -46 69 -46 114z
M140 249c0 -79 62 -145 137 -145c74 0 137 66 137 145s-63 146 -137 146c-75 0 -137 -67 -137 -146z" />
    <glyph glyph-name="space" unicode=" " horiz-adv-x="230" 
 />
    <glyph glyph-name="exclam" unicode="!" horiz-adv-x="310" 
d="M161 160h-10c-4 170 -31 460 -31 530c0 15 2 40 36 40s36 -25 36 -40c0 -70 -29 -360 -31 -530zM100 50c0 31 24 55 55 55s55 -24 55 -55s-24 -55 -55 -55s-55 24 -55 55z" />
    <glyph glyph-name="quotedbl" unicode="&#x22;" horiz-adv-x="412" 
d="M126 568l-25 162c-3 21 15 30 30 30s33 -9 30 -30l-25 -162h-10zM276 568l-25 162c-3 21 15 30 30 30s33 -9 30 -30l-25 -162h-10z" />
    <glyph glyph-name="numbersign" unicode="#" horiz-adv-x="560" 
d="M43 243h142v169h-142v10h142v143h10v-143h169v143h10v-143h143v-10h-143v-169h143v-10h-143v-142h-10v142h-169v-142h-10v142h-142v10zM195 412v-169h169v169h-169z" />
    <glyph glyph-name="dollar" unicode="$" horiz-adv-x="511" 
d="M442 467h-10c-22 109 -89 178 -165 183l-3 -278c91 -42 192 -83 192 -202c0 -103 -74 -176 -195 -180v-90h-11v90c-67 1 -135 19 -186 48l-9 160h9c23 -155 116 -196 186 -198l3 313c-89 39 -184 76 -184 187c0 83 62 157 186 160l1 90h12l-1 -90c56 -1 114 -15 165 -42z
M401 159c0 81 -65 116 -137 149l-3 -308c90 2 140 81 140 159zM124 520c0 -74 60 -109 129 -142l2 272c-81 -2 -131 -61 -131 -130z" />
    <glyph glyph-name="percent" unicode="%" horiz-adv-x="754" 
d="M532 700h11l-322 -700h-12zM406 145c2 86 60 155 145 155c80 0 139 -69 137 -155c-3 -86 -60 -155 -146 -155c-79 0 -137 69 -136 155zM446 145c0 -90 40 -150 101 -150s100 60 100 150s-39 150 -100 150s-101 -60 -101 -150zM66 555c2 86 60 155 145 155
c80 0 139 -69 137 -155c-3 -86 -60 -155 -146 -155c-79 0 -137 69 -136 155zM106 555c0 -90 40 -150 101 -150s100 60 100 150s-39 150 -100 150s-101 -60 -101 -150z" />
    <glyph glyph-name="ampersand" unicode="&#x26;" horiz-adv-x="728" 
d="M132 195c0 -105 43 -185 146 -185c46 0 131 27 180 86l-228 273c-53 -35 -98 -111 -98 -174zM413 577c0 69 -32 123 -112 123c-79 0 -112 -65 -112 -109c0 -73 28 -118 85 -190c108 57 139 124 139 176zM539 0l-74 88c-80 -83 -162 -98 -210 -98c-111 0 -185 70 -185 179
c0 105 90 160 154 209c-53 63 -93 119 -93 182c0 90 76 150 166 150c88 0 146 -47 146 -131c0 -56 -53 -125 -163 -185l212 -255c23 34 65 104 86 164c19 52 -24 77 -104 87v10h214v-10c-80 -10 -76 -35 -97 -87c-30 -74 -62 -128 -92 -170l61 -66c31 -36 52 -52 93 -57v-10
h-114z" />
    <glyph glyph-name="quotesingle" unicode="'" horiz-adv-x="262" 
d="M126 568l-25 162c-3 21 15 30 30 30s33 -9 30 -30l-25 -162h-10z" />
    <glyph glyph-name="parenleft" unicode="(" horiz-adv-x="334" 
d="M110 340c0 185 73 350 180 460h4c-95 -135 -124 -283 -124 -460s29 -325 124 -460h-4c-107 110 -180 275 -180 460z" />
    <glyph glyph-name="parenright" unicode=")" horiz-adv-x="334" 
d="M224 340c0 -185 -73 -350 -180 -460h-4c95 135 124 283 124 460s-29 325 -124 460h4c107 -110 180 -275 180 -460z" />
    <glyph glyph-name="asterisk" unicode="*" horiz-adv-x="442" 
d="M80 568c0 14 10 22 24 22c10 0 82 -18 106 -18c-18 18 -77 55 -87 64c-11 10 -12 22 -2 32c9 10 23 10 32 0c7 -7 47 -74 63 -90c0 26 -16 99 -16 109c0 14 7 23 21 23s21 -9 21 -23c0 -10 -17 -83 -17 -109c17 16 57 83 64 90c9 10 23 10 32 0c10 -10 9 -22 -2 -32
c-10 -9 -69 -46 -88 -64c24 0 97 18 107 18c14 0 24 -8 24 -22s-10 -22 -24 -22c-10 0 -83 17 -107 17c19 -18 78 -54 88 -63c11 -10 12 -22 2 -32c-9 -10 -23 -10 -32 0c-7 7 -47 74 -64 90c0 -27 17 -99 17 -109c0 -14 -7 -23 -21 -23s-21 9 -21 23c0 10 16 82 16 109
c-16 -16 -56 -83 -63 -90c-9 -10 -23 -10 -32 0c-10 10 -9 22 2 32c10 9 69 45 87 63c-24 0 -96 -17 -106 -17c-14 0 -24 8 -24 22z" />
    <glyph glyph-name="plus" unicode="+" horiz-adv-x="560" 
d="M285 502v-173h172v-10h-172v-171h-10v171h-172v10h172v173h10z" />
    <glyph glyph-name="comma" unicode="," horiz-adv-x="300" 
d="M145 105c50 0 65 -41 65 -80c0 -85 -49 -136 -111 -165l-5 12c50 23 90 67 90 96c0 22 -27 27 -39 27c-34 0 -55 27 -55 55c0 33 27 55 55 55z" />
    <glyph glyph-name="hyphen" unicode="-" horiz-adv-x="434" 
d="M60 273h314v-10h-314v10z" />
    <glyph glyph-name="period" unicode="." horiz-adv-x="290" 
d="M90 50c0 31 24 55 55 55s55 -24 55 -55s-24 -55 -55 -55s-55 24 -55 55z" />
    <glyph glyph-name="slash" unicode="/" horiz-adv-x="413" 
d="M334 710h9l-263 -720h-10z" />
    <glyph glyph-name="zero" unicode="0" horiz-adv-x="590" 
d="M65 325c0 170 85 335 230 335s230 -165 230 -335s-85 -335 -230 -335s-230 165 -230 335zM465 325c0 200 -65 325 -170 325s-170 -125 -170 -325s65 -325 170 -325s170 125 170 325z" />
    <glyph glyph-name="one" unicode="1" horiz-adv-x="420" 
d="M180 60v572l-147 -60l-3 8l195 80h10v-600c0 -45 55 -45 140 -50v-10h-335v10c85 5 140 5 140 50z" />
    <glyph glyph-name="two" unicode="2" horiz-adv-x="510" 
d="M250 650c-90 0 -130 -55 -130 -90c0 -25 35 -25 35 -50c0 -20 -20 -30 -35 -30c-10 0 -40 0 -40 40c0 80 80 140 185 140c90 0 180 -55 180 -185c0 -140 -93 -250 -323 -420h333v-55h-400v10c230 180 330 320 330 475c0 80 -40 165 -135 165z" />
    <glyph glyph-name="three" unicode="3" horiz-adv-x="535" 
d="M465 181c0 -130 -125 -191 -215 -191c-105 0 -195 60 -195 140c0 40 30 40 40 40c15 0 35 -10 35 -30c0 -25 -35 -35 -35 -60s50 -79 140 -80c95 -1 170 55 170 166c0 139 -80 174 -200 174v10c72 -5 170 25 170 155c0 70 -35 145 -125 145s-130 -55 -130 -80
s35 -35 35 -60c0 -20 -20 -30 -35 -30c-10 0 -40 0 -40 40c0 75 80 140 185 140c110 0 170 -65 170 -155c0 -85 -77 -138 -160 -158v-2c91 -12 190 -59 190 -164z" />
    <glyph glyph-name="four" unicode="4" horiz-adv-x="540" 
d="M400 0h-55v189h-315v11l360 460h10v-461h110v-10h-110v-189zM345 199v386l-303 -386h303z" />
    <glyph glyph-name="five" unicode="5" horiz-adv-x="535" 
d="M120 650h325v-55h-317l-6 -180c274 0 343 -120 343 -220c0 -120 -83 -205 -230 -205c-120 0 -180 61 -180 125c0 35 24 55 40 55c14 0 35 -9 35 -30c0 -25 -35 -31 -35 -60c0 -47 53 -80 130 -80c109 0 180 79 180 180c0 85 -61 185 -280 185h-14z" />
    <glyph glyph-name="six" unicode="6" horiz-adv-x="564" 
d="M434 200c0 100 -55 190 -145 190c-55 0 -120 -30 -158 -70c-21 -184 48 -320 153 -320c86 0 150 86 150 200zM499 210c0 -134 -95 -220 -215 -220c-151 0 -219 121 -219 264c0 213 139 381 344 416l3 -7c-175 -50 -253 -173 -282 -327c61 51 118 69 174 69
c120 0 195 -85 195 -195z" />
    <glyph glyph-name="seven" unicode="7" horiz-adv-x="484" 
d="M454 640l-267 -640h-76l317 595h-265c-80 0 -103 -6 -113 -96h-10l5 151h409v-10z" />
    <glyph glyph-name="eight" unicode="8" horiz-adv-x="545" 
d="M80 490c0 110 111 170 205 170c101 0 190 -65 190 -155c0 -58 -42 -120 -129 -168c76 -36 144 -79 144 -162c0 -125 -120 -185 -225 -185c-136 0 -210 76 -210 160c0 73 45 144 152 190c-69 35 -127 77 -127 150zM105 160c0 -105 75 -160 175 -160c95 0 155 80 155 150
c0 97 -117 135 -217 184c-69 -28 -113 -93 -113 -174zM425 500c0 90 -50 150 -150 150c-90 0 -135 -75 -135 -140c0 -90 102 -125 197 -169c69 41 88 100 88 159z" />
    <glyph glyph-name="nine" unicode="9" horiz-adv-x="564" 
d="M130 450c0 -100 55 -190 145 -190c55 0 120 30 158 70c21 184 -48 320 -153 320c-86 0 -150 -86 -150 -200zM65 440c0 134 95 220 215 220c151 0 219 -121 219 -264c0 -213 -139 -381 -344 -416l-3 7c175 50 253 173 282 327c-61 -51 -118 -69 -174 -69
c-120 0 -195 85 -195 195z" />
    <glyph glyph-name="colon" unicode=":" horiz-adv-x="290" 
d="M90 50c0 31 24 55 55 55s55 -24 55 -55s-24 -55 -55 -55s-55 24 -55 55zM90 335c0 31 24 55 55 55s55 -24 55 -55s-24 -55 -55 -55s-55 24 -55 55z" />
    <glyph glyph-name="semicolon" unicode=";" horiz-adv-x="300" 
d="M95 335c0 31 24 55 55 55s55 -24 55 -55s-24 -55 -55 -55s-55 24 -55 55zM145 105c50 0 65 -41 65 -80c0 -85 -49 -136 -111 -165l-5 12c50 23 90 67 90 96c0 22 -27 27 -39 27c-34 0 -55 27 -55 55c0 33 27 55 55 55z" />
    <glyph glyph-name="less" unicode="&#x3c;" horiz-adv-x="480" 
d="M377 502l-267 -177l267 -179v-11l-274 181v17l274 180v-11z" />
    <glyph glyph-name="equal" unicode="=" horiz-adv-x="560" 
d="M103 402h354v-10h-354v10zM103 262h354v-10h-354v10z" />
    <glyph glyph-name="greater" unicode="&#x3e;" horiz-adv-x="480" 
d="M370 325l-267 177v11l274 -180v-17l-274 -181v11z" />
    <glyph glyph-name="question" unicode="?" horiz-adv-x="485" 
d="M210 720c-90 0 -130 -55 -130 -80c0 -35 35 -35 35 -60c0 -20 -20 -30 -35 -30c-10 0 -40 0 -40 40c0 80 80 140 185 140c90 0 180 -55 180 -175c0 -125 -137 -207 -205 -235l8 -160h-14l-8 163c77 37 159 115 159 232c0 80 -40 165 -135 165zM150 50c0 31 24 55 55 55
s55 -24 55 -55s-24 -55 -55 -55s-55 24 -55 55z" />
    <glyph glyph-name="at" unicode="@" horiz-adv-x="850" 
d="M494 112l46 232c-18 20 -47 33 -75 33c-100 0 -142 -154 -142 -246c0 -64 15 -131 60 -131c44 0 98 46 111 112zM561 346l36 29h5l-52 -278c-8 -42 -17 -94 39 -94c59 0 151 107 151 258c0 184 -133 278 -280 278c-177 0 -332 -189 -332 -384c0 -189 116 -306 292 -306
c81 0 181 28 247 81l4 -6c-72 -60 -169 -95 -272 -95c-197 0 -319 136 -319 324c0 226 183 396 382 396c168 0 308 -97 308 -284c0 -165 -104 -273 -200 -273c-54 0 -77 35 -80 74c-31 -54 -81 -76 -121 -76c-75 0 -111 64 -111 136c0 119 85 260 202 260
c33 0 72 -11 101 -40z" />
    <glyph glyph-name="A" unicode="A" horiz-adv-x="690" 
d="M349 705l234 -638c12 -34 22 -52 87 -57v-10h-240v10c90 10 104 18 89 60l-64 180h-282l-63 -183c-15 -45 5 -48 110 -57v-10h-200v10c55 10 66 16 80 57l220 638h29zM311 652l-135 -392h275l-138 392h-2z" />
    <glyph glyph-name="B" unicode="B" horiz-adv-x="610" 
d="M335 0h-290v10c85 5 95 5 95 50v580c0 45 -10 45 -95 50v10h260c150 0 230 -70 230 -170c0 -80 -84 -145 -185 -168v-2c143 -22 215 -98 215 -175c0 -110 -80 -185 -230 -185zM195 10h135c145 0 175 100 175 180c0 88 -60 165 -215 165h-95v-345zM195 365h85
c135 0 195 69 195 155c0 80 -45 170 -175 170h-105v-325z" />
    <glyph glyph-name="C" unicode="C" horiz-adv-x="640" 
d="M380 0c140 0 200 105 220 185h10l-15 -135c-40 -25 -115 -60 -215 -60c-181 0 -325 150 -325 360s144 360 325 360c100 0 175 -35 215 -60l10 -135h-10c-20 90 -95 185 -215 185c-148 0 -265 -135 -265 -350s117 -350 265 -350z" />
    <glyph glyph-name="D" unicode="D" horiz-adv-x="740" 
d="M195 10h160c142 0 270 130 270 340s-130 340 -270 340h-160v-680zM355 0h-310v10c85 5 95 5 95 50v580c0 45 -10 45 -95 50v10h310c188 0 330 -140 330 -350s-142 -350 -330 -350z" />
    <glyph glyph-name="E" unicode="E" 
d="M540 700l5 -160h-10c-20 87 -54 150 -135 150h-205v-330h125c68 0 101 30 110 110h10v-230h-10c-9 80 -42 110 -110 110h-125v-340h195c81 0 135 50 155 150h10l-10 -160h-500v10c85 5 95 5 95 50v580c0 45 -10 45 -95 50v10h495z" />
    <glyph glyph-name="F" unicode="F" horiz-adv-x="575" 
d="M140 60v580c0 45 -10 45 -95 50v10h495l5 -160h-10c-20 87 -54 150 -135 150h-205v-350h125c68 0 101 30 110 110h10v-230h-10c-9 80 -42 110 -110 110h-125v-270c0 -45 10 -45 95 -50v-10h-245v10c85 5 95 5 95 50z" />
    <glyph glyph-name="G" unicode="G" horiz-adv-x="710" 
d="M380 0c87 0 146 52 180 111v139c0 45 -10 45 -95 50v10h225v-10c-65 -5 -75 -5 -75 -50v-255h-10l-14 86c-43 -42 -114 -91 -211 -91c-181 0 -325 150 -325 360s144 360 325 360c100 0 175 -35 215 -60l10 -135h-10c-20 90 -95 185 -215 185c-148 0 -265 -135 -265 -350
s117 -350 265 -350z" />
    <glyph glyph-name="H" unicode="H" horiz-adv-x="775" 
d="M580 60v295h-385v-295c0 -45 10 -45 95 -50v-10h-245v10c85 5 95 5 95 50v580c0 45 -10 45 -95 50v10h245v-10c-85 -5 -95 -5 -95 -50v-275h385v275c0 45 -10 45 -95 50v10h245v-10c-85 -5 -95 -5 -95 -50v-580c0 -45 10 -45 95 -50v-10h-245v10c85 5 95 5 95 50z" />
    <glyph glyph-name="I" unicode="I" horiz-adv-x="335" 
d="M140 60v580c0 45 -10 45 -95 50v10h245v-10c-85 -5 -95 -5 -95 -50v-580c0 -45 10 -45 95 -50v-10h-245v10c85 5 95 5 95 50z" />
    <glyph glyph-name="J" unicode="J" horiz-adv-x="365" 
d="M180 175v465c0 45 -10 45 -95 50v10h245v-10c-85 -5 -95 -5 -95 -50v-440c0 -135 -95 -210 -172 -210c-38 0 -53 15 -53 35s15 30 40 30c22 0 35 -35 70 -35c46 0 60 60 60 155z" />
    <glyph glyph-name="K" unicode="K" horiz-adv-x="710" 
d="M140 60v580c0 45 -10 45 -95 50v10h245v-10c-85 -5 -95 -5 -95 -50v-275c105 0 125 14 158 55l151 188c32 40 1 77 -89 82v10h230v-10c-60 -5 -82 -25 -110 -60l-220 -270c29 -21 78 -78 105 -110l112 -133c36 -43 85 -100 158 -107v-10h-125c-52 49 -120 137 -131 149
l-126 149c-35 42 -68 56 -113 57v-295c0 -45 10 -45 95 -50v-10h-245v10c85 5 95 5 95 50z" />
    <glyph glyph-name="L" unicode="L" horiz-adv-x="565" 
d="M140 60v580c0 45 -10 45 -95 50v10h245v-10c-85 -5 -95 -5 -95 -50v-630h185c81 0 135 50 155 150h10l-10 -160h-490v10c85 5 95 5 95 50z" />
    <glyph glyph-name="M" unicode="M" horiz-adv-x="870" 
d="M675 60v600l-250 -665h-5l-275 660v-595c0 -45 15 -45 130 -50v-10h-235v10c85 5 95 5 95 50v580c0 45 -10 45 -95 50v10h150l256 -617l233 617h146v-10c-85 -5 -95 -5 -95 -50v-580c0 -45 10 -45 95 -50v-10h-245v10c85 5 95 5 95 50z" />
    <glyph glyph-name="N" unicode="N" horiz-adv-x="725" 
d="M590 -5h-10l-425 655v-590c0 -45 25 -45 120 -50v-10h-235v10c85 5 105 5 105 50v580c0 45 -20 45 -105 50v10h150l390 -602v542c0 45 -25 45 -120 50v10h235v-10c-85 -5 -105 -5 -105 -50v-645z" />
    <glyph glyph-name="O" unicode="O" horiz-adv-x="770" 
d="M385 -10c-188 0 -330 150 -330 360s142 360 330 360s330 -150 330 -360s-142 -360 -330 -360zM385 700c-142 0 -270 -140 -270 -350s128 -350 270 -350s270 140 270 350s-128 350 -270 350z" />
    <glyph glyph-name="P" unicode="P" horiz-adv-x="595" 
d="M320 690h-125v-375h95c165 0 215 97 215 185c0 80 -40 190 -185 190zM45 700h289c150 0 231 -80 231 -190c0 -100 -65 -205 -275 -205h-95v-245c0 -45 10 -45 95 -50v-10h-245v10c85 5 95 5 95 50v580c0 45 -10 45 -95 50v10z" />
    <glyph glyph-name="Q" unicode="Q" horiz-adv-x="770" 
d="M55 350c0 210 142 360 330 360s330 -150 330 -360c0 -206 -137 -354 -320 -359c137 -113 197 -138 236 -138c35 0 56 16 77 48l7 -6c-18 -46 -43 -95 -99 -95c-47 0 -79 22 -237 190c-185 3 -324 152 -324 360zM385 700c-142 0 -270 -140 -270 -350s128 -350 270 -350
s270 140 270 350s-128 350 -270 350z" />
    <glyph glyph-name="R" unicode="R" horiz-adv-x="670" 
d="M45 700h279c150 0 231 -80 231 -190c0 -98 -62 -201 -261 -205c78 -29 108 -61 134 -95l92 -125c40 -54 85 -70 130 -75v-10h-125c-25 23 -60 68 -75 90l-66 95c-31 45 -69 95 -109 120h-80v-245c0 -45 10 -45 95 -50v-10h-245v10c85 5 95 5 95 50v580
c0 45 -10 45 -95 50v10zM310 690h-115v-375h85c165 0 215 97 215 185c0 80 -40 190 -185 190z" />
    <glyph glyph-name="S" unicode="S" horiz-adv-x="535" 
d="M465 505h-10c-25 120 -99 195 -185 195c-90 0 -145 -50 -145 -125c0 -205 355 -165 355 -395c0 -111 -81 -190 -215 -190c-72 0 -145 20 -200 50l-10 170h10c25 -170 130 -210 205 -210c100 0 155 65 155 160c0 210 -355 161 -355 380c0 89 68 170 205 170
c61 0 125 -15 180 -45z" />
    <glyph glyph-name="T" unicode="T" horiz-adv-x="575" 
d="M30 540l5 160h505l5 -160h-10c-20 87 -54 150 -135 150h-85v-630c0 -45 10 -45 95 -50v-10h-245v10c85 5 95 5 95 50v630h-85c-81 0 -115 -63 -135 -150h-10z" />
    <glyph glyph-name="U" unicode="U" horiz-adv-x="755" 
d="M130 270v370c0 45 -10 45 -95 50v10h245v-10c-85 -5 -95 -5 -95 -50v-375c0 -160 71 -255 215 -255c130 0 220 89 220 255v375c0 45 -15 45 -120 50v10h225v-10c-85 -5 -95 -5 -95 -50v-370c0 -180 -97 -280 -260 -280c-170 0 -240 107 -240 280z" />
    <glyph glyph-name="V" unicode="V" horiz-adv-x="670" 
d="M331 -5l-234 638c-12 34 -22 52 -87 57v10h240v-10c-90 -10 -104 -18 -89 -60l206 -582h2l201 585c15 45 -5 48 -110 57v10h200v-10c-55 -10 -66 -16 -80 -57l-220 -638h-29z" />
    <glyph glyph-name="W" unicode="W" horiz-adv-x="1000" 
d="M681 -5l-159 525l-182 -525h-29l-210 628c-11 34 -26 62 -91 67v10h240v-10c-90 -10 -99 -28 -85 -70l184 -565h2l166 480l-26 88c-10 35 -26 62 -91 67v10h240v-10c-90 -10 -97 -27 -85 -70l162 -566h2l168 544c19 61 15 82 -97 92v10h200v-10c-55 -10 -72 -26 -85 -67
l-195 -628h-29z" />
    <glyph glyph-name="X" unicode="X" horiz-adv-x="670" 
d="M459 102l-135 229l-164 -239c-43 -63 -17 -72 95 -82v-10h-235v10c47 10 81 16 117 67l181 263l-154 263c-29 49 -49 77 -129 87v10h260v-10c-80 -5 -96 -37 -70 -82l130 -223l155 226c24 35 45 74 -85 79v10h210v-10c-65 -10 -86 -37 -120 -87l-155 -228l175 -298
c29 -50 48 -57 115 -67v-10h-275v10c88 11 116 38 84 92z" />
    <glyph glyph-name="Y" unicode="Y" horiz-adv-x="640" 
d="M310 60v176l-199 387c-17 32 -36 62 -101 67v10h240v-10c-90 -10 -95 -30 -75 -70l182 -363h2l156 341c26 58 -3 82 -85 92v10h200v-10c-55 -10 -75 -28 -93 -67l-172 -376v-187c0 -45 10 -45 95 -50v-10h-245v10c85 5 95 5 95 50z" />
    <glyph glyph-name="Z" unicode="Z" horiz-adv-x="570" 
d="M530 690l-438 -680h293c79 0 135 69 145 150h10l-10 -160h-500v10l439 680h-272c-80 0 -117 -59 -137 -150h-10l5 160h475v-10z" />
    <glyph glyph-name="bracketleft" unicode="[" horiz-adv-x="320" 
d="M300 -89v-11h-200v900h200v-11h-150v-878h150z" />
    <glyph glyph-name="backslash" unicode="\" horiz-adv-x="413" 
d="M70 710h9l264 -720h-10z" />
    <glyph glyph-name="bracketright" unicode="]" horiz-adv-x="320" 
d="M20 789v11h200v-900h-200v11h150v878h-150z" />
    <glyph glyph-name="asciicircum" unicode="^" horiz-adv-x="498" 
d="M249 621l-147 -151h-2l144 230h9l145 -230h-2z" />
    <glyph glyph-name="underscore" unicode="_" horiz-adv-x="474" 
d="M60 -39h354v-10h-354v10z" />
    <glyph glyph-name="grave" unicode="`" horiz-adv-x="347" 
d="M243 552l-126 89c-13 9 -17 20 -17 30c0 19 18 34 36 33c10 -1 21 -7 28 -18l83 -130z" />
    <glyph glyph-name="a" unicode="a" horiz-adv-x="505" 
d="M390 365v-310c0 -25 14 -35 34 -35c19 0 43 15 69 31l2 -6c-38 -27 -83 -55 -119 -55c-35 0 -41 28 -41 60v20h-2c-56 -48 -107 -80 -168 -80c-78 0 -115 50 -115 109c0 63 42 133 285 156v105c0 78 -40 130 -120 130c-66 0 -110 -42 -110 -74c0 -25 35 -32 35 -55
c0 -18 -15 -31 -36 -31s-39 12 -39 39c0 46 63 141 187 141c100 0 138 -60 138 -145zM335 80v165c-185 -21 -230 -70 -230 -135c0 -51 25 -90 90 -90c51 0 94 30 140 60z" />
    <glyph glyph-name="b" unicode="b" horiz-adv-x="575" 
d="M155 440h5c39 38 104 70 164 70c130 0 206 -110 206 -260c0 -165 -110 -260 -230 -260c-37 0 -115 10 -160 60l-25 -55h-10v655c0 45 -10 45 -95 50v10l140 20h10zM299 490c-58 0 -106 -30 -139 -59v-281c0 -115 74 -150 130 -150c122 0 180 115 180 250
c0 150 -79 240 -171 240z" />
    <glyph glyph-name="c" unicode="c" horiz-adv-x="480" 
d="M290 500c-109 0 -190 -105 -190 -230c0 -153 83 -250 200 -250c66 0 108 26 136 47l4 -7c-21 -19 -79 -70 -165 -70c-150 0 -230 120 -230 255c0 170 115 265 240 265c104 0 160 -61 160 -125c0 -35 -22 -45 -38 -45c-14 0 -32 5 -32 26c0 26 35 33 35 54
c0 47 -51 80 -120 80z" />
    <glyph glyph-name="d" unicode="d" horiz-adv-x="580" 
d="M276 10c58 0 106 32 139 61v279c0 115 -74 150 -130 150c-122 0 -180 -115 -180 -250c0 -150 79 -240 171 -240zM470 730v-660c0 -45 10 -45 95 -50v-10l-135 -20h-10v70h-5c-39 -38 -104 -70 -164 -70c-130 0 -206 110 -206 260c0 165 110 260 230 260
c37 0 90 -10 140 -50v190c0 45 -10 45 -95 50v10l140 20h10z" />
    <glyph glyph-name="e" unicode="e" horiz-adv-x="495" 
d="M285 510c77 0 165 -37 165 -152c0 -18 -4 -44 -10 -60h-339c-1 -9 -1 -19 -1 -28c0 -153 83 -250 200 -250c66 0 106 25 136 47l4 -7c-21 -19 -79 -70 -165 -70c-150 0 -230 120 -230 255c0 170 115 265 240 265zM280 500c-86 0 -163 -81 -178 -192h277c5 20 6 58 6 74
c-2 78 -35 118 -105 118z" />
    <glyph glyph-name="f" unicode="f" horiz-adv-x="340" 
d="M315 500v-10h-130v-430c0 -45 10 -45 115 -50v-10h-265v10c85 5 95 5 95 50v430h-95v5l95 5v40c0 80 35 190 160 190c55 0 100 -30 100 -75c0 -35 -22 -45 -38 -45c-14 0 -32 5 -32 26c0 16 30 24 30 49c0 24 -30 35 -65 35c-85 0 -100 -98 -100 -180v-40h130z" />
    <glyph glyph-name="g" unicode="g" horiz-adv-x="535" 
d="M250 155c-33 0 -64 6 -91 18c-11 -13 -24 -46 -24 -68c0 -28 23 -32 67 -35l162 -10c72 -4 141 -40 141 -110c0 -119 -145 -160 -275 -160c-145 0 -200 45 -200 110c0 45 47 80 109 119c-27 5 -64 19 -64 65c0 27 14 55 77 92c-58 28 -97 82 -97 156
c0 108 83 178 195 178c46 0 84 -13 114 -33l131 23v-55l-124 27c46 -34 69 -88 69 -137c0 -115 -78 -180 -190 -180zM120 340c0 -100 61 -175 135 -175c89 0 120 80 120 160c0 95 -53 175 -130 175c-82 0 -125 -70 -125 -160zM330 5l-182 13c-38 -39 -60 -70 -60 -108
c0 -55 42 -110 147 -110c86 0 207 33 207 126c0 54 -54 75 -112 79z" />
    <glyph glyph-name="h" unicode="h" horiz-adv-x="615" 
d="M35 0v10c85 5 95 5 95 50v590c0 45 -10 45 -95 50v10l140 20h10l-5 -325h5c50 59 123 105 196 105c67 0 124 -40 124 -150v-300c0 -45 10 -45 95 -50v-10h-225v10c65 5 75 5 75 50v303c0 58 -25 112 -110 112c-63 0 -116 -42 -155 -80v-335c0 -45 10 -45 95 -50v-10h-245
z" />
    <glyph glyph-name="i" unicode="i" horiz-adv-x="295" 
d="M105 629c0 27 22 49 50 49s50 -22 50 -49c0 -28 -22 -49 -50 -49s-50 21 -50 49zM185 510v-450c0 -45 10 -45 95 -50v-10h-245v10c85 5 95 5 95 50v370c0 45 -10 45 -95 50v10l140 20h10z" />
    <glyph glyph-name="j" unicode="j" horiz-adv-x="275" 
d="M175 510v-490c0 -150 -63 -230 -130 -230c-34 0 -45 17 -45 36c0 17 13 34 35 34c23 0 47 -35 60 -35c14 0 25 9 25 80v525c0 45 -10 45 -95 50v10l140 20h10zM95 629c0 27 22 49 50 49s50 -22 50 -49c0 -28 -22 -49 -50 -49s-50 21 -50 49z" />
    <glyph glyph-name="k" unicode="k" horiz-adv-x="585" 
d="M185 730v-460c88 0 100 -2 145 48l77 92c35 41 33 70 -71 80v10h209v-10c-70 -10 -87 -37 -115 -70l-123 -144l198 -228c10 -11 25 -36 75 -41v-7h-115l-189 229c-22 26 -43 31 -91 31v-200c0 -45 10 -45 95 -50v-10h-245v10c85 5 95 5 95 50v590c0 45 -10 45 -95 50v10
l140 20h10z" />
    <glyph glyph-name="l" unicode="l" horiz-adv-x="295" 
d="M185 730v-670c0 -45 10 -45 95 -50v-10h-245v10c85 5 95 5 95 50v590c0 45 -10 45 -95 50v10l140 20h10z" />
    <glyph glyph-name="m" unicode="m" horiz-adv-x="915" 
d="M35 0v10c85 5 95 5 95 50v370c0 45 -10 45 -95 50v10l140 20h10l-5 -105h5c50 59 113 105 186 105c64 0 107 -36 122 -104h3c51 59 112 104 185 104c67 0 124 -40 124 -150v-300c0 -45 10 -45 95 -50v-10h-215v10c55 5 65 5 65 50v318c0 58 -30 97 -90 97
c-62 0 -122 -38 -165 -80v-335c0 -45 10 -45 95 -50v-10h-215v10c55 5 65 5 65 50v318c0 58 -30 97 -90 97c-65 0 -125 -40 -165 -80v-335c0 -45 10 -45 95 -50v-10h-245z" />
    <glyph glyph-name="n" unicode="n" horiz-adv-x="615" 
d="M35 0v10c85 5 95 5 95 50v370c0 45 -10 45 -95 50v10l140 20h10l-5 -105h5c50 59 123 105 196 105c67 0 124 -40 124 -150v-300c0 -45 10 -45 95 -50v-10h-225v10c65 5 75 5 75 50v303c0 58 -25 112 -110 112c-63 0 -116 -42 -155 -80v-335c0 -45 10 -45 95 -50v-10h-245
z" />
    <glyph glyph-name="o" unicode="o" horiz-adv-x="550" 
d="M275 -10c-140 0 -230 115 -230 260s90 260 230 260s230 -115 230 -260s-90 -260 -230 -260zM275 500c-105 0 -170 -100 -170 -250s65 -250 170 -250s170 100 170 250s-65 250 -170 250z" />
    <glyph glyph-name="p" unicode="p" horiz-adv-x="590" 
d="M170 440h5c39 38 104 70 164 70c130 0 206 -110 206 -260c0 -165 -110 -260 -230 -260c-37 0 -105 10 -140 40v-170c0 -45 10 -45 95 -50v-10h-245v10c85 5 95 5 95 50v570c0 45 -10 45 -95 50v10l140 20h10zM314 490c-58 0 -106 -31 -139 -60v-280
c0 -115 74 -150 130 -150c122 0 180 115 180 250c0 150 -79 240 -171 240z" />
    <glyph glyph-name="q" unicode="q" horiz-adv-x="570" 
d="M276 10c58 0 106 32 139 61v279c0 115 -74 150 -130 150c-122 0 -180 -115 -180 -250c0 -150 79 -240 171 -240zM415 -140l5 200h-5c-39 -38 -104 -70 -164 -70c-130 0 -206 110 -206 260c0 165 110 260 230 260c37 0 115 -10 160 -60l25 55h10v-645c0 -45 10 -45 95 -50
v-10h-245v10c85 5 94 5 95 50z" />
    <glyph glyph-name="r" unicode="r" horiz-adv-x="410" 
d="M35 0v10c85 5 95 5 95 50v370c0 45 -10 45 -95 50v10l140 20h10l-5 -115h5c60 80 113 115 165 115c29 0 50 -15 50 -42c0 -20 -15 -38 -36 -38c-22 0 -34 35 -69 35s-70 -30 -110 -80v-325c0 -45 10 -45 115 -50v-10h-265z" />
    <glyph glyph-name="s" unicode="s" horiz-adv-x="425" 
d="M360 350h-10c-4 80 -80 150 -143 150c-71 0 -107 -39 -107 -92c0 -148 280 -98 280 -271c0 -95 -75 -147 -175 -147c-55 0 -107 15 -147 35l-13 135h10c24 -120 96 -160 153 -160c77 0 117 50 117 108c0 152 -275 104 -275 270c0 80 70 132 165 132c47 0 97 -12 137 -31z
" />
    <glyph glyph-name="t" unicode="t" horiz-adv-x="355" 
d="M175 490v-386c0 -75 28 -96 65 -96c36 0 70 25 92 40l3 -8c-41 -32 -80 -50 -122 -50c-63 0 -93 35 -93 120v380h-95v5l95 5l45 150h10v-150h145v-10h-145z" />
    <glyph glyph-name="u" unicode="u" horiz-adv-x="605" 
d="M440 105v325c0 45 -10 45 -115 50v10l160 20h10v-440c0 -45 10 -45 95 -50v-10l-135 -20h-10v105h-5c-50 -59 -123 -105 -196 -105c-67 0 -124 40 -124 150v290c0 45 -10 45 -95 50v10l140 20h10v-388c0 -58 30 -97 90 -97c70 0 135 40 175 80z" />
    <glyph glyph-name="v" unicode="v" horiz-adv-x="540" 
d="M265 -5l-186 428c-14 33 -37 67 -74 67v10h225v-10c-90 -10 -97 -29 -80 -70l154 -370h2l143 370c20 51 6 60 -94 70v10h180v-10c-40 -5 -55 -20 -69 -57l-170 -438h-31z" />
    <glyph glyph-name="w" unicode="w" horiz-adv-x="840" 
d="M585 -5l-150 428l-159 -428h-31l-166 428c-13 34 -24 63 -74 67v10h225v-10c-90 -10 -95 -28 -80 -70l132 -372h2l171 457h15l151 -457h2l126 372c18 52 -4 60 -94 70v10h180v-10c-40 -5 -56 -20 -69 -57l-150 -438h-31z" />
    <glyph glyph-name="x" unicode="x" horiz-adv-x="560" 
d="M354 90l-94 145l-121 -160c-23 -30 -19 -60 66 -65v-10h-180v10c55 10 70 24 96 58l133 176l-120 186c-22 34 -34 50 -99 60v10h219v-10c-55 -10 -74 -24 -44 -70l93 -145l103 140c32 44 24 70 -60 75v10h179v-10c-55 -10 -69 -26 -95 -60l-122 -164l127 -196
c22 -34 44 -50 99 -60v-10h-229v10c70 10 78 35 49 80z" />
    <glyph glyph-name="y" unicode="y" horiz-adv-x="540" 
d="M466 433l-166 -428c-71 -183 -187 -215 -245 -215c-33 0 -45 16 -45 36s13 34 36 34c20 0 34 -5 58 -5c79 0 126 23 171 118l-196 450c-14 33 -34 65 -74 67v10h225v-10c-90 -10 -97 -29 -80 -70l154 -370h2l143 370c20 51 7 60 -94 70v10h180v-10
c-40 -5 -55 -20 -69 -57z" />
    <glyph glyph-name="z" unicode="z" horiz-adv-x="475" 
d="M93 10h232c55 0 90 40 110 140h10l-15 -150h-400v10l332 480h-207c-55 0 -80 -50 -100 -140h-10l10 150h370v-10z" />
    <glyph glyph-name="braceleft" unicode="{" horiz-adv-x="364" 
d="M61 351c59 -19 151 -46 151 -129c0 -58 -13 -157 -13 -195c0 -95 64 -115 145 -117v-10c-133 0 -216 43 -216 139c0 69 24 121 24 192c0 77 -51 110 -132 118v3c81 8 132 41 132 118c0 71 -24 122 -24 191c0 96 83 139 216 139v-10c-81 -2 -145 -25 -145 -117
c0 -38 13 -136 13 -194c0 -83 -92 -109 -151 -128z" />
    <glyph glyph-name="bar" unicode="|" horiz-adv-x="235" 
d="M112 -100v920h10v-920h-10z" />
    <glyph glyph-name="braceright" unicode="}" horiz-adv-x="364" 
d="M303 351c-59 19 -151 45 -151 128c0 58 13 156 13 194c0 92 -64 115 -145 117v10c133 0 216 -43 216 -139c0 -69 -24 -120 -24 -191c0 -77 51 -110 132 -118v-3c-81 -8 -132 -41 -132 -118c0 -71 24 -123 24 -192c0 -96 -83 -139 -216 -139v10c81 2 145 22 145 117
c0 38 -13 137 -13 195c0 83 92 110 151 129z" />
    <glyph glyph-name="asciitilde" unicode="~" horiz-adv-x="538" 
d="M104 524l-4 2c19 39 49 107 91 107c36 0 131 -42 175 -42c21 0 43 10 66 45l5 -4c-19 -38 -50 -96 -92 -96s-127 40 -169 40c-28 0 -45 -14 -72 -52z" />
    <glyph glyph-name="Euro" unicode="&#x20ac;" horiz-adv-x="688" 
d="M55 402h67c30 154 151 258 298 258c93 0 162 -32 199 -55l9 -127h-10c-19 84 -86 172 -198 172c-117 0 -213 -104 -239 -248h208l-5 -10h-204c-3 -21 -5 -44 -5 -66c0 -23 2 -44 5 -65h209l-5 -10h-203c25 -146 122 -251 239 -251c130 0 185 97 203 172h10l-14 -126
c-37 -24 -106 -56 -199 -56c-148 0 -269 105 -298 261h-67v10h65c-4 21 -5 42 -5 65s2 45 5 66h-65v10z" />
    <glyph glyph-name="quotesinglbase" unicode="&#x201a;" horiz-adv-x="300" 
d="M145 105c50 0 65 -41 65 -80c0 -85 -49 -136 -111 -165l-5 12c50 23 90 67 90 96c0 22 -27 27 -39 27c-34 0 -55 27 -55 55c0 33 27 55 55 55z" />
    <glyph glyph-name="florin" unicode="&#x192;" horiz-adv-x="340" 
d="M237 490l-50 -470c-16 -150 -87 -230 -154 -230c-31 0 -42 15 -42 32c0 19 16 38 39 38s46 -40 59 -40c14 0 26 39 34 110l59 560h-96l1 5l96 5l4 40c8 80 55 190 180 190c52 0 92 -28 92 -69c0 -40 -25 -51 -43 -51c-13 0 -29 5 -29 23c0 20 19 24 19 45
c0 22 -21 42 -46 42c-85 0 -110 -98 -118 -180l-4 -40h130l-2 -10h-129z" />
    <glyph glyph-name="quotedblbase" unicode="&#x201e;" horiz-adv-x="460" 
d="M145 105c50 0 65 -41 65 -80c0 -85 -49 -136 -111 -165l-5 12c50 23 90 67 90 96c0 22 -27 27 -39 27c-34 0 -55 27 -55 55c0 33 27 55 55 55zM305 105c50 0 65 -41 65 -80c0 -85 -49 -136 -111 -165l-5 12c50 23 90 67 90 96c0 22 -27 27 -39 27c-34 0 -55 27 -55 55
c0 33 27 55 55 55z" />
    <glyph glyph-name="ellipsis" unicode="&#x2026;" horiz-adv-x="630" 
d="M90 50c0 31 24 55 55 55s55 -24 55 -55s-24 -55 -55 -55s-55 24 -55 55zM260 50c0 31 24 55 55 55s55 -24 55 -55s-24 -55 -55 -55s-55 24 -55 55zM430 50c0 31 24 55 55 55s55 -24 55 -55s-24 -55 -55 -55s-55 24 -55 55z" />
    <glyph glyph-name="dagger" unicode="&#x2020;" 
d="M302 360h-4c-37 89 -83 143 -118 143c-38 0 -42 -66 -86 -66c-18 0 -34 14 -34 31c0 42 55 62 95 62c55 0 107 -58 140 -145c-9 77 -31 237 -31 285c0 15 2 40 36 40s36 -25 36 -40c0 -48 -23 -208 -31 -285c42 97 84 145 140 145c40 0 95 -20 95 -62
c0 -17 -16 -31 -34 -31c-44 0 -48 66 -86 66c-35 0 -81 -54 -118 -143zM302 -10h-4c0 70 -34 240 -34 310c0 15 2 40 36 40s36 -25 36 -40c0 -70 -34 -240 -34 -310z" />
    <glyph glyph-name="daggerdbl" unicode="&#x2021;" 
d="M302 360h-4c-37 89 -83 143 -118 143c-38 0 -42 -66 -86 -66c-18 0 -34 14 -34 31c0 42 55 62 95 62c55 0 107 -58 140 -145c-9 77 -31 237 -31 285c0 15 2 40 36 40s36 -25 36 -40c0 -48 -23 -208 -31 -285c42 97 84 145 140 145c40 0 95 -20 95 -62
c0 -17 -16 -31 -34 -31c-44 0 -48 66 -86 66c-35 0 -81 -54 -118 -143zM302 340h-4c-37 -89 -83 -143 -118 -143c-38 0 -42 66 -86 66c-18 0 -34 -14 -34 -31c0 -42 55 -62 95 -62c55 0 107 58 140 145c-9 -77 -31 -237 -31 -285c0 -15 2 -40 36 -40s36 25 36 40
c0 48 -23 208 -31 285c42 -97 84 -145 140 -145c40 0 95 20 95 62c0 17 -16 31 -34 31c-44 0 -48 -66 -86 -66c-35 0 -81 54 -118 143z" />
    <glyph glyph-name="circumflex" unicode="&#x2c6;" horiz-adv-x="435" 
d="M217 640l-115 -90h-2l113 162h9l113 -162h-2z" />
    <glyph glyph-name="perthousand" unicode="&#x2030;" horiz-adv-x="1084" 
d="M532 700h11l-322 -700h-12zM406 145c2 86 60 155 145 155c80 0 139 -69 137 -155c-3 -86 -60 -155 -146 -155c-79 0 -137 69 -136 155zM446 145c0 -90 40 -150 101 -150s100 60 100 150s-39 150 -100 150s-101 -60 -101 -150zM66 555c2 86 60 155 145 155
c80 0 139 -69 137 -155c-3 -86 -60 -155 -146 -155c-79 0 -137 69 -136 155zM106 555c0 -90 40 -150 101 -150s100 60 100 150s-39 150 -100 150s-101 -60 -101 -150zM736 145c2 86 60 155 145 155c80 0 139 -69 137 -155c-3 -86 -60 -155 -146 -155c-79 0 -137 69 -136 155
zM776 145c0 -90 40 -150 101 -150s100 60 100 150s-39 150 -100 150s-101 -60 -101 -150z" />
    <glyph glyph-name="Scaron" unicode="&#x160;" horiz-adv-x="535" 
d="M140 920l127 -101l127 101h2l-125 -180h-9l-124 180h2zM465 505h-10c-25 120 -99 195 -185 195c-90 0 -145 -50 -145 -125c0 -205 355 -165 355 -395c0 -111 -81 -190 -215 -190c-72 0 -145 20 -200 50l-10 170h10c25 -170 130 -210 205 -210c100 0 155 65 155 160
c0 210 -355 161 -355 380c0 89 68 170 205 170c61 0 125 -15 180 -45z" />
    <glyph glyph-name="guilsinglleft" unicode="&#x2039;" horiz-adv-x="474" 
d="M374 445l-183 -176l183 -179v-11l-274 181v17l274 180v-12z" />
    <glyph glyph-name="OE" unicode="&#x152;" horiz-adv-x="965" 
d="M905 700l5 -160h-10c-20 87 -54 150 -135 150h-205v-330h125c68 0 101 30 110 110h10v-230h-10c-9 80 -42 110 -110 110h-125v-340h195c81 0 135 50 155 150h10l-10 -160h-444c-26 -6 -53 -10 -81 -10c-188 0 -330 150 -330 360s142 360 330 360c29 0 58 -4 84 -10h436z
M385 700c-142 0 -270 -140 -270 -350s128 -350 270 -350c55 0 117 17 120 112v480c-3 86 -63 108 -120 108z" />
    <glyph glyph-name="Zcaron" unicode="&#x17d;" horiz-adv-x="570" 
d="M178 920l127 -101l127 101h2l-125 -180h-9l-124 180h2zM530 690l-438 -680h293c79 0 135 69 145 150h10l-10 -160h-500v10l439 680h-272c-80 0 -117 -59 -137 -150h-10l5 160h475v-10z" />
    <glyph glyph-name="quoteleft" unicode="&#x2018;" horiz-adv-x="300" 
d="M155 465c-50 0 -65 41 -65 80c0 85 49 136 111 165l5 -12c-50 -23 -90 -67 -90 -96c0 -22 27 -27 39 -27c34 0 55 -27 55 -55c0 -33 -27 -55 -55 -55z" />
    <glyph glyph-name="quoteright" unicode="&#x2019;" horiz-adv-x="300" 
d="M145 710c50 0 65 -41 65 -80c0 -85 -49 -136 -111 -165l-5 12c50 23 90 67 90 96c0 22 -27 27 -39 27c-34 0 -55 27 -55 55c0 33 27 55 55 55z" />
    <glyph glyph-name="quotedblleft" unicode="&#x201c;" horiz-adv-x="460" 
d="M315 465c-50 0 -65 41 -65 80c0 85 49 136 111 165l5 -12c-50 -23 -90 -67 -90 -96c0 -22 27 -27 39 -27c34 0 55 -27 55 -55c0 -33 -27 -55 -55 -55zM155 465c-50 0 -65 41 -65 80c0 85 49 136 111 165l5 -12c-50 -23 -90 -67 -90 -96c0 -22 27 -27 39 -27
c34 0 55 -27 55 -55c0 -33 -27 -55 -55 -55z" />
    <glyph glyph-name="quotedblright" unicode="&#x201d;" horiz-adv-x="460" 
d="M145 710c50 0 65 -41 65 -80c0 -85 -49 -136 -111 -165l-5 12c50 23 90 67 90 96c0 22 -27 27 -39 27c-34 0 -55 27 -55 55c0 33 27 55 55 55zM305 710c50 0 65 -41 65 -80c0 -85 -49 -136 -111 -165l-5 12c50 23 90 67 90 96c0 22 -27 27 -39 27c-34 0 -55 27 -55 55
c0 33 27 55 55 55z" />
    <glyph glyph-name="bullet" unicode="&#x2022;" horiz-adv-x="339" 
d="M90 326c0 45 35 80 79 80c45 0 80 -35 80 -80c0 -44 -35 -79 -80 -79c-44 0 -79 35 -79 79z" />
    <glyph glyph-name="endash" unicode="&#x2013;" horiz-adv-x="534" 
d="M60 273h414v-10h-414v10z" />
    <glyph glyph-name="emdash" unicode="&#x2014;" horiz-adv-x="634" 
d="M60 273h514v-10h-514v10z" />
    <glyph glyph-name="tilde" unicode="&#x2dc;" horiz-adv-x="507" 
d="M104 544l-4 2c19 39 44 95 86 95c36 0 129 -36 164 -36c11 0 29 0 52 35l5 -4c-19 -38 -40 -86 -82 -86s-126 36 -168 36c-13 0 -26 -4 -53 -42z" />
    <glyph glyph-name="trademark" unicode="&#x2122;" horiz-adv-x="767" 
d="M40 620l2 80h253l2 -80h-5c-10 43 -27 75 -67 75h-43v-315c0 -23 5 -23 48 -25v-5h-123v5c43 2 48 2 48 25v315h-43c-40 0 -57 -32 -67 -75h-5zM652 380v300l-125 -333h-2l-138 330v-297c0 -23 8 -23 65 -25v-5h-117v5c42 2 47 2 47 25v290c0 22 -5 22 -47 25v5h75
l128 -309l116 309h73v-5c-42 -3 -47 -3 -47 -25v-290c0 -23 5 -23 47 -25v-5h-122v5c42 2 47 2 47 25z" />
    <glyph glyph-name="scaron" unicode="&#x161;" horiz-adv-x="425" 
d="M360 350h-10c-4 80 -80 150 -143 150c-71 0 -107 -39 -107 -92c0 -148 280 -98 280 -271c0 -95 -75 -147 -175 -147c-55 0 -107 15 -147 35l-13 135h10c24 -120 96 -160 153 -160c77 0 117 50 117 108c0 152 -275 104 -275 270c0 80 70 132 165 132c47 0 97 -12 137 -31z
M97 712l115 -90l116 90h2l-113 -162h-9l-113 162h2z" />
    <glyph glyph-name="guilsinglright" unicode="&#x203a;" horiz-adv-x="474" 
d="M283 269l-183 176v12l274 -180v-17l-274 -181v11z" />
    <glyph glyph-name="oe" unicode="&#x153;" horiz-adv-x="905" 
d="M695 510c77 0 165 -37 165 -152c0 -18 -4 -44 -10 -60h-339c-1 -9 -1 -19 -1 -28c0 -153 83 -250 200 -250c66 0 106 25 136 47l4 -7c-21 -19 -79 -70 -165 -70c-102 0 -172 55 -206 133c-37 -80 -109 -133 -204 -133c-140 0 -230 115 -230 260s90 260 230 260
c97 0 170 -56 206 -138c41 89 125 138 214 138zM275 500c-105 0 -170 -100 -170 -250s65 -250 170 -250s170 100 170 250s-65 250 -170 250zM512 308h277c5 20 6 58 6 74c-2 78 -35 118 -105 118c-86 0 -163 -81 -178 -192z" />
    <glyph glyph-name="zcaron" unicode="&#x17e;" horiz-adv-x="475" 
d="M93 10h232c55 0 90 40 110 140h10l-15 -150h-400v10l332 480h-207c-55 0 -80 -50 -100 -140h-10l10 150h370v-10zM134 712l115 -90l116 90h2l-113 -162h-9l-113 162h2z" />
    <glyph glyph-name="Ydieresis" unicode="&#x178;" horiz-adv-x="640" 
d="M193 805c0 30 21 51 49 51s50 -21 50 -51c0 -29 -22 -49 -50 -49s-49 20 -49 49zM386 805c0 30 22 51 50 51s49 -21 49 -51c0 -29 -21 -49 -49 -49s-50 20 -50 49zM310 60v176l-199 387c-17 32 -36 62 -101 67v10h240v-10c-90 -10 -95 -30 -75 -70l182 -363h2l156 341
c26 58 -3 82 -85 92v10h200v-10c-55 -10 -75 -28 -93 -67l-172 -376v-187c0 -45 10 -45 95 -50v-10h-245v10c85 5 95 5 95 50z" />
    <glyph glyph-name="exclamdown" unicode="&#xa1;" horiz-adv-x="310" 
d="M151 345h10c2 -170 31 -445 31 -515c0 -15 -2 -40 -36 -40s-36 25 -36 40c0 70 27 345 31 515zM100 455c0 31 24 55 55 55s55 -24 55 -55s-24 -55 -55 -55s-55 24 -55 55z" />
    <glyph glyph-name="cent" unicode="&#xa2;" horiz-adv-x="447" 
d="M250 190v40c-110 2 -195 92 -195 216s85 211 195 214v40h10v-40c57 -1 100 -22 124 -36l6 -83h-6c-12 52 -55 110 -124 113v-418c78 2 114 66 126 113h6l-8 -83c-24 -15 -67 -35 -124 -36v-40h-10zM104 446c0 -132 64 -207 146 -210v418c-82 -3 -146 -78 -146 -208z" />
    <glyph glyph-name="sterling" unicode="&#xa3;" horiz-adv-x="594" 
d="M68 330h121c-30 61 -74 113 -74 175c0 84 63 155 190 155c57 0 117 -14 168 -42l10 -149h-9c-24 111 -92 181 -172 181c-82 0 -132 -61 -132 -130c0 -68 43 -122 66 -190h156v-10h-153c6 -21 11 -44 11 -68c0 -63 -28 -135 -67 -187c88 -3 182 -30 237 -30
c32 0 84 12 109 115h10c-11 -42 -32 -170 -144 -170c-76 0 -119 62 -217 78c-31 -41 -69 -68 -102 -68c-12 0 -21 10 -21 21c0 49 96 54 113 54h4c39 59 43 116 43 165c0 33 -9 62 -22 90h-125v10z" />
    <glyph glyph-name="currency" unicode="&#xa4;" horiz-adv-x="552" 
d="M128 249c0 45 17 85 46 114l-74 90l8 8l74 -90c26 22 59 36 95 36c35 0 68 -14 93 -36l74 90l8 -8l-73 -89c29 -29 47 -70 47 -115s-18 -86 -47 -114l72 -86l-8 -9l-73 87c-25 -22 -58 -35 -93 -35c-36 0 -69 13 -95 35l-71 -87l-9 9l72 86c-29 29 -46 69 -46 114z
M140 249c0 -79 62 -145 137 -145c74 0 137 66 137 145s-63 146 -137 146c-75 0 -137 -67 -137 -146z" />
    <glyph glyph-name="yen" unicode="&#xa5;" horiz-adv-x="688" 
d="M183 229h145l-180 349c-16 30 -33 58 -93 63v9h225v-9c-82 -9 -87 -29 -68 -66l168 -343h2l143 323c24 53 17 77 -79 86v9h187v-9c-51 -9 -70 -27 -87 -63l-156 -349h150v-10h-152v-164c0 -41 9 -41 87 -46v-9h-230v9c78 5 87 5 87 46v164h-149v10z" />
    <glyph glyph-name="brokenbar" unicode="&#xa6;" horiz-adv-x="235" 
d="M122 820v-360h-10v360h10zM122 260v-360h-10v360h10z" />
    <glyph glyph-name="section" unicode="&#xa7;" horiz-adv-x="445" 
d="M235 710c-95 0 -135 -95 -135 -175c0 -117 96 -287 169 -372l-4 -3c-57 58 -225 250 -225 375c0 130 90 185 180 185c105 0 185 -60 185 -140c0 -40 -30 -40 -40 -40c-15 0 -35 10 -35 30c0 25 35 25 35 50s-40 90 -130 90zM210 -10c95 0 135 95 135 175
c0 117 -96 287 -169 372l4 3c57 -58 225 -250 225 -375c0 -130 -90 -185 -180 -185c-105 0 -185 60 -185 140c0 40 30 40 40 40c15 0 35 -10 35 -30c0 -25 -35 -25 -35 -50s40 -90 130 -90z" />
    <glyph glyph-name="dieresis" unicode="&#xa8;" horiz-adv-x="464" 
d="M100 595c0 27 19 46 45 46c25 0 46 -19 46 -46s-21 -45 -46 -45c-26 0 -45 18 -45 45zM274 595c0 27 20 46 46 46c25 0 44 -19 44 -46s-19 -45 -44 -45c-26 0 -46 18 -46 45z" />
    <glyph glyph-name="copyright" unicode="&#xa9;" horiz-adv-x="685" 
d="M40 408c0 167 136 302 303 302s302 -135 302 -302s-135 -303 -302 -303s-303 136 -303 303zM47 408c0 -163 133 -296 296 -296s296 133 296 296s-133 296 -296 296s-296 -133 -296 -296zM350 235c70 0 100 52 110 92h5l-7 -67c-20 -13 -58 -30 -108 -30
c-90 0 -162 75 -162 180s72 180 162 180c50 0 88 -18 108 -30l5 -68h-5c-10 45 -48 93 -108 93c-74 0 -132 -68 -132 -175c0 -108 58 -175 132 -175z" />
    <glyph glyph-name="ordfeminine" unicode="&#xaa;" horiz-adv-x="410" 
d="M50 343h310v-10h-310v10zM289 618v-184c0 -14 8 -20 19 -20s24 8 38 17l1 -4c-23 -16 -50 -33 -74 -33c-23 0 -29 17 -29 37v11h-1c-32 -29 -62 -48 -99 -48c-46 0 -69 30 -69 66c0 38 26 82 169 94v63c0 44 -23 76 -70 76c-37 0 -63 -24 -63 -43c0 -17 23 -22 23 -36
c0 -11 -10 -20 -24 -20s-26 8 -26 25c0 29 40 87 116 87c63 0 89 -37 89 -88zM244 448v100c-98 -11 -124 -38 -124 -78c0 -32 15 -53 50 -53c27 0 50 15 74 31z" />
    <glyph glyph-name="guillemotleft" unicode="&#xab;" horiz-adv-x="724" 
d="M374 445l-183 -176l183 -179v-11l-274 181v17l274 180v-12zM624 445l-183 -176l183 -179v-11l-274 181v17l274 180v-12z" />
    <glyph glyph-name="logicalnot" unicode="&#xac;" horiz-adv-x="597" 
d="M497 285v-197h-10v187h-387v10h397z" />
    <glyph glyph-name="uni00AD" unicode="&#xad;" horiz-adv-x="434" 
d="M60 273h314v-10h-314v10z" />
    <glyph glyph-name="registered" unicode="&#xae;" horiz-adv-x="685" 
d="M40 408c0 167 136 302 303 302s302 -135 302 -302s-135 -303 -302 -303s-303 136 -303 303zM47 408c0 -163 133 -296 296 -296s296 133 296 296s-133 296 -296 296s-296 -133 -296 -296zM198 593h140c75 0 115 -40 115 -95c0 -49 -31 -100 -129 -103
c38 -14 53 -30 66 -47l46 -63c20 -27 42 -35 65 -37v-5h-63c-12 11 -30 34 -37 45l-33 47c-16 23 -35 48 -55 60h-40v-122c0 -23 5 -23 48 -25v-5h-123v5c43 2 48 2 48 25v290c0 22 -5 22 -48 25v5zM331 588h-58v-188h43c82 0 107 49 107 93c0 40 -20 95 -92 95z" />
    <glyph glyph-name="macron" unicode="&#xaf;" horiz-adv-x="475" 
d="M100 567h275v-10h-275v10z" />
    <glyph glyph-name="degree" unicode="&#xb0;" horiz-adv-x="249" 
d="M40 575c0 47 37 85 84 85s85 -38 85 -85s-38 -84 -85 -84s-84 37 -84 84zM47 575c0 -44 33 -77 77 -77c45 0 78 33 78 77c0 45 -33 78 -78 78c-44 0 -77 -33 -77 -78z" />
    <glyph glyph-name="plusminus" unicode="&#xb1;" horiz-adv-x="560" 
d="M103 163h171v159h-171v10h171v173h10v-173h173v-10h-173v-159h173v-10h-354v10z" />
    <glyph glyph-name="twosuperior" unicode="&#xb2;" horiz-adv-x="306" 
d="M144 799c-51 0 -73 -32 -73 -52c0 -17 23 -18 23 -33c0 -13 -14 -19 -24 -19s-27 2 -27 25c0 48 49 86 113 86c59 0 113 -35 113 -111c0 -82 -57 -147 -195 -244h202v-41h-246v6c135 114 191 194 191 286c0 47 -23 97 -77 97z" />
    <glyph glyph-name="threesuperior" unicode="&#xb3;" horiz-adv-x="311" 
d="M281 518c0 -77 -74 -114 -133 -114c-64 0 -118 38 -118 86c0 23 17 25 27 25s23 -6 23 -19c0 -15 -21 -23 -21 -39c0 -15 27 -46 78 -47c53 0 95 32 95 100c0 82 -45 104 -112 104v6c43 -3 97 18 97 92c0 41 -20 87 -71 87s-73 -31 -73 -46c0 -17 22 -24 22 -39
c0 -13 -14 -19 -24 -19c-9 0 -26 2 -26 25c0 46 48 86 113 86c69 0 105 -39 105 -93c0 -50 -44 -84 -104 -95v-1c65 -7 122 -38 122 -99z" />
    <glyph glyph-name="acute" unicode="&#xb4;" horiz-adv-x="347" 
d="M230 641l-126 -89l-4 4l83 130c7 11 18 17 28 18c18 1 36 -14 36 -33c0 -10 -4 -21 -17 -30z" />
    <glyph glyph-name="mu" unicode="&#xb5;" horiz-adv-x="605" 
d="M440 105v325c0 45 -10 45 -115 50v10l160 20h10v-440c0 -45 10 -45 95 -50v-10l-135 -20h-10v105h-5c-50 -59 -123 -105 -196 -105c-28 0 -53 7 -74 22c-2 -145 -59 -222 -125 -222c-34 0 -45 17 -45 36c0 17 13 34 35 34c23 0 47 -35 60 -35c14 0 25 9 25 80v525
c0 45 -10 45 -95 50v10l140 20h10v-388c0 -58 30 -97 90 -97c70 0 135 40 175 80z" />
    <glyph glyph-name="paragraph" unicode="&#xb6;" horiz-adv-x="650" 
d="M310 60v240c-160 0 -230 110 -230 210c0 110 80 190 190 190h95v-700h-150v10c85 5 95 5 95 50zM420 0v700h150v-10c-85 -5 -95 -5 -95 -50v-580c0 -45 10 -45 95 -50v-10h-150z" />
    <glyph glyph-name="periodcentered" unicode="&#xb7;" horiz-adv-x="356" 
d="M124 248c0 31 24 55 55 55s55 -24 55 -55s-24 -55 -55 -55s-55 24 -55 55z" />
    <glyph glyph-name="cedilla" unicode="&#xb8;" horiz-adv-x="350" 
d="M139 0h7v-33c46 -9 104 -31 104 -84c0 -56 -74 -90 -141 -99l-3 6c31 7 93 23 93 72c0 33 -18 52 -63 63z" />
    <glyph glyph-name="onesuperior" unicode="&#xb9;" horiz-adv-x="330" 
d="M146 445v340l-114 -35l-2 5l155 51h6v-361c0 -26 19 -26 109 -29v-6h-264v6c91 3 110 3 110 29z" />
    <glyph glyph-name="ordmasculine" unicode="&#xba;" horiz-adv-x="410" 
d="M50 343h310v-10h-310v10zM207 394c-86 0 -141 69 -141 156s55 156 141 156s141 -69 141 -156s-55 -156 -141 -156zM207 700c-58 0 -93 -57 -93 -150s35 -150 93 -150c57 0 93 57 93 150s-36 150 -93 150z" />
    <glyph glyph-name="guillemotright" unicode="&#xbb;" horiz-adv-x="724" 
d="M533 269l-183 176v12l274 -180v-17l-274 -181v11zM283 269l-183 176v12l274 -180v-17l-274 -181v11z" />
    <glyph glyph-name="onequarter" unicode="&#xbc;" horiz-adv-x="850" 
d="M713 0h46v111h61v6h-61v279h-6l-224 -279v-6h184v-111zM146 345v340l-114 -35l-2 5l155 51h6v-361c0 -26 19 -26 109 -29v-6h-264v6c91 3 110 3 110 29zM713 338v-221h-177zM574 710h9l-263 -720h-10z" />
    <glyph glyph-name="onehalf" unicode="&#xbd;" horiz-adv-x="850" 
d="M146 345v340l-114 -35l-2 5l155 51h6v-361c0 -26 19 -26 109 -29v-6h-264v6c91 3 110 3 110 29zM688 389c-51 0 -73 -32 -73 -52c0 -17 23 -18 23 -33c0 -13 -14 -19 -24 -19s-27 2 -27 25c0 48 49 86 113 86c59 0 113 -35 113 -111c0 -82 -57 -147 -195 -244h202v-41
h-246v6c135 114 191 194 191 286c0 47 -23 97 -77 97zM574 710h9l-263 -720h-10z" />
    <glyph glyph-name="threequarters" unicode="&#xbe;" horiz-adv-x="850" 
d="M713 0h46v111h61v6h-61v279h-6l-224 -279v-6h184v-111zM281 418c0 61 -57 92 -122 99v1c60 11 104 45 104 95c0 54 -36 93 -105 93c-65 0 -113 -40 -113 -86c0 -23 17 -25 26 -25c10 0 24 6 24 19c0 15 -22 22 -22 39c0 15 22 46 73 46s71 -46 71 -87
c0 -74 -54 -95 -97 -92v-6c67 0 112 -22 112 -104c0 -68 -42 -100 -95 -100c-51 1 -78 32 -78 47c0 16 21 24 21 39c0 13 -13 19 -23 19s-27 -2 -27 -25c0 -48 54 -86 118 -86c59 0 133 37 133 114zM713 338v-221h-177zM574 710h9l-263 -720h-10z" />
    <glyph glyph-name="questiondown" unicode="&#xbf;" horiz-adv-x="485" 
d="M275 -200c90 0 130 55 130 80c0 35 -35 35 -35 60c0 20 20 30 35 30c10 0 40 0 40 -40c0 -80 -80 -140 -185 -140c-90 0 -180 55 -180 175c0 125 137 207 205 235l-8 145h14l8 -148c-77 -37 -159 -115 -159 -232c0 -80 40 -165 135 -165zM335 455c0 -31 -24 -55 -55 -55
s-55 24 -55 55s24 55 55 55s55 -24 55 -55z" />
    <glyph glyph-name="Agrave" unicode="&#xc0;" horiz-adv-x="690" 
d="M338 740l-136 101c-14 10 -19 22 -19 33c0 21 20 37 40 36c10 -1 23 -8 30 -20l87 -148zM349 705l234 -638c12 -34 22 -52 87 -57v-10h-240v10c90 10 104 18 89 60l-64 180h-282l-63 -183c-15 -45 5 -48 110 -57v-10h-200v10c55 10 66 16 80 57l220 638h29zM311 652
l-135 -392h275l-138 392h-2z" />
    <glyph glyph-name="Aacute" unicode="&#xc1;" horiz-adv-x="690" 
d="M476 841l-136 -101l-2 2l87 148c7 12 20 19 30 20c20 1 40 -15 40 -36c0 -11 -5 -23 -19 -33zM349 705l234 -638c12 -34 22 -52 87 -57v-10h-240v10c90 10 104 18 89 60l-64 180h-282l-63 -183c-15 -45 5 -48 110 -57v-10h-200v10c55 10 66 16 80 57l220 638h29zM311 652
l-135 -392h275l-138 392h-2z" />
    <glyph glyph-name="Acircumflex" unicode="&#xc2;" horiz-adv-x="690" 
d="M335 841l-127 -101h-2l124 180h9l125 -180h-2zM349 705l234 -638c12 -34 22 -52 87 -57v-10h-240v10c90 10 104 18 89 60l-64 180h-282l-63 -183c-15 -45 5 -48 110 -57v-10h-200v10c55 10 66 16 80 57l220 638h29zM311 652l-135 -392h275l-138 392h-2z" />
    <glyph glyph-name="Atilde" unicode="&#xc3;" horiz-adv-x="690" 
d="M171 764l-4 2c19 39 49 107 91 107c36 0 131 -42 175 -42c21 0 43 10 66 45l5 -4c-19 -38 -50 -96 -92 -96s-127 40 -169 40c-28 0 -45 -14 -72 -52zM349 705l234 -638c12 -34 22 -52 87 -57v-10h-240v10c90 10 104 18 89 60l-64 180h-282l-63 -183
c-15 -45 5 -48 110 -57v-10h-200v10c55 10 66 16 80 57l220 638h29zM311 652l-135 -392h275l-138 392h-2z" />
    <glyph glyph-name="Adieresis" unicode="&#xc4;" horiz-adv-x="690" 
d="M185 805c0 30 21 51 49 51s50 -21 50 -51c0 -29 -22 -49 -50 -49s-49 20 -49 49zM378 805c0 30 22 51 50 51s49 -21 49 -51c0 -29 -21 -49 -49 -49s-50 20 -50 49zM349 705l234 -638c12 -34 22 -52 87 -57v-10h-240v10c90 10 104 18 89 60l-64 180h-282l-63 -183
c-15 -45 5 -48 110 -57v-10h-200v10c55 10 66 16 80 57l220 638h29zM311 652l-135 -392h275l-138 392h-2z" />
    <glyph glyph-name="Aring" unicode="&#xc5;" horiz-adv-x="690" 
d="M251 780c0 48 37 85 84 85s85 -37 85 -85c0 -42 -30 -75 -69 -83l232 -630c12 -34 22 -52 87 -57v-10h-240v10c90 10 104 18 89 60l-64 180h-282l-63 -183c-15 -45 5 -48 110 -57v-10h-200v10c55 10 66 16 80 57l217 630c-38 8 -66 42 -66 83zM311 652l-135 -392h275
l-138 392h-2zM258 780c0 -44 33 -77 77 -77c45 0 78 33 78 77c0 45 -33 78 -78 78c-44 0 -77 -33 -77 -78z" />
    <glyph glyph-name="AE" unicode="&#xc6;" horiz-adv-x="923" 
d="M368 10c85 5 95 5 95 50v200h-218l-83 -158c-38 -66 -24 -82 58 -92v-10h-200v10c55 10 96 29 117 67l332 623h394l5 -160h-10c-20 87 -54 150 -135 150h-205v-330h125c68 0 101 30 110 110h10v-230h-10c-9 80 -42 110 -110 110h-125v-340h195c81 0 135 50 155 150h10
l-10 -160h-500v10zM463 667h-2l-210 -397h212v397z" />
    <glyph glyph-name="Ccedilla" unicode="&#xc7;" horiz-adv-x="640" 
d="M380 0c140 0 200 105 220 185h10l-15 -135c-40 -25 -114 -59 -212 -60v-23c46 -9 109 -37 109 -98c0 -62 -88 -99 -155 -108l-3 6c61 17 104 41 104 90c0 33 -20 57 -65 68l3 65c-179 2 -321 151 -321 360c0 210 144 360 325 360c100 0 175 -35 215 -60l10 -135h-10
c-20 90 -95 185 -215 185c-148 0 -265 -135 -265 -350s117 -350 265 -350z" />
    <glyph glyph-name="Egrave" unicode="&#xc8;" 
d="M332 740l-136 101c-14 10 -19 22 -19 33c0 21 20 37 40 36c10 -1 23 -8 30 -20l87 -148zM530 700l5 -160h-10c-20 87 -54 150 -135 150h-205v-330h125c68 0 101 30 110 110h10v-230h-10c-9 80 -42 110 -110 110h-125v-340h195c81 0 135 50 155 150h10l-10 -160h-500v10
c85 5 95 5 95 50v580c0 45 -10 45 -95 50v10h495z" />
    <glyph glyph-name="Eacute" unicode="&#xc9;" 
d="M452 841l-136 -101l-2 2l87 148c7 12 20 19 30 20c20 1 40 -15 40 -36c0 -11 -5 -23 -19 -33zM530 700l5 -160h-10c-20 87 -54 150 -135 150h-205v-330h125c68 0 101 30 110 110h10v-230h-10c-9 80 -42 110 -110 110h-125v-340h195c81 0 135 50 155 150h10l-10 -160h-500
v10c85 5 95 5 95 50v580c0 45 -10 45 -95 50v10h495z" />
    <glyph glyph-name="Ecircumflex" unicode="&#xca;" 
d="M325 841l-127 -101h-2l124 180h9l125 -180h-2zM530 700l5 -160h-10c-20 87 -54 150 -135 150h-205v-330h125c68 0 101 30 110 110h10v-230h-10c-9 80 -42 110 -110 110h-125v-340h195c81 0 135 50 155 150h10l-10 -160h-500v10c85 5 95 5 95 50v580c0 45 -10 45 -95 50
v10h495z" />
    <glyph glyph-name="Edieresis" unicode="&#xcb;" 
d="M169 805c0 30 21 51 49 51s50 -21 50 -51c0 -29 -22 -49 -50 -49s-49 20 -49 49zM362 805c0 30 22 51 50 51s49 -21 49 -51c0 -29 -21 -49 -49 -49s-50 20 -50 49zM530 700l5 -160h-10c-20 87 -54 150 -135 150h-205v-330h125c68 0 101 30 110 110h10v-230h-10
c-9 80 -42 110 -110 110h-125v-340h195c81 0 135 50 155 150h10l-10 -160h-500v10c85 5 95 5 95 50v580c0 45 -10 45 -95 50v10h495z" />
    <glyph glyph-name="Igrave" unicode="&#xcc;" horiz-adv-x="335" 
d="M174 740l-136 101c-14 10 -19 22 -19 33c0 21 20 37 40 36c10 -1 23 -8 30 -20l87 -148zM140 60v580c0 45 -10 45 -95 50v10h245v-10c-85 -5 -95 -5 -95 -50v-580c0 -45 10 -45 95 -50v-10h-245v10c85 5 95 5 95 50z" />
    <glyph glyph-name="Iacute" unicode="&#xcd;" horiz-adv-x="335" 
d="M295 841l-136 -101l-2 2l87 148c7 12 20 19 30 20c20 1 40 -15 40 -36c0 -11 -5 -23 -19 -33zM140 60v580c0 45 -10 45 -95 50v10h245v-10c-85 -5 -95 -5 -95 -50v-580c0 -45 10 -45 95 -50v-10h-245v10c85 5 95 5 95 50z" />
    <glyph glyph-name="Icircumflex" unicode="&#xce;" horiz-adv-x="335" 
d="M167 841l-127 -101h-2l124 180h9l125 -180h-2zM144 60v580c0 45 -10 45 -95 50v10h245v-10c-85 -5 -95 -5 -95 -50v-580c0 -45 10 -45 95 -50v-10h-245v10c85 5 95 5 95 50z" />
    <glyph glyph-name="Idieresis" unicode="&#xcf;" horiz-adv-x="335" 
d="M21 805c0 30 21 51 49 51s50 -21 50 -51c0 -29 -22 -49 -50 -49s-49 20 -49 49zM214 805c0 30 22 51 50 51s49 -21 49 -51c0 -29 -21 -49 -49 -49s-50 20 -50 49zM140 60v580c0 45 -10 45 -95 50v10h245v-10c-85 -5 -95 -5 -95 -50v-580c0 -45 10 -45 95 -50v-10h-245v10
c85 5 95 5 95 50z" />
    <glyph glyph-name="Eth" unicode="&#xd0;" horiz-adv-x="740" 
d="M355 0h-310v10c85 5 95 5 95 50v286h-95v10h95v284c0 45 -10 45 -95 50v10h310c188 0 330 -140 330 -350s-142 -350 -330 -350zM195 10h160c142 0 270 130 270 340s-130 340 -270 340h-160v-334h132v-10h-132v-336z" />
    <glyph glyph-name="Ntilde" unicode="&#xd1;" horiz-adv-x="730" 
d="M230 764l-4 2c19 39 49 107 91 107c36 0 131 -42 175 -42c21 0 43 10 66 45l5 -4c-19 -38 -50 -96 -92 -96s-127 40 -169 40c-28 0 -45 -14 -72 -52zM595 -5h-10l-425 655v-590c0 -45 25 -45 120 -50v-10h-235v10c85 5 105 5 105 50v580c0 45 -20 45 -105 50v10h150
l390 -602v542c0 45 -25 45 -120 50v10h235v-10c-85 -5 -105 -5 -105 -50v-645z" />
    <glyph glyph-name="Ograve" unicode="&#xd2;" horiz-adv-x="770" 
d="M399 740l-136 101c-14 10 -19 22 -19 33c0 21 20 37 40 36c10 -1 23 -8 30 -20l87 -148zM385 -10c-188 0 -330 150 -330 360s142 360 330 360s330 -150 330 -360s-142 -360 -330 -360zM385 700c-142 0 -270 -140 -270 -350s128 -350 270 -350s270 140 270 350
s-128 350 -270 350z" />
    <glyph glyph-name="Oacute" unicode="&#xd3;" horiz-adv-x="770" 
d="M524 841l-136 -101l-2 2l87 148c7 12 20 19 30 20c20 1 40 -15 40 -36c0 -11 -5 -23 -19 -33zM385 -10c188 0 330 150 330 360s-142 360 -330 360s-330 -150 -330 -360s142 -360 330 -360zM385 700c142 0 270 -140 270 -350s-128 -350 -270 -350s-270 140 -270 350
s128 350 270 350z" />
    <glyph glyph-name="Ocircumflex" unicode="&#xd4;" horiz-adv-x="770" 
d="M385 841l-127 -101h-2l124 180h9l125 -180h-2zM385 -10c188 0 330 150 330 360s-142 360 -330 360s-330 -150 -330 -360s142 -360 330 -360zM385 700c142 0 270 -140 270 -350s-128 -350 -270 -350s-270 140 -270 350s128 350 270 350z" />
    <glyph glyph-name="Otilde" unicode="&#xd5;" horiz-adv-x="770" 
d="M230 764l-4 2c19 39 49 107 91 107c36 0 131 -42 175 -42c21 0 43 10 66 45l5 -4c-19 -38 -50 -96 -92 -96s-127 40 -169 40c-28 0 -45 -14 -72 -52zM385 -10c188 0 330 150 330 360s-142 360 -330 360s-330 -150 -330 -360s142 -360 330 -360zM385 700
c142 0 270 -140 270 -350s-128 -350 -270 -350s-270 140 -270 350s128 350 270 350z" />
    <glyph glyph-name="Odieresis" unicode="&#xd6;" horiz-adv-x="770" 
d="M239 805c0 30 21 51 49 51s50 -21 50 -51c0 -29 -22 -49 -50 -49s-49 20 -49 49zM432 805c0 30 22 51 50 51s49 -21 49 -51c0 -29 -21 -49 -49 -49s-50 20 -50 49zM385 -10c188 0 330 150 330 360s-142 360 -330 360s-330 -150 -330 -360s142 -360 330 -360zM385 700
c142 0 270 -140 270 -350s-128 -350 -270 -350s-270 140 -270 350s128 350 270 350z" />
    <glyph glyph-name="multiply" unicode="&#xd7;" horiz-adv-x="550" 
d="M441 481l-158 -159l157 -157l-8 -7l-157 156l-157 -156l-7 8l157 156l-158 158l7 8l158 -158l158 158z" />
    <glyph glyph-name="Oslash" unicode="&#xd8;" horiz-adv-x="770" 
d="M385 -10c-47 0 -92 9 -132 26l-23 -56h-11l25 61c-114 54 -189 176 -189 329c0 210 142 360 330 360c48 0 93 -10 134 -28l24 58h10l-26 -62c113 -55 188 -176 188 -328c0 -210 -142 -360 -330 -360zM385 700c-142 0 -270 -140 -270 -350c0 -141 57 -251 138 -307
l257 618c-38 25 -81 39 -125 39zM385 0c142 0 270 140 270 350c0 140 -57 249 -137 306l-256 -619c37 -24 79 -37 123 -37z" />
    <glyph glyph-name="Ugrave" unicode="&#xd9;" horiz-adv-x="755" 
d="M436 740l-136 101c-14 10 -19 22 -19 33c0 21 20 37 40 36c10 -1 23 -8 30 -20l87 -148zM130 270v370c0 45 -10 45 -95 50v10h245v-10c-85 -5 -95 -5 -95 -50v-375c0 -160 71 -255 215 -255c130 0 220 89 220 255v375c0 45 -15 45 -120 50v10h225v-10
c-85 -5 -95 -5 -95 -50v-370c0 -180 -97 -280 -260 -280c-170 0 -240 107 -240 280z" />
    <glyph glyph-name="Uacute" unicode="&#xda;" horiz-adv-x="755" 
d="M515 841l-136 -101l-2 2l87 148c7 12 20 19 30 20c20 1 40 -15 40 -36c0 -11 -5 -23 -19 -33zM130 270v370c0 45 -10 45 -95 50v10h245v-10c-85 -5 -95 -5 -95 -50v-375c0 -160 71 -255 215 -255c130 0 220 89 220 255v375c0 45 -15 45 -120 50v10h225v-10
c-85 -5 -95 -5 -95 -50v-370c0 -180 -97 -280 -260 -280c-170 0 -240 107 -240 280z" />
    <glyph glyph-name="Ucircumflex" unicode="&#xdb;" horiz-adv-x="755" 
d="M390 841l-127 -101h-2l124 180h9l125 -180h-2zM130 270v370c0 45 -10 45 -95 50v10h245v-10c-85 -5 -95 -5 -95 -50v-375c0 -160 71 -255 215 -255c130 0 220 89 220 255v375c0 45 -15 45 -120 50v10h225v-10c-85 -5 -95 -5 -95 -50v-370c0 -180 -97 -280 -260 -280
c-170 0 -240 107 -240 280z" />
    <glyph glyph-name="Udieresis" unicode="&#xdc;" horiz-adv-x="755" 
d="M249 805c0 30 21 51 49 51s50 -21 50 -51c0 -29 -22 -49 -50 -49s-49 20 -49 49zM442 805c0 30 22 51 50 51s49 -21 49 -51c0 -29 -21 -49 -49 -49s-50 20 -50 49zM130 270v370c0 45 -10 45 -95 50v10h245v-10c-85 -5 -95 -5 -95 -50v-375c0 -160 71 -255 215 -255
c130 0 220 89 220 255v375c0 45 -15 45 -120 50v10h225v-10c-85 -5 -95 -5 -95 -50v-370c0 -180 -97 -280 -260 -280c-170 0 -240 107 -240 280z" />
    <glyph glyph-name="Yacute" unicode="&#xdd;" horiz-adv-x="640" 
d="M457 841l-136 -101l-2 2l87 148c7 12 20 19 30 20c20 1 40 -15 40 -36c0 -11 -5 -23 -19 -33zM310 60v176l-199 387c-17 32 -36 62 -101 67v10h240v-10c-90 -10 -95 -30 -75 -70l182 -363h2l156 341c26 58 -3 82 -85 92v10h200v-10c-55 -10 -75 -28 -93 -67l-172 -376
v-187c0 -45 10 -45 95 -50v-10h-245v10c85 5 95 5 95 50z" />
    <glyph glyph-name="Thorn" unicode="&#xde;" horiz-adv-x="610" 
d="M140 60v580c0 45 -10 45 -95 50v10h245v-10c-85 -5 -95 -5 -95 -50v-80h139c150 0 231 -80 231 -190c0 -100 -65 -205 -275 -205h-95v-105c0 -45 10 -45 95 -50v-10h-245v10c85 5 95 5 95 50zM320 550h-125v-375h95c165 0 215 97 215 185c0 80 -40 190 -185 190z" />
    <glyph glyph-name="germandbls" unicode="&#xdf;" horiz-adv-x="625" 
d="M465 620c0 -82 -119 -134 -119 -187c0 -90 234 -151 234 -296c0 -95 -75 -147 -165 -147c-45 0 -80 10 -127 35l-13 135h10c24 -120 74 -160 131 -160c69 0 109 60 109 118c0 147 -210 167 -210 270c0 67 100 127 100 232c0 60 -36 100 -85 100c-86 0 -145 -73 -145 -210
v-510h-150v10c85 5 95 5 95 50v430h-95v5l95 5v10c0 102 85 220 205 220c75 0 130 -45 130 -110z" />
    <glyph glyph-name="agrave" unicode="&#xe0;" horiz-adv-x="505" 
d="M390 365v-310c0 -25 14 -35 34 -35c19 0 43 15 69 31l2 -6c-38 -27 -83 -55 -119 -55c-35 0 -41 28 -41 60v20h-2c-56 -48 -107 -80 -168 -80c-78 0 -115 50 -115 109c0 63 42 133 285 156v105c0 78 -40 130 -120 130c-66 0 -110 -42 -110 -74c0 -25 35 -32 35 -55
c0 -18 -15 -31 -36 -31s-39 12 -39 39c0 46 63 141 187 141c100 0 138 -60 138 -145zM335 80v165c-185 -21 -230 -70 -230 -135c0 -51 25 -90 90 -90c51 0 94 30 140 60zM252 552l-126 89c-13 9 -17 20 -17 30c0 19 18 34 36 33c10 -1 21 -7 28 -18l83 -130z" />
    <glyph glyph-name="aacute" unicode="&#xe1;" horiz-adv-x="505" 
d="M390 365v-310c0 -25 14 -35 34 -35c19 0 43 15 69 31l2 -6c-38 -27 -83 -55 -119 -55c-35 0 -41 28 -41 60v20h-2c-56 -48 -107 -80 -168 -80c-78 0 -115 50 -115 109c0 63 42 133 285 156v105c0 78 -40 130 -120 130c-66 0 -110 -42 -110 -74c0 -25 35 -32 35 -55
c0 -18 -15 -31 -36 -31s-39 12 -39 39c0 46 63 141 187 141c100 0 138 -60 138 -145zM335 80v165c-185 -21 -230 -70 -230 -135c0 -51 25 -90 90 -90c51 0 94 30 140 60zM345 641l-126 -89l-4 4l83 130c7 11 18 17 28 18c18 1 36 -14 36 -33c0 -10 -4 -21 -17 -30z" />
    <glyph glyph-name="acircumflex" unicode="&#xe2;" horiz-adv-x="505" 
d="M390 365v-310c0 -25 14 -35 34 -35c19 0 43 15 69 31l2 -6c-38 -27 -83 -55 -119 -55c-35 0 -41 28 -41 60v20h-2c-56 -48 -107 -80 -168 -80c-78 0 -115 50 -115 109c0 63 42 133 285 156v105c0 78 -40 130 -120 130c-66 0 -110 -42 -110 -74c0 -25 35 -32 35 -55
c0 -18 -15 -31 -36 -31s-39 12 -39 39c0 46 63 141 187 141c100 0 138 -60 138 -145zM335 80v165c-185 -21 -230 -70 -230 -135c0 -51 25 -90 90 -90c51 0 94 30 140 60zM239 640l-115 -90h-2l113 162h9l113 -162h-2z" />
    <glyph glyph-name="atilde" unicode="&#xe3;" horiz-adv-x="505" 
d="M390 365v-310c0 -25 14 -35 34 -35c19 0 43 15 69 31l2 -6c-38 -27 -83 -55 -119 -55c-35 0 -41 28 -41 60v20h-2c-56 -48 -107 -80 -168 -80c-78 0 -115 50 -115 109c0 63 42 133 285 156v105c0 78 -40 130 -120 130c-66 0 -110 -42 -110 -74c0 -25 35 -32 35 -55
c0 -18 -15 -31 -36 -31s-39 12 -39 39c0 46 63 141 187 141c100 0 138 -60 138 -145zM335 80v165c-185 -21 -230 -70 -230 -135c0 -51 25 -90 90 -90c51 0 94 30 140 60zM88 544l-4 2c19 39 44 95 86 95c36 0 129 -36 164 -36c11 0 29 0 52 35l5 -4c-19 -38 -40 -86 -82 -86
s-126 36 -168 36c-13 0 -26 -4 -53 -42z" />
    <glyph glyph-name="adieresis" unicode="&#xe4;" horiz-adv-x="505" 
d="M390 365v-310c0 -25 14 -35 34 -35c19 0 43 15 69 31l2 -6c-38 -27 -83 -55 -119 -55c-35 0 -41 28 -41 60v20h-2c-56 -48 -107 -80 -168 -80c-78 0 -115 50 -115 109c0 63 42 133 285 156v105c0 78 -40 130 -120 130c-66 0 -110 -42 -110 -74c0 -25 35 -32 35 -55
c0 -18 -15 -31 -36 -31s-39 12 -39 39c0 46 63 141 187 141c100 0 138 -60 138 -145zM335 80v165c-185 -21 -230 -70 -230 -135c0 -51 25 -90 90 -90c51 0 94 30 140 60zM106 595c0 27 19 46 45 46c25 0 46 -19 46 -46s-21 -45 -46 -45c-26 0 -45 18 -45 45zM280 595
c0 27 20 46 46 46c25 0 44 -19 44 -46s-19 -45 -44 -45c-26 0 -46 18 -46 45z" />
    <glyph glyph-name="aring" unicode="&#xe5;" horiz-adv-x="505" 
d="M390 365v-310c0 -25 14 -35 34 -35c19 0 43 15 69 31l2 -6c-38 -27 -83 -55 -119 -55c-35 0 -41 28 -41 60v20h-2c-56 -48 -107 -80 -168 -80c-78 0 -115 50 -115 109c0 63 42 133 285 156v105c0 78 -40 130 -120 130c-66 0 -110 -42 -110 -74c0 -25 35 -32 35 -55
c0 -18 -15 -31 -36 -31s-39 12 -39 39c0 46 63 141 187 141c100 0 138 -60 138 -145zM335 80v165c-185 -21 -230 -70 -230 -135c0 -51 25 -90 90 -90c51 0 94 30 140 60zM159 626c0 44 34 77 76 77c43 0 77 -33 77 -77c0 -42 -34 -76 -77 -76c-42 0 -76 34 -76 76zM166 626
c0 -39 30 -69 69 -69c41 0 70 30 70 69c0 41 -29 70 -70 70c-39 0 -69 -29 -69 -70z" />
    <glyph glyph-name="ae" unicode="&#xe6;" horiz-adv-x="785" 
d="M575 510c77 0 165 -37 165 -152c0 -18 -4 -44 -10 -60h-339c-1 -9 -1 -19 -1 -28c0 -153 83 -250 200 -250c66 0 106 25 136 47l4 -7c-21 -19 -79 -70 -165 -70c-90 0 -154 42 -192 105c-99 -78 -150 -105 -208 -105c-78 0 -115 50 -115 110c0 62 43 132 285 155v95
c0 90 -39 140 -120 140c-66 0 -110 -41 -110 -74c0 -24 35 -31 35 -56c0 -17 -15 -30 -37 -30c-20 0 -38 12 -38 40c0 43 60 140 190 140c75 0 116 -38 130 -97c45 63 115 97 190 97zM570 500c-90 0 -164 -85 -178 -192h277c5 20 6 58 6 74c-2 71 -28 118 -105 118zM195 20
c49 0 105 32 173 85c-22 40 -33 89 -33 140c-184 -21 -230 -71 -230 -135c0 -51 26 -90 90 -90z" />
    <glyph glyph-name="ccedilla" unicode="&#xe7;" horiz-adv-x="480" 
d="M290 500c-109 0 -190 -105 -190 -230c0 -153 83 -250 200 -250c66 0 108 26 136 47l4 -7c-21 -19 -77 -68 -161 -70v-23c46 -9 104 -31 104 -84c0 -56 -74 -90 -141 -99l-3 6c31 7 93 23 93 72c0 33 -18 52 -63 63l2 65c-147 2 -226 121 -226 255c0 170 115 265 240 265
c104 0 160 -61 160 -125c0 -35 -22 -45 -38 -45c-14 0 -32 5 -32 26c0 26 35 33 35 54c0 47 -51 80 -120 80z" />
    <glyph glyph-name="egrave" unicode="&#xe8;" horiz-adv-x="495" 
d="M285 510c77 0 165 -37 165 -152c0 -18 -4 -44 -10 -60h-339c-1 -9 -1 -19 -1 -28c0 -153 83 -250 200 -250c66 0 106 25 136 47l4 -7c-21 -19 -79 -70 -165 -70c-150 0 -230 120 -230 255c0 170 115 265 240 265zM280 500c-86 0 -163 -81 -178 -192h277c5 20 6 58 6 74
c-2 78 -35 118 -105 118zM304 552l-126 89c-13 9 -17 20 -17 30c0 19 18 34 36 33c10 -1 21 -7 28 -18l83 -130z" />
    <glyph glyph-name="eacute" unicode="&#xe9;" horiz-adv-x="495" 
d="M285 510c77 0 165 -37 165 -152c0 -18 -4 -44 -10 -60h-339c-1 -9 -1 -19 -1 -28c0 -153 83 -250 200 -250c66 0 106 25 136 47l4 -7c-21 -19 -79 -70 -165 -70c-150 0 -230 120 -230 255c0 170 115 265 240 265zM280 500c-86 0 -163 -81 -178 -192h277c5 20 6 58 6 74
c-2 78 -35 118 -105 118zM375 641l-126 -89l-4 4l83 130c7 11 18 17 28 18c18 1 36 -14 36 -33c0 -10 -4 -21 -17 -30z" />
    <glyph glyph-name="ecircumflex" unicode="&#xea;" horiz-adv-x="495" 
d="M285 510c77 0 165 -37 165 -152c0 -18 -4 -44 -10 -60h-339c-1 -9 -1 -19 -1 -28c0 -153 83 -250 200 -250c66 0 106 25 136 47l4 -7c-21 -19 -79 -70 -165 -70c-150 0 -230 120 -230 255c0 170 115 265 240 265zM280 500c-86 0 -163 -81 -178 -192h277c5 20 6 58 6 74
c-2 78 -35 118 -105 118zM273 640l-115 -90h-2l113 162h9l113 -162h-2z" />
    <glyph glyph-name="edieresis" unicode="&#xeb;" horiz-adv-x="495" 
d="M285 510c77 0 165 -37 165 -152c0 -18 -4 -44 -10 -60h-339c-1 -9 -1 -19 -1 -28c0 -153 83 -250 200 -250c66 0 106 25 136 47l4 -7c-21 -19 -79 -70 -165 -70c-150 0 -230 120 -230 255c0 170 115 265 240 265zM280 500c-86 0 -163 -81 -178 -192h277c5 20 6 58 6 74
c-2 78 -35 118 -105 118zM134 595c0 27 19 46 45 46c25 0 46 -19 46 -46s-21 -45 -46 -45c-26 0 -45 18 -45 45zM308 595c0 27 20 46 46 46c25 0 44 -19 44 -46s-19 -45 -44 -45c-26 0 -46 18 -46 45z" />
    <glyph glyph-name="igrave" unicode="&#xec;" horiz-adv-x="295" 
d="M185 510v-450c0 -45 10 -45 95 -50v-10h-245v10c85 5 95 5 95 50v370c0 45 -10 45 -95 50v10l140 20h10zM159 552l-126 89c-13 9 -17 20 -17 30c0 19 18 34 36 33c10 -1 21 -7 28 -18l83 -130z" />
    <glyph glyph-name="iacute" unicode="&#xed;" horiz-adv-x="295" 
d="M185 510v-450c0 -45 10 -45 95 -50v-10h-245v10c85 5 95 5 95 50v370c0 45 -10 45 -95 50v10l140 20h10zM277 641l-126 -89l-4 4l83 130c7 11 18 17 28 18c18 1 36 -14 36 -33c0 -10 -4 -21 -17 -30z" />
    <glyph glyph-name="icircumflex" unicode="&#xee;" horiz-adv-x="295" 
d="M154 640l-115 -90h-2l113 162h9l113 -162h-2zM185 510v-450c0 -45 10 -45 95 -50v-10h-245v10c85 5 95 5 95 50v370c0 45 -10 45 -95 50v10l140 20h10z" />
    <glyph glyph-name="idieresis" unicode="&#xef;" horiz-adv-x="295" 
d="M185 510v-450c0 -45 10 -45 95 -50v-10h-245v10c85 5 95 5 95 50v370c0 45 -10 45 -95 50v10l140 20h10zM19 595c0 27 19 46 45 46c25 0 46 -19 46 -46s-21 -45 -46 -45c-26 0 -45 18 -45 45zM193 595c0 27 20 46 46 46c25 0 44 -19 44 -46s-19 -45 -44 -45
c-26 0 -46 18 -46 45z" />
    <glyph glyph-name="eth" unicode="&#xf0;" horiz-adv-x="525" 
d="M300 639l110 45v-12l-100 -41c105 -91 170 -227 170 -366c0 -155 -69 -275 -220 -275c-120 0 -215 86 -215 220c0 163 126 235 240 235c38 0 79 -6 112 -18c-19 54 -54 129 -116 192l-116 -47v12l107 44c-41 40 -94 74 -161 93l4 9c69 -16 132 -47 185 -91zM110 200
c0 -114 64 -200 150 -200s155 100 155 254c0 36 -7 118 -15 161c-30 7 -82 12 -114 12c-102 0 -176 -87 -176 -227z" />
    <glyph glyph-name="ntilde" unicode="&#xf1;" horiz-adv-x="615" 
d="M35 0v10c85 5 95 5 95 50v370c0 45 -10 45 -95 50v10l140 20h10l-5 -105h5c50 59 123 105 196 105c67 0 124 -40 124 -150v-300c0 -45 10 -45 95 -50v-10h-225v10c65 5 75 5 75 50v303c0 58 -25 112 -110 112c-63 0 -116 -42 -155 -80v-335c0 -45 10 -45 95 -50v-10h-245
zM162 544l-4 2c19 39 44 95 86 95c36 0 129 -36 164 -36c11 0 29 0 52 35l5 -4c-19 -38 -40 -86 -82 -86s-126 36 -168 36c-13 0 -26 -4 -53 -42z" />
    <glyph glyph-name="ograve" unicode="&#xf2;" horiz-adv-x="550" 
d="M275 -10c-140 0 -230 115 -230 260s90 260 230 260s230 -115 230 -260s-90 -260 -230 -260zM275 500c-105 0 -170 -100 -170 -250s65 -250 170 -250s170 100 170 250s-65 250 -170 250zM276 552l-126 89c-13 9 -17 20 -17 30c0 19 18 34 36 33c10 -1 21 -7 28 -18
l83 -130z" />
    <glyph glyph-name="oacute" unicode="&#xf3;" horiz-adv-x="550" 
d="M275 -10c140 0 230 115 230 260s-90 260 -230 260s-230 -115 -230 -260s90 -260 230 -260zM275 500c105 0 170 -100 170 -250s-65 -250 -170 -250s-170 100 -170 250s65 250 170 250zM381 641l-126 -89l-4 4l83 130c7 11 18 17 28 18c18 1 36 -14 36 -33
c0 -10 -4 -21 -17 -30z" />
    <glyph glyph-name="ocircumflex" unicode="&#xf4;" horiz-adv-x="550" 
d="M275 -10c140 0 230 115 230 260s-90 260 -230 260s-230 -115 -230 -260s90 -260 230 -260zM275 500c105 0 170 -100 170 -250s-65 -250 -170 -250s-170 100 -170 250s65 250 170 250zM275 640l-115 -90h-2l113 162h9l113 -162h-2z" />
    <glyph glyph-name="otilde" unicode="&#xf5;" horiz-adv-x="550" 
d="M275 -10c140 0 230 115 230 260s-90 260 -230 260s-230 -115 -230 -260s90 -260 230 -260zM275 500c105 0 170 -100 170 -250s-65 -250 -170 -250s-170 100 -170 250s65 250 170 250zM126 544l-4 2c19 39 44 95 86 95c36 0 129 -36 164 -36c11 0 29 0 52 35l5 -4
c-19 -38 -40 -86 -82 -86s-126 36 -168 36c-13 0 -26 -4 -53 -42z" />
    <glyph glyph-name="odieresis" unicode="&#xf6;" horiz-adv-x="550" 
d="M275 -10c140 0 230 115 230 260s-90 260 -230 260s-230 -115 -230 -260s90 -260 230 -260zM275 500c105 0 170 -100 170 -250s-65 -250 -170 -250s-170 100 -170 250s65 250 170 250zM143 595c0 27 19 46 45 46c25 0 46 -19 46 -46s-21 -45 -46 -45c-26 0 -45 18 -45 45z
M317 595c0 27 20 46 46 46c25 0 44 -19 44 -46s-19 -45 -44 -45c-26 0 -46 18 -46 45z" />
    <glyph glyph-name="divide" unicode="&#xf7;" horiz-adv-x="560" 
d="M242 177c0 26 19 44 43 44s43 -18 43 -44c0 -24 -19 -41 -43 -41s-43 17 -43 41zM242 469c0 26 19 44 43 44s43 -18 43 -44c0 -24 -19 -41 -43 -41s-43 17 -43 41zM103 330h354v-10h-354v10z" />
    <glyph glyph-name="oslash" unicode="&#xf8;" horiz-adv-x="550" 
d="M275 -10c-32 0 -61 6 -87 16l-18 -46h-11l19 50c-83 40 -133 132 -133 240c0 145 90 260 230 260c33 0 62 -7 89 -18l19 48h10l-20 -52c82 -40 132 -131 132 -238c0 -145 -90 -260 -230 -260zM275 500c-105 0 -170 -100 -170 -250c0 -102 29 -180 81 -220l172 444
c-24 17 -52 26 -83 26zM275 0c105 0 170 100 170 250c0 100 -29 178 -80 218l-171 -445c23 -15 50 -23 81 -23z" />
    <glyph glyph-name="ugrave" unicode="&#xf9;" horiz-adv-x="605" 
d="M440 105v325c0 45 -10 45 -115 50v10l160 20h10v-440c0 -45 10 -45 95 -50v-10l-135 -20h-10v105h-5c-50 -59 -123 -105 -196 -105c-67 0 -124 40 -124 150v290c0 45 -10 45 -95 50v10l140 20h10v-388c0 -58 30 -97 90 -97c70 0 135 40 175 80zM273 552l-126 89
c-13 9 -17 20 -17 30c0 19 18 34 36 33c10 -1 21 -7 28 -18l83 -130z" />
    <glyph glyph-name="uacute" unicode="&#xfa;" horiz-adv-x="605" 
d="M440 105v325c0 45 -10 45 -115 50v10l160 20h10v-440c0 -45 10 -45 95 -50v-10l-135 -20h-10v105h-5c-50 -59 -123 -105 -196 -105c-67 0 -124 40 -124 150v290c0 45 -10 45 -95 50v10l140 20h10v-388c0 -58 30 -97 90 -97c70 0 135 40 175 80zM403 641l-126 -89l-4 4
l83 130c7 11 18 17 28 18c18 1 36 -14 36 -33c0 -10 -4 -21 -17 -30z" />
    <glyph glyph-name="ucircumflex" unicode="&#xfb;" horiz-adv-x="605" 
d="M440 105v325c0 45 -10 45 -115 50v10l160 20h10v-440c0 -45 10 -45 95 -50v-10l-135 -20h-10v105h-5c-50 -59 -123 -105 -196 -105c-67 0 -124 40 -124 150v290c0 45 -10 45 -95 50v10l140 20h10v-388c0 -58 30 -97 90 -97c70 0 135 40 175 80zM292 640l-115 -90h-2
l113 162h9l113 -162h-2z" />
    <glyph glyph-name="udieresis" unicode="&#xfc;" horiz-adv-x="605" 
d="M440 105v325c0 45 -10 45 -115 50v10l160 20h10v-440c0 -45 10 -45 95 -50v-10l-135 -20h-10v105h-5c-50 -59 -123 -105 -196 -105c-67 0 -124 40 -124 150v290c0 45 -10 45 -95 50v10l140 20h10v-388c0 -58 30 -97 90 -97c70 0 135 40 175 80zM159 595c0 27 19 46 45 46
c25 0 46 -19 46 -46s-21 -45 -46 -45c-26 0 -45 18 -45 45zM333 595c0 27 20 46 46 46c25 0 44 -19 44 -46s-19 -45 -44 -45c-26 0 -46 18 -46 45z" />
    <glyph glyph-name="yacute" unicode="&#xfd;" horiz-adv-x="540" 
d="M466 433l-166 -428c-71 -183 -187 -215 -245 -215c-33 0 -45 16 -45 36s13 34 36 34c20 0 34 -5 58 -5c79 0 126 23 171 118l-196 450c-14 33 -34 65 -74 67v10h225v-10c-90 -10 -97 -29 -80 -70l154 -370h2l143 370c20 51 7 60 -94 70v10h180v-10
c-40 -5 -55 -20 -69 -57zM411 641l-126 -89l-4 4l83 130c7 11 18 17 28 18c18 1 36 -14 36 -33c0 -10 -4 -21 -17 -30z" />
    <glyph glyph-name="thorn" unicode="&#xfe;" horiz-adv-x="575" 
d="M155 440h5c39 38 104 70 164 70c130 0 206 -110 206 -260c0 -165 -110 -260 -230 -260c-37 0 -105 10 -140 40v-170c0 -45 10 -45 95 -50v-10h-245v10c85 5 95 5 95 50v790c0 45 -10 45 -95 50v10l140 20h10zM299 490c-58 0 -106 -31 -139 -60v-280
c0 -115 74 -150 130 -150c122 0 180 115 180 250c0 150 -79 240 -171 240z" />
    <glyph glyph-name="ydieresis" unicode="&#xff;" horiz-adv-x="540" 
d="M466 433l-166 -428c-71 -183 -187 -215 -245 -215c-33 0 -45 16 -45 36s13 34 36 34c20 0 34 -5 58 -5c79 0 126 23 171 118l-196 450c-14 33 -34 65 -74 67v10h225v-10c-90 -10 -97 -29 -80 -70l154 -370h2l143 370c20 51 7 60 -94 70v10h180v-10
c-40 -5 -55 -20 -69 -57zM174 595c0 27 19 46 45 46c25 0 46 -19 46 -46s-21 -45 -46 -45c-26 0 -45 18 -45 45zM348 595c0 27 20 46 46 46c25 0 44 -19 44 -46s-19 -45 -44 -45c-26 0 -46 18 -46 45z" />
    <glyph glyph-name="breve" unicode="&#x2d8;" horiz-adv-x="421" 
d="M210 550c-81 0 -110 70 -110 136h5c10 -46 35 -79 105 -79s96 33 106 79h5c0 -66 -30 -136 -111 -136z" />
    <glyph glyph-name="cyrbreve" horiz-adv-x="421" 
d="M210 550c-81 0 -110 70 -110 136h5c10 -46 35 -79 105 -79s96 33 106 79h5c0 -66 -30 -136 -111 -136z" />
    <glyph glyph-name="caron" unicode="&#x2c7;" horiz-adv-x="435" 
d="M102 712l115 -90l116 90h2l-113 -162h-9l-113 162h2z" />
    <glyph glyph-name="commaaccent" horiz-adv-x="320" 
d="M155 -30c50 0 65 -41 65 -80c0 -48 -28 -91 -91 -125l-4 7c41 23 60 44 60 62c0 6 1 26 -30 26c-34 0 -55 27 -55 55c0 33 27 55 55 55z" />
    <glyph glyph-name="undercommaaccent" horiz-adv-x="320" 
d="M155 -30c50 0 65 -41 65 -80c0 -48 -28 -91 -91 -125l-4 7c41 23 60 44 60 62c0 6 1 26 -30 26c-34 0 -55 27 -55 55c0 33 27 55 55 55z" />
    <glyph glyph-name="dieresisacute" unicode="&#xf6d7;" horiz-adv-x="522" 
d="M100 595c0 27 19 46 45 46c25 0 46 -19 46 -46s-21 -45 -46 -45c-26 0 -45 18 -45 45zM331 595c0 27 20 46 46 46s45 -19 45 -46s-19 -45 -45 -45s-46 18 -46 45zM330 644l-126 -88l-3 3l83 130c7 11 18 17 27 18c19 1 37 -14 37 -33c0 -10 -5 -21 -18 -30z" />
    <glyph glyph-name="dieresisgrave" horiz-adv-x="522" 
d="M422 595c0 -27 -19 -45 -45 -45c-25 0 -46 18 -46 45s21 46 46 46c26 0 45 -19 45 -46zM191 595c0 -27 -20 -45 -46 -45s-45 18 -45 45s19 46 45 46s46 -19 46 -46zM318 556l-126 88c-13 9 -18 20 -18 30c0 19 18 34 37 33c9 -1 20 -7 27 -18l83 -130z" />
    <glyph glyph-name="dotaccent" unicode="&#x2d9;" horiz-adv-x="299" 
d="M100 599c0 30 21 51 49 51s50 -21 50 -51c0 -29 -22 -49 -50 -49s-49 20 -49 49z" />
    <glyph glyph-name="hungarumlaut" unicode="&#x2dd;" horiz-adv-x="466" 
d="M230 641l-127 -88l-3 3l83 130c7 11 18 17 28 18c18 1 36 -14 36 -33c0 -10 -4 -21 -17 -30zM348 641l-127 -88l-3 3l83 130c7 11 19 17 28 18c19 1 37 -14 37 -33c0 -10 -5 -21 -18 -30z" />
    <glyph glyph-name="dblgrave" horiz-adv-x="466" 
d="M363 553l-127 88c-13 9 -17 20 -17 30c0 19 18 34 36 33c10 -1 21 -7 28 -18l83 -130zM245 553l-127 88c-13 9 -18 20 -18 30c0 19 18 34 37 33c9 -1 21 -7 28 -18l83 -130z" />
    <glyph glyph-name="cyrflex" horiz-adv-x="435" 
d="M217 640l-115 -90h-2l113 162h9l113 -162h-2z" />
    <glyph glyph-name="uni02C9" unicode="&#x2c9;" horiz-adv-x="475" 
d="M100 567h275v-10h-275v10z" />
    <glyph glyph-name="ogonek" unicode="&#x2db;" horiz-adv-x="338" 
d="M238 -160v-4c-16 -21 -42 -36 -69 -36c-39 0 -69 32 -69 76c0 37 22 74 90 124h8c-33 -31 -51 -73 -51 -107c0 -52 37 -76 91 -53z" />
    <glyph glyph-name="ring" unicode="&#x2da;" horiz-adv-x="353" 
d="M100 626c0 44 34 77 76 77c43 0 77 -33 77 -77c0 -42 -34 -76 -77 -76c-42 0 -76 34 -76 76zM107 626c0 -39 30 -69 69 -69c41 0 70 30 70 69c0 41 -29 70 -70 70c-39 0 -69 -29 -69 -70z" />
    <glyph glyph-name="Acute" horiz-adv-x="362" 
d="M243 841l-136 -101l-2 2l87 148c7 12 20 19 30 20c20 1 40 -15 40 -36c0 -11 -5 -23 -19 -33z" />
    <glyph glyph-name="Breve" horiz-adv-x="444" 
d="M222 750c-95 0 -122 85 -122 151h5c10 -46 47 -89 117 -89s107 43 117 89h5c0 -66 -29 -151 -122 -151z" />
    <glyph glyph-name="cyrBreve" horiz-adv-x="444" 
d="M222 750c-95 0 -122 85 -122 151h5c10 -46 47 -89 117 -89s107 43 117 89h5c0 -66 -29 -151 -122 -151z" />
    <glyph glyph-name="Caron" horiz-adv-x="458" 
d="M102 920l127 -101l127 101h2l-125 -180h-9l-124 180h2z" />
    <glyph glyph-name="Cedilla" horiz-adv-x="350" 
d="M139 0h7v-33c46 -9 109 -37 109 -98c0 -62 -88 -99 -155 -108l-3 6c61 17 104 41 104 90c0 33 -20 57 -65 68z" />
    <glyph glyph-name="Circumflex" horiz-adv-x="458" 
d="M229 841l-127 -101h-2l124 180h9l125 -180h-2z" />
    <glyph glyph-name="Dieresis" horiz-adv-x="492" 
d="M100 805c0 30 21 51 49 51s50 -21 50 -51c0 -29 -22 -49 -50 -49s-49 20 -49 49zM293 805c0 30 22 51 50 51s49 -21 49 -51c0 -29 -21 -49 -49 -49s-50 20 -50 49z" />
    <glyph glyph-name="DieresisAcute" horiz-adv-x="552" 
d="M100 805c0 30 21 51 49 51s50 -21 50 -51c0 -29 -22 -49 -50 -49s-49 20 -49 49zM353 805c0 30 22 51 50 51s49 -21 49 -51c0 -29 -21 -49 -49 -49s-50 20 -50 49zM353 861l-136 -101l-3 3l88 147c7 12 20 19 30 20c20 1 40 -15 40 -36c0 -11 -5 -23 -19 -33z" />
    <glyph glyph-name="DieresisGrave" horiz-adv-x="552" 
d="M452 805c0 -29 -21 -49 -49 -49s-50 20 -50 49c0 30 22 51 50 51s49 -21 49 -51zM199 805c0 -29 -22 -49 -50 -49s-49 20 -49 49c0 30 21 51 49 51s50 -21 50 -51zM335 760l-136 101c-14 10 -19 22 -19 33c0 21 20 37 40 36c10 -1 23 -8 30 -20l88 -147z" />
    <glyph glyph-name="Dotaccent" horiz-adv-x="299" 
d="M100 805c0 30 21 51 49 51s50 -21 50 -51c0 -29 -22 -49 -50 -49s-49 20 -49 49z" />
    <glyph glyph-name="Hungarumlaut" horiz-adv-x="492" 
d="M243 841l-136 -101l-3 3l88 147c7 12 20 19 30 20c20 1 40 -15 40 -36c0 -11 -5 -23 -19 -33zM373 841l-136 -101l-3 3l88 147c7 12 20 19 30 20c20 1 40 -15 40 -36c0 -11 -5 -23 -19 -33z" />
    <glyph glyph-name="Grave" horiz-adv-x="362" 
d="M255 740l-136 101c-14 10 -19 22 -19 33c0 21 20 37 40 36c10 -1 23 -8 30 -20l87 -148z" />
    <glyph glyph-name="dblGrave" horiz-adv-x="492" 
d="M385 740l-136 101c-14 10 -19 22 -19 33c0 21 20 37 40 36c10 -1 23 -8 30 -20l88 -147zM255 740l-136 101c-14 10 -19 22 -19 33c0 21 20 37 40 36c10 -1 23 -8 30 -20l88 -147z" />
    <glyph glyph-name="cyrFlex" horiz-adv-x="458" 
d="M229 841l-127 -101h-2l124 180h9l125 -180h-2z" />
    <glyph glyph-name="Macron" horiz-adv-x="504" 
d="M100 782h304v-10h-304v10z" />
    <glyph glyph-name="Ogonek" horiz-adv-x="338" 
d="M252 -178v-4c-18 -23 -47 -40 -77 -40c-41 0 -75 36 -75 84c0 42 34 93 98 138h9c-37 -34 -57 -91 -57 -129c0 -63 51 -85 102 -49z" />
    <glyph glyph-name="Ring" horiz-adv-x="369" 
d="M100 827c0 48 37 85 84 85s85 -37 85 -85c0 -47 -38 -84 -85 -84s-84 37 -84 84zM107 827c0 -44 33 -77 77 -77c45 0 78 33 78 77c0 45 -33 78 -78 78c-44 0 -77 -33 -77 -78z" />
    <glyph glyph-name="Tilde" horiz-adv-x="538" 
d="M104 764l-4 2c19 39 49 107 91 107c36 0 131 -42 175 -42c21 0 43 10 66 45l5 -4c-19 -38 -50 -96 -92 -96s-127 40 -169 40c-28 0 -45 -14 -72 -52z" />
    <glyph glyph-name="middot" horiz-adv-x="299" 
d="M100 345c0 30 21 51 49 51s50 -21 50 -51c0 -29 -22 -49 -50 -49s-49 20 -49 49z" />
    <glyph glyph-name="Abreve" unicode="&#x102;" horiz-adv-x="690" 
d="M349 705l234 -638c12 -34 22 -52 87 -57v-10h-240v10c90 10 104 18 89 60l-64 180h-282l-63 -183c-15 -45 5 -48 110 -57v-10h-200v10c55 10 66 16 80 57l220 638h29zM311 652l-135 -392h275l-138 392h-2zM335 750c-95 0 -122 85 -122 151h5c10 -46 47 -89 117 -89
s107 43 117 89h5c0 -66 -29 -151 -122 -151z" />
    <glyph glyph-name="Amacron" unicode="&#x100;" horiz-adv-x="690" 
d="M349 705l234 -638c12 -34 22 -52 87 -57v-10h-240v10c90 10 104 18 89 60l-64 180h-282l-63 -183c-15 -45 5 -48 110 -57v-10h-200v10c55 10 66 16 80 57l220 638h29zM311 652l-135 -392h275l-138 392h-2zM183 782h304v-10h-304v10z" />
    <glyph glyph-name="Aogonek" unicode="&#x104;" horiz-adv-x="690" 
d="M632 -178v-4c-18 -23 -47 -40 -77 -40c-41 0 -75 36 -75 84c0 42 34 93 98 138h-148v10c90 10 104 18 89 60l-64 180h-282l-63 -183c-15 -45 5 -48 110 -57v-10h-200v10c55 10 66 16 80 57l220 638h29l234 -638c12 -34 22 -52 87 -57v-10h-83c-37 -34 -57 -91 -57 -129
c0 -63 51 -85 102 -49zM311 652l-135 -392h275l-138 392h-2z" />
    <glyph glyph-name="AEacute" unicode="&#x1fc;" horiz-adv-x="923" 
d="M368 10c85 5 95 5 95 50v200h-218l-83 -158c-38 -66 -24 -82 58 -92v-10h-200v10c55 10 96 29 117 67l332 623h394l5 -160h-10c-20 87 -54 150 -135 150h-205v-330h125c68 0 101 30 110 110h10v-230h-10c-9 80 -42 110 -110 110h-125v-340h195c81 0 135 50 155 150h10
l-10 -160h-500v10zM463 667h-2l-210 -397h212v397zM660 841l-136 -101l-2 2l87 148c7 12 20 19 30 20c20 1 40 -15 40 -36c0 -11 -5 -23 -19 -33z" />
    <glyph glyph-name="Cacute" unicode="&#x106;" horiz-adv-x="640" 
d="M380 0c140 0 200 105 220 185h10l-15 -135c-40 -25 -115 -60 -215 -60c-181 0 -325 150 -325 360s144 360 325 360c100 0 175 -35 215 -60l10 -135h-10c-20 90 -95 185 -215 185c-148 0 -265 -135 -265 -350s117 -350 265 -350zM477 841l-136 -101l-2 2l87 148
c7 12 20 19 30 20c20 1 40 -15 40 -36c0 -11 -5 -23 -19 -33z" />
    <glyph glyph-name="Ccaron" unicode="&#x10c;" horiz-adv-x="640" 
d="M380 0c140 0 200 105 220 185h10l-15 -135c-40 -25 -115 -60 -215 -60c-181 0 -325 150 -325 360s144 360 325 360c100 0 175 -35 215 -60l10 -135h-10c-20 90 -95 185 -215 185c-148 0 -265 -135 -265 -350s117 -350 265 -350zM249 920l127 -101l127 101h2l-125 -180h-9
l-124 180h2z" />
    <glyph glyph-name="Ccircumflex" unicode="&#x108;" horiz-adv-x="640" 
d="M380 0c140 0 200 105 220 185h10l-15 -135c-40 -25 -115 -60 -215 -60c-181 0 -325 150 -325 360s144 360 325 360c100 0 175 -35 215 -60l10 -135h-10c-20 90 -95 185 -215 185c-148 0 -265 -135 -265 -350s117 -350 265 -350zM387 841l-127 -101h-2l124 180h9l125 -180
h-2z" />
    <glyph glyph-name="Cdotaccent" unicode="&#x10a;" horiz-adv-x="640" 
d="M380 0c140 0 200 105 220 185h10l-15 -135c-40 -25 -115 -60 -215 -60c-181 0 -325 150 -325 360s144 360 325 360c100 0 175 -35 215 -60l10 -135h-10c-20 90 -95 185 -215 185c-148 0 -265 -135 -265 -350s117 -350 265 -350zM321 805c0 30 21 51 49 51s50 -21 50 -51
c0 -29 -22 -49 -50 -49s-49 20 -49 49z" />
    <glyph glyph-name="Dcaron" unicode="&#x10e;" horiz-adv-x="706" 
d="M195 10h160c142 0 270 130 270 340s-130 340 -270 340h-160v-680zM355 0h-310v10c85 5 95 5 95 50v580c0 45 -10 45 -95 50v10h310c188 0 330 -140 330 -350s-142 -350 -330 -350zM196 920l127 -101l127 101h2l-125 -180h-9l-124 180h2z" />
    <glyph glyph-name="Dcroat" unicode="&#x110;" horiz-adv-x="740" 
d="M355 0h-310v10c85 5 95 5 95 50v286h-95v10h95v284c0 45 -10 45 -95 50v10h310c188 0 330 -140 330 -350s-142 -350 -330 -350zM195 10h160c142 0 270 130 270 340s-130 340 -270 340h-160v-334h132v-10h-132v-336z" />
    <glyph glyph-name="Ebreve" unicode="&#x114;" 
d="M540 700l5 -160h-10c-20 87 -54 150 -135 150h-205v-330h125c68 0 101 30 110 110h10v-230h-10c-9 80 -42 110 -110 110h-125v-340h195c81 0 135 50 155 150h10l-10 -160h-500v10c85 5 95 5 95 50v580c0 45 -10 45 -95 50v10h495zM325 750c-95 0 -122 85 -122 151h5
c10 -46 47 -89 117 -89s107 43 117 89h5c0 -66 -29 -151 -122 -151z" />
    <glyph glyph-name="Ecaron" unicode="&#x11a;" 
d="M540 700l5 -160h-10c-20 87 -54 150 -135 150h-205v-330h125c68 0 101 30 110 110h10v-230h-10c-9 80 -42 110 -110 110h-125v-340h195c81 0 135 50 155 150h10l-10 -160h-500v10c85 5 95 5 95 50v580c0 45 -10 45 -95 50v10h495zM192 920l127 -101l127 101h2l-125 -180
h-9l-124 180h2z" />
    <glyph glyph-name="Edotaccent" unicode="&#x116;" 
d="M540 700l5 -160h-10c-20 87 -54 150 -135 150h-205v-330h125c68 0 101 30 110 110h10v-230h-10c-9 80 -42 110 -110 110h-125v-340h195c81 0 135 50 155 150h10l-10 -160h-500v10c85 5 95 5 95 50v580c0 45 -10 45 -95 50v10h495zM271 805c0 30 21 51 49 51
s50 -21 50 -51c0 -29 -22 -49 -50 -49s-49 20 -49 49z" />
    <glyph glyph-name="Emacron" unicode="&#x112;" 
d="M540 700l5 -160h-10c-20 87 -54 150 -135 150h-205v-330h125c68 0 101 30 110 110h10v-230h-10c-9 80 -42 110 -110 110h-125v-340h195c81 0 135 50 155 150h10l-10 -160h-500v10c85 5 95 5 95 50v580c0 45 -10 45 -95 50v10h495zM175 782h304v-10h-304v10z" />
    <glyph glyph-name="Eogonek" unicode="&#x118;" 
d="M590 -178v-4c-18 -23 -47 -40 -77 -40c-41 0 -75 36 -75 84c0 42 34 93 98 138h-491v10c85 5 95 5 95 50v580c0 45 -10 45 -95 50v10h495l5 -160h-10c-20 87 -54 150 -135 150h-205v-330h125c68 0 101 30 110 110h10v-230h-10c-9 80 -42 110 -110 110h-125v-340h195
c81 0 135 50 155 150h10l-10 -160c-37 -34 -57 -91 -57 -129c0 -63 51 -85 102 -49z" />
    <glyph glyph-name="Gbreve" unicode="&#x11e;" horiz-adv-x="710" 
d="M380 0c87 0 146 52 180 111v139c0 45 -10 45 -95 50v10h225v-10c-65 -5 -75 -5 -75 -50v-255h-10l-14 86c-43 -42 -114 -91 -211 -91c-181 0 -325 150 -325 360s144 360 325 360c100 0 175 -35 215 -60l10 -135h-10c-20 90 -95 185 -215 185c-148 0 -265 -135 -265 -350
s117 -350 265 -350zM375 750c-95 0 -122 85 -122 151h5c10 -46 47 -89 117 -89s107 43 117 89h5c0 -66 -29 -151 -122 -151z" />
    <glyph glyph-name="Gcircumflex" unicode="&#x11c;" horiz-adv-x="710" 
d="M380 0c87 0 146 52 180 111v139c0 45 -10 45 -95 50v10h225v-10c-65 -5 -75 -5 -75 -50v-255h-10l-14 86c-43 -42 -114 -91 -211 -91c-181 0 -325 150 -325 360s144 360 325 360c100 0 175 -35 215 -60l10 -135h-10c-20 90 -95 185 -215 185c-148 0 -265 -135 -265 -350
s117 -350 265 -350zM382 841l-127 -101h-2l124 180h9l125 -180h-2z" />
    <glyph glyph-name="Gcommaaccent" unicode="&#x122;" horiz-adv-x="710" 
d="M371 -30c50 0 65 -41 65 -80c0 -48 -28 -91 -91 -125l-4 7c41 23 60 44 60 62c0 6 1 26 -30 26c-34 0 -55 27 -55 55c0 33 27 55 55 55zM380 0c87 0 146 52 180 111v139c0 45 -10 45 -95 50v10h225v-10c-65 -5 -75 -5 -75 -50v-255h-10l-14 86c-43 -42 -114 -91 -211 -91
c-181 0 -325 150 -325 360s144 360 325 360c100 0 175 -35 215 -60l10 -135h-10c-20 90 -95 185 -215 185c-148 0 -265 -135 -265 -350s117 -350 265 -350z" />
    <glyph glyph-name="Gdotaccent" unicode="&#x120;" horiz-adv-x="710" 
d="M380 0c87 0 146 52 180 111v139c0 45 -10 45 -95 50v10h225v-10c-65 -5 -75 -5 -75 -50v-255h-10l-14 86c-43 -42 -114 -91 -211 -91c-181 0 -325 150 -325 360s144 360 325 360c100 0 175 -35 215 -60l10 -135h-10c-20 90 -95 185 -215 185c-148 0 -265 -135 -265 -350
s117 -350 265 -350zM329 805c0 30 21 51 49 51s50 -21 50 -51c0 -29 -22 -49 -50 -49s-49 20 -49 49z" />
    <glyph glyph-name="Hbar" unicode="&#x126;" horiz-adv-x="775" 
d="M140 60v447h-95v10h95v123c0 45 -10 45 -95 50v10h245v-10c-85 -5 -95 -5 -95 -50v-123h385v123c0 45 -10 45 -95 50v10h245v-10c-85 -5 -95 -5 -95 -50v-123h95v-10h-95v-447c0 -45 10 -45 95 -50v-10h-245v10c85 5 95 5 95 50v295h-385v-295c0 -45 10 -45 95 -50v-10
h-245v10c85 5 95 5 95 50zM195 507v-142h385v142h-385z" />
    <glyph glyph-name="Hcircumflex" unicode="&#x124;" horiz-adv-x="775" 
d="M580 60v295h-385v-295c0 -45 10 -45 95 -50v-10h-245v10c85 5 95 5 95 50v580c0 45 -10 45 -95 50v10h245v-10c-85 -5 -95 -5 -95 -50v-275h385v275c0 45 -10 45 -95 50v10h245v-10c-85 -5 -95 -5 -95 -50v-580c0 -45 10 -45 95 -50v-10h-245v10c85 5 95 5 95 50z
M387 841l-127 -101h-2l124 180h9l125 -180h-2z" />
    <glyph glyph-name="Ibreve" unicode="&#x12c;" horiz-adv-x="335" 
d="M140 60v580c0 45 -10 45 -95 50v10h245v-10c-85 -5 -95 -5 -95 -50v-580c0 -45 10 -45 95 -50v-10h-245v10c85 5 95 5 95 50zM167 750c-95 0 -122 85 -122 151h5c10 -46 47 -89 117 -89s107 43 117 89h5c0 -66 -29 -151 -122 -151z" />
    <glyph glyph-name="Idotaccent" unicode="&#x130;" horiz-adv-x="335" 
d="M140 60v580c0 45 -10 45 -95 50v10h245v-10c-85 -5 -95 -5 -95 -50v-580c0 -45 10 -45 95 -50v-10h-245v10c85 5 95 5 95 50zM117 805c0 30 21 51 49 51s50 -21 50 -51c0 -29 -22 -49 -50 -49s-49 20 -49 49z" />
    <glyph glyph-name="Imacron" unicode="&#x12a;" horiz-adv-x="335" 
d="M140 60v580c0 45 -10 45 -95 50v10h245v-10c-85 -5 -95 -5 -95 -50v-580c0 -45 10 -45 95 -50v-10h-245v10c85 5 95 5 95 50zM15 782h304v-10h-304v10z" />
    <glyph glyph-name="Iogonek" unicode="&#x12e;" horiz-adv-x="335" 
d="M242 -178v-4c-18 -23 -47 -40 -77 -40c-41 0 -75 36 -75 84c0 42 34 93 98 138h-143v10c85 5 95 5 95 50v580c0 45 -10 45 -95 50v10h245v-10c-85 -5 -95 -5 -95 -50v-580c0 -45 10 -45 95 -50v-10h-93c-37 -34 -57 -91 -57 -129c0 -63 51 -85 102 -49z" />
    <glyph glyph-name="Itilde" unicode="&#x128;" horiz-adv-x="335" 
d="M140 60v580c0 45 -10 45 -95 50v10h245v-10c-85 -5 -95 -5 -95 -50v-580c0 -45 10 -45 95 -50v-10h-245v10c85 5 95 5 95 50zM2 764l-4 2c19 39 49 107 91 107c36 0 131 -42 175 -42c21 0 43 10 66 45l5 -4c-19 -38 -50 -96 -92 -96s-127 40 -169 40
c-28 0 -45 -14 -72 -52z" />
    <glyph glyph-name="IJ" unicode="&#x132;" horiz-adv-x="685" 
d="M140 60v580c0 45 -10 45 -95 50v10h245v-10c-85 -5 -95 -5 -95 -50v-580c0 -45 10 -45 95 -50v-10h-245v10c85 5 95 5 95 50zM500 175v465c0 45 -10 45 -95 50v10h245v-10c-85 -5 -95 -5 -95 -50v-440c0 -135 -95 -210 -172 -210c-38 0 -53 15 -53 35s15 30 40 30
c22 0 35 -35 70 -35c46 0 60 60 60 155z" />
    <glyph glyph-name="Jcircumflex" unicode="&#x134;" horiz-adv-x="365" 
d="M180 175v465c0 45 -10 45 -95 50v10h245v-10c-85 -5 -95 -5 -95 -50v-440c0 -135 -95 -210 -172 -210c-38 0 -53 15 -53 35s15 30 40 30c22 0 35 -35 70 -35c46 0 60 60 60 155zM202 841l-127 -101h-2l124 180h9l125 -180h-2z" />
    <glyph glyph-name="Kcommaaccent" unicode="&#x136;" horiz-adv-x="710" 
d="M370 -32c50 0 65 -41 65 -80c0 -48 -28 -91 -91 -125l-4 7c41 23 60 44 60 62c0 6 1 26 -30 26c-34 0 -55 27 -55 55c0 33 27 55 55 55zM140 60v580c0 45 -10 45 -95 50v10h245v-10c-85 -5 -95 -5 -95 -50v-275c105 0 125 14 158 55l151 188c32 40 1 77 -89 82v10h230
v-10c-60 -5 -82 -25 -110 -60l-220 -270c29 -21 78 -78 105 -110l112 -133c36 -43 85 -100 158 -107v-10h-125c-52 49 -120 137 -131 149l-126 149c-35 42 -68 56 -113 57v-295c0 -45 10 -45 95 -50v-10h-245v10c85 5 95 5 95 50z" />
    <glyph glyph-name="Lacute" unicode="&#x139;" horiz-adv-x="565" 
d="M140 60v580c0 45 -10 45 -95 50v10h245v-10c-85 -5 -95 -5 -95 -50v-630h185c81 0 135 50 155 150h10l-10 -160h-490v10c85 5 95 5 95 50zM310 841l-136 -101l-2 2l87 148c7 12 20 19 30 20c20 1 40 -15 40 -36c0 -11 -5 -23 -19 -33z" />
    <glyph glyph-name="Lcaron" unicode="&#x13d;" horiz-adv-x="565" 
d="M398 700c50 0 65 -41 65 -80c0 -48 -28 -91 -91 -125l-4 7c41 23 60 44 60 62c0 6 1 26 -30 26c-34 0 -55 27 -55 55c0 33 27 55 55 55zM140 60v580c0 45 -10 45 -95 50v10h245v-10c-85 -5 -95 -5 -95 -50v-630h185c81 0 135 50 155 150h10l-10 -160h-490v10
c85 5 95 5 95 50z" />
    <glyph glyph-name="Lcommaaccent" unicode="&#x13b;" horiz-adv-x="565" 
d="M303 -32c50 0 65 -41 65 -80c0 -48 -28 -91 -91 -125l-4 7c41 23 60 44 60 62c0 6 1 26 -30 26c-34 0 -55 27 -55 55c0 33 27 55 55 55zM140 60v580c0 45 -10 45 -95 50v10h245v-10c-85 -5 -95 -5 -95 -50v-630h185c81 0 135 50 155 150h10l-10 -160h-490v10
c85 5 95 5 95 50z" />
    <glyph glyph-name="Ldot" unicode="&#x13f;" horiz-adv-x="565" 
d="M140 60v580c0 45 -10 45 -95 50v10h245v-10c-85 -5 -95 -5 -95 -50v-630h185c81 0 135 50 155 150h10l-10 -160h-490v10c85 5 95 5 95 50zM276 366c0 30 21 51 49 51s50 -21 50 -51c0 -29 -22 -49 -50 -49s-49 20 -49 49z" />
    <glyph glyph-name="Lslash" unicode="&#x141;" horiz-adv-x="565" 
d="M140 60v279l-95 -39v12l95 39v289c0 45 -10 45 -95 50v10h245v-10c-85 -5 -95 -5 -95 -50v-267l95 39v-12l-95 -39v-351h185c81 0 135 50 155 150h10l-10 -160h-490v10c85 5 95 5 95 50z" />
    <glyph glyph-name="Nacute" unicode="&#x143;" horiz-adv-x="725" 
d="M590 -5h-10l-425 655v-590c0 -45 25 -45 120 -50v-10h-235v10c85 5 105 5 105 50v580c0 45 -20 45 -105 50v10h150l390 -602v542c0 45 -25 45 -120 50v10h235v-10c-85 -5 -105 -5 -105 -50v-645zM466 841l-136 -101l-2 2l87 148c7 12 20 19 30 20c20 1 40 -15 40 -36
c0 -11 -5 -23 -19 -33z" />
    <glyph glyph-name="Ncaron" unicode="&#x147;" horiz-adv-x="725" 
d="M590 -5h-10l-425 655v-590c0 -45 25 -45 120 -50v-10h-235v10c85 5 105 5 105 50v580c0 45 -20 45 -105 50v10h150l390 -602v542c0 45 -25 45 -120 50v10h235v-10c-85 -5 -105 -5 -105 -50v-645zM224 920l127 -101l127 101h2l-125 -180h-9l-124 180h2z" />
    <glyph glyph-name="Ncommaaccent" unicode="&#x145;" horiz-adv-x="725" 
d="M366 -30c50 0 65 -41 65 -80c0 -48 -28 -91 -91 -125l-4 7c41 23 60 44 60 62c0 6 1 26 -30 26c-34 0 -55 27 -55 55c0 33 27 55 55 55zM590 -5h-10l-425 655v-590c0 -45 25 -45 120 -50v-10h-235v10c85 5 105 5 105 50v580c0 45 -20 45 -105 50v10h150l390 -602v542
c0 45 -25 45 -120 50v10h235v-10c-85 -5 -105 -5 -105 -50v-645z" />
    <glyph glyph-name="Obreve" unicode="&#x14e;" horiz-adv-x="770" 
d="M385 -10c188 0 330 150 330 360s-142 360 -330 360s-330 -150 -330 -360s142 -360 330 -360zM385 700c142 0 270 -140 270 -350s-128 -350 -270 -350s-270 140 -270 350s128 350 270 350zM385 750c-95 0 -122 85 -122 151h5c10 -46 47 -89 117 -89s107 43 117 89h5
c0 -66 -29 -151 -122 -151z" />
    <glyph glyph-name="Ohungarumlaut" unicode="&#x150;" horiz-adv-x="770" 
d="M385 -10c188 0 330 150 330 360s-142 360 -330 360s-330 -150 -330 -360s142 -360 330 -360zM385 700c142 0 270 -140 270 -350s-128 -350 -270 -350s-270 140 -270 350s128 350 270 350zM446 841l-136 -101l-3 3l88 147c7 12 20 19 30 20c20 1 40 -15 40 -36
c0 -11 -5 -23 -19 -33zM576 841l-136 -101l-3 3l88 147c7 12 20 19 30 20c20 1 40 -15 40 -36c0 -11 -5 -23 -19 -33z" />
    <glyph glyph-name="Omacron" unicode="&#x14c;" horiz-adv-x="770" 
d="M385 -10c188 0 330 150 330 360s-142 360 -330 360s-330 -150 -330 -360s142 -360 330 -360zM385 700c142 0 270 -140 270 -350s-128 -350 -270 -350s-270 140 -270 350s128 350 270 350zM233 782h304v-10h-304v10z" />
    <glyph glyph-name="Oslashacute" unicode="&#x1fe;" horiz-adv-x="770" 
d="M528 841l-136 -101l-2 2l87 148c7 12 20 19 30 20c20 1 40 -15 40 -36c0 -11 -5 -23 -19 -33zM385 -10c188 0 330 150 330 360c0 152 -75 273 -188 328l26 62h-10l-24 -58c-41 18 -86 28 -134 28c-188 0 -330 -150 -330 -360c0 -153 75 -275 189 -329l-25 -61h11l23 56
c40 -17 85 -26 132 -26zM385 700c44 0 87 -14 125 -39l-257 -618c-81 56 -138 166 -138 307c0 210 128 350 270 350zM385 0c-44 0 -86 13 -123 37l256 619c80 -57 137 -166 137 -306c0 -210 -128 -350 -270 -350z" />
    <glyph glyph-name="Racute" unicode="&#x154;" horiz-adv-x="670" 
d="M45 700h279c150 0 231 -80 231 -190c0 -98 -62 -201 -261 -205c78 -29 108 -61 134 -95l92 -125c40 -54 85 -70 130 -75v-10h-125c-25 23 -60 68 -75 90l-66 95c-31 45 -69 95 -109 120h-80v-245c0 -45 10 -45 95 -50v-10h-245v10c85 5 95 5 95 50v580
c0 45 -10 45 -95 50v10zM310 690h-115v-375h85c165 0 215 97 215 185c0 80 -40 190 -185 190zM424 841l-136 -101l-2 2l87 148c7 12 20 19 30 20c20 1 40 -15 40 -36c0 -11 -5 -23 -19 -33z" />
    <glyph glyph-name="Rcaron" unicode="&#x158;" horiz-adv-x="670" 
d="M45 700h279c150 0 231 -80 231 -190c0 -98 -62 -201 -261 -205c78 -29 108 -61 134 -95l92 -125c40 -54 85 -70 130 -75v-10h-125c-25 23 -60 68 -75 90l-66 95c-31 45 -69 95 -109 120h-80v-245c0 -45 10 -45 95 -50v-10h-245v10c85 5 95 5 95 50v580
c0 45 -10 45 -95 50v10zM310 690h-115v-375h85c165 0 215 97 215 185c0 80 -40 190 -185 190zM180 920l127 -101l127 101h2l-125 -180h-9l-124 180h2z" />
    <glyph glyph-name="Rcommaaccent" unicode="&#x156;" horiz-adv-x="670" 
d="M368 -31c50 0 65 -41 65 -80c0 -48 -28 -91 -91 -125l-4 7c41 23 60 44 60 62c0 6 1 26 -30 26c-34 0 -55 27 -55 55c0 33 27 55 55 55zM45 700h279c150 0 231 -80 231 -190c0 -98 -62 -201 -261 -205c78 -29 108 -61 134 -95l92 -125c40 -54 85 -70 130 -75v-10h-125
c-25 23 -60 68 -75 90l-66 95c-31 45 -69 95 -109 120h-80v-245c0 -45 10 -45 95 -50v-10h-245v10c85 5 95 5 95 50v580c0 45 -10 45 -95 50v10zM310 690h-115v-375h85c165 0 215 97 215 185c0 80 -40 190 -185 190z" />
    <glyph glyph-name="Sacute" unicode="&#x15a;" horiz-adv-x="535" 
d="M465 505h-10c-25 120 -99 195 -185 195c-90 0 -145 -50 -145 -125c0 -205 355 -165 355 -395c0 -111 -81 -190 -215 -190c-72 0 -145 20 -200 50l-10 170h10c25 -170 130 -210 205 -210c100 0 155 65 155 160c0 210 -355 161 -355 380c0 89 68 170 205 170
c61 0 125 -15 180 -45zM383 841l-136 -101l-2 2l87 148c7 12 20 19 30 20c20 1 40 -15 40 -36c0 -11 -5 -23 -19 -33z" />
    <glyph glyph-name="Scedilla" unicode="&#x15e;" horiz-adv-x="535" 
d="M465 505h-10c-25 120 -99 195 -185 195c-90 0 -145 -50 -145 -125c0 -205 355 -165 355 -395c0 -110 -80 -188 -211 -190v-23c46 -9 109 -37 109 -98c0 -62 -88 -99 -155 -108l-3 6c61 17 104 41 104 90c0 33 -20 57 -65 68l3 65c-71 1 -143 20 -197 50l-10 170h10
c25 -170 130 -210 205 -210c100 0 155 65 155 160c0 210 -355 161 -355 380c0 89 68 170 205 170c61 0 125 -15 180 -45z" />
    <glyph glyph-name="Scircumflex" unicode="&#x15c;" horiz-adv-x="535" 
d="M465 505h-10c-25 120 -99 195 -185 195c-90 0 -145 -50 -145 -125c0 -205 355 -165 355 -395c0 -111 -81 -190 -215 -190c-72 0 -145 20 -200 50l-10 170h10c25 -170 130 -210 205 -210c100 0 155 65 155 160c0 210 -355 161 -355 380c0 89 68 170 205 170
c61 0 125 -15 180 -45zM275 841l-127 -101h-2l124 180h9l125 -180h-2z" />
    <glyph glyph-name="Scommaaccent" unicode="&#x218;" horiz-adv-x="535" 
d="M269 -30c50 0 65 -41 65 -80c0 -48 -28 -91 -91 -125l-4 7c41 23 60 44 60 62c0 6 1 26 -30 26c-34 0 -55 27 -55 55c0 33 27 55 55 55zM465 505h-10c-25 120 -99 195 -185 195c-90 0 -145 -50 -145 -125c0 -205 355 -165 355 -395c0 -111 -81 -190 -215 -190
c-72 0 -145 20 -200 50l-10 170h10c25 -170 130 -210 205 -210c100 0 155 65 155 160c0 210 -355 161 -355 380c0 89 68 170 205 170c61 0 125 -15 180 -45z" />
    <glyph glyph-name="Tbar" unicode="&#x166;" horiz-adv-x="575" 
d="M30 540l5 160h505l5 -160h-10c-20 87 -54 150 -135 150h-85v-334h100v-10h-100v-286c0 -45 10 -45 95 -50v-10h-245v10c85 5 95 5 95 50v286h-100v10h100v334h-85c-81 0 -115 -63 -135 -150h-10z" />
    <glyph glyph-name="Tcaron" unicode="&#x164;" horiz-adv-x="575" 
d="M30 540l5 160h505l5 -160h-10c-20 87 -54 150 -135 150h-85v-630c0 -45 10 -45 95 -50v-10h-245v10c85 5 95 5 95 50v630h-85c-81 0 -115 -63 -135 -150h-10zM160 920l127 -101l127 101h2l-125 -180h-9l-124 180h2z" />
    <glyph glyph-name="Tcommaaccent" unicode="&#x162;" horiz-adv-x="575" 
d="M286 -30c50 0 65 -41 65 -80c0 -48 -28 -91 -91 -125l-4 7c41 23 60 44 60 62c0 6 1 26 -30 26c-34 0 -55 27 -55 55c0 33 27 55 55 55zM30 540l5 160h505l5 -160h-10c-20 87 -54 150 -135 150h-85v-630c0 -45 10 -45 95 -50v-10h-245v10c85 5 95 5 95 50v630h-85
c-81 0 -115 -63 -135 -150h-10z" />
    <glyph glyph-name="uni021A" unicode="&#x21a;" horiz-adv-x="575" 
d="M286 -30c50 0 65 -41 65 -80c0 -48 -28 -91 -91 -125l-4 7c41 23 60 44 60 62c0 6 1 26 -30 26c-34 0 -55 27 -55 55c0 33 27 55 55 55zM30 540l5 160h505l5 -160h-10c-20 87 -54 150 -135 150h-85v-630c0 -45 10 -45 95 -50v-10h-245v10c85 5 95 5 95 50v630h-85
c-81 0 -115 -63 -135 -150h-10z" />
    <glyph glyph-name="Ubreve" unicode="&#x16c;" horiz-adv-x="755" 
d="M130 270v370c0 45 -10 45 -95 50v10h245v-10c-85 -5 -95 -5 -95 -50v-375c0 -160 71 -255 215 -255c130 0 220 89 220 255v375c0 45 -15 45 -120 50v10h225v-10c-85 -5 -95 -5 -95 -50v-370c0 -180 -97 -280 -260 -280c-170 0 -240 107 -240 280zM394 750
c-95 0 -122 85 -122 151h5c10 -46 47 -89 117 -89s107 43 117 89h5c0 -66 -29 -151 -122 -151z" />
    <glyph glyph-name="Uhungarumlaut" unicode="&#x170;" horiz-adv-x="755" 
d="M130 270v370c0 45 -10 45 -95 50v10h245v-10c-85 -5 -95 -5 -95 -50v-375c0 -160 71 -255 215 -255c130 0 220 89 220 255v375c0 45 -15 45 -120 50v10h225v-10c-85 -5 -95 -5 -95 -50v-370c0 -180 -97 -280 -260 -280c-170 0 -240 107 -240 280zM441 841l-136 -101l-3 3
l88 147c7 12 20 19 30 20c20 1 40 -15 40 -36c0 -11 -5 -23 -19 -33zM571 841l-136 -101l-3 3l88 147c7 12 20 19 30 20c20 1 40 -15 40 -36c0 -11 -5 -23 -19 -33z" />
    <glyph glyph-name="Umacron" unicode="&#x16a;" horiz-adv-x="755" 
d="M130 270v370c0 45 -10 45 -95 50v10h245v-10c-85 -5 -95 -5 -95 -50v-375c0 -160 71 -255 215 -255c130 0 220 89 220 255v375c0 45 -15 45 -120 50v10h225v-10c-85 -5 -95 -5 -95 -50v-370c0 -180 -97 -280 -260 -280c-170 0 -240 107 -240 280zM245 782h304v-10h-304
v10z" />
    <glyph glyph-name="Uogonek" unicode="&#x172;" horiz-adv-x="755" 
d="M434 -178v-4c-18 -23 -47 -40 -77 -40c-41 0 -75 36 -75 84c0 39 29 86 84 128c-167 2 -236 108 -236 280v370c0 45 -10 45 -95 50v10h245v-10c-85 -5 -95 -5 -95 -50v-375c0 -160 71 -255 215 -255c130 0 220 89 220 255v375c0 45 -15 45 -120 50v10h225v-10
c-85 -5 -95 -5 -95 -50v-370c0 -177 -94 -276 -251 -280c-31 -34 -47 -84 -47 -119c0 -63 51 -85 102 -49z" />
    <glyph glyph-name="Uring" unicode="&#x16e;" horiz-adv-x="755" 
d="M130 270v370c0 45 -10 45 -95 50v10h245v-10c-85 -5 -95 -5 -95 -50v-375c0 -160 71 -255 215 -255c130 0 220 89 220 255v375c0 45 -15 45 -120 50v10h225v-10c-85 -5 -95 -5 -95 -50v-370c0 -180 -97 -280 -260 -280c-170 0 -240 107 -240 280zM307 827
c0 48 37 85 84 85s85 -37 85 -85c0 -47 -38 -84 -85 -84s-84 37 -84 84zM314 827c0 -44 33 -77 77 -77c45 0 78 33 78 77c0 45 -33 78 -78 78c-44 0 -77 -33 -77 -78z" />
    <glyph glyph-name="Utilde" unicode="&#x168;" horiz-adv-x="755" 
d="M130 270v370c0 45 -10 45 -95 50v10h245v-10c-85 -5 -95 -5 -95 -50v-375c0 -160 71 -255 215 -255c130 0 220 89 220 255v375c0 45 -15 45 -120 50v10h225v-10c-85 -5 -95 -5 -95 -50v-370c0 -180 -97 -280 -260 -280c-170 0 -240 107 -240 280zM229 764l-4 2
c19 39 49 107 91 107c36 0 131 -42 175 -42c21 0 43 10 66 45l5 -4c-19 -38 -50 -96 -92 -96s-127 40 -169 40c-28 0 -45 -14 -72 -52z" />
    <glyph glyph-name="Wacute" unicode="&#x1e82;" horiz-adv-x="1000" 
d="M681 -5l-159 525l-182 -525h-29l-210 628c-11 34 -26 62 -91 67v10h240v-10c-90 -10 -99 -28 -85 -70l184 -565h2l166 480l-26 88c-10 35 -26 62 -91 67v10h240v-10c-90 -10 -97 -27 -85 -70l162 -566h2l168 544c19 61 15 82 -97 92v10h200v-10c-55 -10 -72 -26 -85 -67
l-195 -628h-29zM645 841l-136 -101l-2 2l87 148c7 12 20 19 30 20c20 1 40 -15 40 -36c0 -11 -5 -23 -19 -33z" />
    <glyph glyph-name="Wcircumflex" unicode="&#x174;" horiz-adv-x="1000" 
d="M681 -5l-159 525l-182 -525h-29l-210 628c-11 34 -26 62 -91 67v10h240v-10c-90 -10 -99 -28 -85 -70l184 -565h2l166 480l-26 88c-10 35 -26 62 -91 67v10h240v-10c-90 -10 -97 -27 -85 -70l162 -566h2l168 544c19 61 15 82 -97 92v10h200v-10c-55 -10 -72 -26 -85 -67
l-195 -628h-29zM514 841l-127 -101h-2l124 180h9l125 -180h-2z" />
    <glyph glyph-name="Wdieresis" unicode="&#x1e84;" horiz-adv-x="1000" 
d="M681 -5l-159 525l-182 -525h-29l-210 628c-11 34 -26 62 -91 67v10h240v-10c-90 -10 -99 -28 -85 -70l184 -565h2l166 480l-26 88c-10 35 -26 62 -91 67v10h240v-10c-90 -10 -97 -27 -85 -70l162 -566h2l168 544c19 61 15 82 -97 92v10h200v-10c-55 -10 -72 -26 -85 -67
l-195 -628h-29zM374 805c0 30 21 51 49 51s50 -21 50 -51c0 -29 -22 -49 -50 -49s-49 20 -49 49zM567 805c0 30 22 51 50 51s49 -21 49 -51c0 -29 -21 -49 -49 -49s-50 20 -50 49z" />
    <glyph glyph-name="Wgrave" unicode="&#x1e80;" horiz-adv-x="1000" 
d="M681 -5l-159 525l-182 -525h-29l-210 628c-11 34 -26 62 -91 67v10h240v-10c-90 -10 -99 -28 -85 -70l184 -565h2l166 480l-26 88c-10 35 -26 62 -91 67v10h240v-10c-90 -10 -97 -27 -85 -70l162 -566h2l168 544c19 61 15 82 -97 92v10h200v-10c-55 -10 -72 -26 -85 -67
l-195 -628h-29zM514 740l-136 101c-14 10 -19 22 -19 33c0 21 20 37 40 36c10 -1 23 -8 30 -20l87 -148z" />
    <glyph glyph-name="Ycircumflex" unicode="&#x176;" horiz-adv-x="640" 
d="M310 60v176l-199 387c-17 32 -36 62 -101 67v10h240v-10c-90 -10 -95 -30 -75 -70l182 -363h2l156 341c26 58 -3 82 -85 92v10h200v-10c-55 -10 -75 -28 -93 -67l-172 -376v-187c0 -45 10 -45 95 -50v-10h-245v10c85 5 95 5 95 50zM349 841l-127 -101h-2l124 180h9
l125 -180h-2z" />
    <glyph glyph-name="Ygrave" unicode="&#x1ef2;" horiz-adv-x="640" 
d="M310 60v176l-199 387c-17 32 -36 62 -101 67v10h240v-10c-90 -10 -95 -30 -75 -70l182 -363h2l156 341c26 58 -3 82 -85 92v10h200v-10c-55 -10 -75 -28 -93 -67l-172 -376v-187c0 -45 10 -45 95 -50v-10h-245v10c85 5 95 5 95 50zM359 740l-136 101
c-14 10 -19 22 -19 33c0 21 20 37 40 36c10 -1 23 -8 30 -20l87 -148z" />
    <glyph glyph-name="Zacute" unicode="&#x179;" horiz-adv-x="570" 
d="M530 690l-438 -680h293c79 0 135 69 145 150h10l-10 -160h-500v10l439 680h-272c-80 0 -117 -59 -137 -150h-10l5 160h475v-10zM415 841l-136 -101l-2 2l87 148c7 12 20 19 30 20c20 1 40 -15 40 -36c0 -11 -5 -23 -19 -33z" />
    <glyph glyph-name="Zdotaccent" unicode="&#x17b;" horiz-adv-x="570" 
d="M530 690l-438 -680h293c79 0 135 69 145 150h10l-10 -160h-500v10l439 680h-272c-80 0 -117 -59 -137 -150h-10l5 160h475v-10zM251 805c0 30 21 51 49 51s50 -21 50 -51c0 -29 -22 -49 -50 -49s-49 20 -49 49z" />
    <glyph glyph-name="abreve" unicode="&#x103;" horiz-adv-x="505" 
d="M390 365v-310c0 -25 14 -35 34 -35c19 0 43 15 69 31l2 -6c-38 -27 -83 -55 -119 -55c-35 0 -41 28 -41 60v20h-2c-56 -48 -107 -80 -168 -80c-78 0 -115 50 -115 109c0 63 42 133 285 156v105c0 78 -40 130 -120 130c-66 0 -110 -42 -110 -74c0 -25 35 -32 35 -55
c0 -18 -15 -31 -36 -31s-39 12 -39 39c0 46 63 141 187 141c100 0 138 -60 138 -145zM335 80v165c-185 -21 -230 -70 -230 -135c0 -51 25 -90 90 -90c51 0 94 30 140 60zM237 550c-81 0 -110 70 -110 136h5c10 -46 35 -79 105 -79s96 33 106 79h5c0 -66 -30 -136 -111 -136z
" />
    <glyph glyph-name="amacron" unicode="&#x101;" horiz-adv-x="505" 
d="M390 365v-310c0 -25 14 -35 34 -35c19 0 43 15 69 31l2 -6c-38 -27 -83 -55 -119 -55c-35 0 -41 28 -41 60v20h-2c-56 -48 -107 -80 -168 -80c-78 0 -115 50 -115 109c0 63 42 133 285 156v105c0 78 -40 130 -120 130c-66 0 -110 -42 -110 -74c0 -25 35 -32 35 -55
c0 -18 -15 -31 -36 -31s-39 12 -39 39c0 46 63 141 187 141c100 0 138 -60 138 -145zM335 80v165c-185 -21 -230 -70 -230 -135c0 -51 25 -90 90 -90c51 0 94 30 140 60zM94 567h275v-10h-275v10z" />
    <glyph glyph-name="aogonek" unicode="&#x105;" horiz-adv-x="505" 
d="M433 -160v-4c-16 -21 -42 -36 -69 -36c-39 0 -69 32 -69 76c0 35 19 69 76 114c-31 3 -36 29 -36 60v20h-2c-56 -48 -107 -80 -168 -80c-78 0 -115 50 -115 109c0 63 42 133 285 156v105c0 78 -40 130 -120 130c-66 0 -110 -42 -110 -74c0 -25 35 -32 35 -55
c0 -18 -15 -31 -36 -31s-39 12 -39 39c0 46 63 141 187 141c100 0 138 -60 138 -145v-310c0 -25 14 -35 34 -35c19 0 43 15 69 31l2 -6c-36 -25 -77 -51 -112 -54c-27 -30 -41 -67 -41 -98c0 -52 37 -76 91 -53zM335 80v165c-185 -21 -230 -70 -230 -135
c0 -51 25 -90 90 -90c51 0 94 30 140 60z" />
    <glyph glyph-name="aeacute" unicode="&#x1fd;" horiz-adv-x="785" 
d="M575 510c77 0 165 -37 165 -152c0 -18 -4 -44 -10 -60h-339c-1 -9 -1 -19 -1 -28c0 -153 83 -250 200 -250c66 0 106 25 136 47l4 -7c-21 -19 -79 -70 -165 -70c-90 0 -154 42 -192 105c-99 -78 -150 -105 -208 -105c-78 0 -115 50 -115 110c0 62 43 132 285 155v95
c0 90 -39 140 -120 140c-66 0 -110 -41 -110 -74c0 -24 35 -31 35 -56c0 -17 -15 -30 -37 -30c-20 0 -38 12 -38 40c0 43 60 140 190 140c75 0 116 -38 130 -97c45 63 115 97 190 97zM570 500c-90 0 -164 -85 -178 -192h277c5 20 6 58 6 74c-2 71 -28 118 -105 118zM195 20
c49 0 105 32 173 85c-22 40 -33 89 -33 140c-184 -21 -230 -71 -230 -135c0 -51 26 -90 90 -90zM517 641l-126 -89l-4 4l83 130c7 11 18 17 28 18c18 1 36 -14 36 -33c0 -10 -4 -21 -17 -30z" />
    <glyph glyph-name="cacute" unicode="&#x107;" horiz-adv-x="480" 
d="M290 500c-109 0 -190 -105 -190 -230c0 -153 83 -250 200 -250c66 0 108 26 136 47l4 -7c-21 -19 -79 -70 -165 -70c-150 0 -230 120 -230 255c0 170 115 265 240 265c104 0 160 -61 160 -125c0 -35 -22 -45 -38 -45c-14 0 -32 5 -32 26c0 26 35 33 35 54
c0 47 -51 80 -120 80zM382 641l-126 -89l-4 4l83 130c7 11 18 17 28 18c18 1 36 -14 36 -33c0 -10 -4 -21 -17 -30z" />
    <glyph glyph-name="ccaron" unicode="&#x10d;" horiz-adv-x="480" 
d="M290 500c-109 0 -190 -105 -190 -230c0 -153 83 -250 200 -250c66 0 108 26 136 47l4 -7c-21 -19 -79 -70 -165 -70c-150 0 -230 120 -230 255c0 170 115 265 240 265c104 0 160 -61 160 -125c0 -35 -22 -45 -38 -45c-14 0 -32 5 -32 26c0 26 35 33 35 54
c0 47 -51 80 -120 80zM165 712l115 -90l116 90h2l-113 -162h-9l-113 162h2z" />
    <glyph glyph-name="ccircumflex" unicode="&#x109;" horiz-adv-x="480" 
d="M290 500c-109 0 -190 -105 -190 -230c0 -153 83 -250 200 -250c66 0 108 26 136 47l4 -7c-21 -19 -79 -70 -165 -70c-150 0 -230 120 -230 255c0 170 115 265 240 265c104 0 160 -61 160 -125c0 -35 -22 -45 -38 -45c-14 0 -32 5 -32 26c0 26 35 33 35 54
c0 47 -51 80 -120 80zM275 640l-115 -90h-2l113 162h9l113 -162h-2z" />
    <glyph glyph-name="cdotaccent" unicode="&#x10b;" horiz-adv-x="480" 
d="M290 500c-109 0 -190 -105 -190 -230c0 -153 83 -250 200 -250c66 0 108 26 136 47l4 -7c-21 -19 -79 -70 -165 -70c-150 0 -230 120 -230 255c0 170 115 265 240 265c104 0 160 -61 160 -125c0 -35 -22 -45 -38 -45c-14 0 -32 5 -32 26c0 26 35 33 35 54
c0 47 -51 80 -120 80zM239 599c0 30 21 51 49 51s50 -21 50 -51c0 -29 -22 -49 -50 -49s-49 20 -49 49z" />
    <glyph glyph-name="dcaron" unicode="&#x10f;" horiz-adv-x="640" 
d="M276 10c58 0 106 32 139 61v279c0 115 -74 150 -130 150c-122 0 -180 -115 -180 -250c0 -150 79 -240 171 -240zM470 730v-660c0 -45 10 -45 95 -50v-10l-135 -20h-10v70h-5c-39 -38 -104 -70 -164 -70c-130 0 -206 110 -206 260c0 165 110 260 230 260
c37 0 90 -10 140 -50v190c0 45 -10 45 -95 50v10l140 20h10zM565 730c50 0 65 -41 65 -80c0 -48 -28 -91 -91 -125l-4 7c41 23 60 44 60 62c0 6 1 26 -30 26c-34 0 -55 27 -55 55c0 33 27 55 55 55z" />
    <glyph glyph-name="dcroat" unicode="&#x111;" horiz-adv-x="580" 
d="M470 730v-144h95v-10h-95v-506c0 -45 10 -45 95 -50v-10l-135 -20h-10v70h-5c-39 -38 -104 -70 -164 -70c-130 0 -206 110 -206 260c0 165 110 260 230 260c37 0 90 -10 140 -50v116h-132v10h132v64c0 45 -10 45 -95 50v10l140 20h10zM276 10c58 0 106 32 139 61v279
c0 115 -74 150 -130 150c-122 0 -180 -115 -180 -250c0 -150 79 -240 171 -240z" />
    <glyph glyph-name="ebreve" unicode="&#x115;" horiz-adv-x="495" 
d="M285 510c77 0 165 -37 165 -152c0 -18 -4 -44 -10 -60h-339c-1 -9 -1 -19 -1 -28c0 -153 83 -250 200 -250c66 0 106 25 136 47l4 -7c-21 -19 -79 -70 -165 -70c-150 0 -230 120 -230 255c0 170 115 265 240 265zM280 500c-86 0 -163 -81 -178 -192h277c5 20 6 58 6 74
c-2 78 -35 118 -105 118zM280 550c-81 0 -110 70 -110 136h5c10 -46 35 -79 105 -79s96 33 106 79h5c0 -66 -30 -136 -111 -136z" />
    <glyph glyph-name="ecaron" unicode="&#x11b;" horiz-adv-x="495" 
d="M285 510c77 0 165 -37 165 -152c0 -18 -4 -44 -10 -60h-339c-1 -9 -1 -19 -1 -28c0 -153 83 -250 200 -250c66 0 106 25 136 47l4 -7c-21 -19 -79 -70 -165 -70c-150 0 -230 120 -230 255c0 170 115 265 240 265zM280 500c-86 0 -163 -81 -178 -192h277c5 20 6 58 6 74
c-2 78 -35 118 -105 118zM164 712l115 -90l116 90h2l-113 -162h-9l-113 162h2z" />
    <glyph glyph-name="edotaccent" unicode="&#x117;" horiz-adv-x="495" 
d="M285 510c77 0 165 -37 165 -152c0 -18 -4 -44 -10 -60h-339c-1 -9 -1 -19 -1 -28c0 -153 83 -250 200 -250c66 0 106 25 136 47l4 -7c-21 -19 -79 -70 -165 -70c-150 0 -230 120 -230 255c0 170 115 265 240 265zM280 500c-86 0 -163 -81 -178 -192h277c5 20 6 58 6 74
c-2 78 -35 118 -105 118zM231 599c0 30 21 51 49 51s50 -21 50 -51c0 -29 -22 -49 -50 -49s-49 20 -49 49z" />
    <glyph glyph-name="emacron" unicode="&#x113;" horiz-adv-x="495" 
d="M285 510c77 0 165 -37 165 -152c0 -18 -4 -44 -10 -60h-339c-1 -9 -1 -19 -1 -28c0 -153 83 -250 200 -250c66 0 106 25 136 47l4 -7c-21 -19 -79 -70 -165 -70c-150 0 -230 120 -230 255c0 170 115 265 240 265zM280 500c-86 0 -163 -81 -178 -192h277c5 20 6 58 6 74
c-2 78 -35 118 -105 118zM131 567h275v-10h-275v10z" />
    <glyph glyph-name="eogonek" unicode="&#x119;" horiz-adv-x="495" 
d="M370 9v3c-33 -15 -69 -22 -95 -22c-150 0 -230 120 -230 255c0 170 115 265 240 265c77 0 165 -37 165 -152c0 -18 -4 -44 -10 -60h-339c-1 -13 -1 -19 -1 -28c0 -153 83 -250 200 -250c66 0 106 25 136 47l4 -7c-110 -80 -123 -133 -123 -167c0 -44 28 -79 91 -53v-4
c-16 -21 -42 -36 -69 -36c-39 0 -69 32 -69 76c0 35 22 75 100 133zM280 500c-88 0 -161 -80 -178 -192h277c5 20 6 58 6 74c-2 71 -30 118 -105 118z" />
    <glyph glyph-name="gbreve" unicode="&#x11f;" horiz-adv-x="535" 
d="M250 155c-33 0 -64 6 -91 18c-11 -13 -24 -46 -24 -68c0 -28 23 -32 67 -35l162 -10c72 -4 141 -40 141 -110c0 -119 -145 -160 -275 -160c-145 0 -200 45 -200 110c0 45 47 80 109 119c-27 5 -64 19 -64 65c0 27 14 55 77 92c-58 28 -97 82 -97 156
c0 108 83 178 195 178c46 0 84 -13 114 -33l131 23v-55l-124 27c46 -34 69 -88 69 -137c0 -115 -78 -180 -190 -180zM120 340c0 -100 61 -175 135 -175c89 0 120 80 120 160c0 95 -53 175 -130 175c-82 0 -125 -70 -125 -160zM330 5l-182 13c-38 -39 -60 -70 -60 -108
c0 -55 42 -110 147 -110c86 0 207 33 207 126c0 54 -54 75 -112 79zM255 550c-81 0 -110 70 -110 136h5c10 -46 35 -79 105 -79s96 33 106 79h5c0 -66 -30 -136 -111 -136z" />
    <glyph glyph-name="gcircumflex" unicode="&#x11d;" horiz-adv-x="535" 
d="M250 155c-33 0 -64 6 -91 18c-11 -13 -24 -46 -24 -68c0 -28 23 -32 67 -35l162 -10c72 -4 141 -40 141 -110c0 -119 -145 -160 -275 -160c-145 0 -200 45 -200 110c0 45 47 80 109 119c-27 5 -64 19 -64 65c0 27 14 55 77 92c-58 28 -97 82 -97 156
c0 108 83 178 195 178c46 0 84 -13 114 -33l131 23v-55l-124 27c46 -34 69 -88 69 -137c0 -115 -78 -180 -190 -180zM120 340c0 -100 61 -175 135 -175c89 0 120 80 120 160c0 95 -53 175 -130 175c-82 0 -125 -70 -125 -160zM330 5l-182 13c-38 -39 -60 -70 -60 -108
c0 -55 42 -110 147 -110c86 0 207 33 207 126c0 54 -54 75 -112 79zM243 640l-115 -90h-2l113 162h9l113 -162h-2z" />
    <glyph glyph-name="gcommaaccent" unicode="&#x123;" horiz-adv-x="535" 
d="M250 155c-33 0 -64 6 -91 18c-11 -13 -24 -46 -24 -68c0 -28 23 -32 67 -35l162 -10c72 -4 141 -40 141 -110c0 -119 -145 -160 -275 -160c-145 0 -200 45 -200 110c0 45 47 80 109 119c-27 5 -64 19 -64 65c0 27 14 55 77 92c-58 28 -97 82 -97 156
c0 108 83 178 195 178c46 0 84 -13 114 -33l131 23v-55l-124 27c46 -34 69 -88 69 -137c0 -115 -78 -180 -190 -180zM120 340c0 -100 61 -175 135 -175c89 0 120 80 120 160c0 95 -53 175 -130 175c-82 0 -125 -70 -125 -160zM330 5l-182 13c-38 -39 -60 -70 -60 -108
c0 -55 42 -110 147 -110c86 0 207 33 207 126c0 54 -54 75 -112 79zM256 550c-50 0 -65 41 -65 80c0 48 28 91 91 125l4 -7c-41 -23 -60 -44 -60 -62c0 -6 -1 -26 30 -26c34 0 55 -27 55 -55c0 -33 -27 -55 -55 -55z" />
    <glyph glyph-name="gdotaccent" unicode="&#x121;" horiz-adv-x="535" 
d="M250 155c-33 0 -64 6 -91 18c-11 -13 -24 -46 -24 -68c0 -28 23 -32 67 -35l162 -10c72 -4 141 -40 141 -110c0 -119 -145 -160 -275 -160c-145 0 -200 45 -200 110c0 45 47 80 109 119c-27 5 -64 19 -64 65c0 27 14 55 77 92c-58 28 -97 82 -97 156
c0 108 83 178 195 178c46 0 84 -13 114 -33l131 23v-55l-124 27c46 -34 69 -88 69 -137c0 -115 -78 -180 -190 -180zM120 340c0 -100 61 -175 135 -175c89 0 120 80 120 160c0 95 -53 175 -130 175c-82 0 -125 -70 -125 -160zM330 5l-182 13c-38 -39 -60 -70 -60 -108
c0 -55 42 -110 147 -110c86 0 207 33 207 126c0 54 -54 75 -112 79zM210 599c0 30 21 51 49 51s50 -21 50 -51c0 -29 -22 -49 -50 -49s-49 20 -49 49z" />
    <glyph glyph-name="hbar" unicode="&#x127;" horiz-adv-x="615" 
d="M35 0v10c85 5 95 5 95 50v516h-95v10h95v64c0 45 -10 45 -95 50v10l140 20h10l-3 -144h135v-10h-135l-2 -171h5c50 59 123 105 196 105c67 0 124 -40 124 -150v-300c0 -45 10 -45 95 -50v-10h-225v10c65 5 75 5 75 50v303c0 58 -25 112 -110 112c-63 0 -116 -42 -155 -80
v-335c0 -45 10 -45 95 -50v-10h-245z" />
    <glyph glyph-name="hcircumflex" unicode="&#x125;" horiz-adv-x="615" 
d="M35 0v10c85 5 95 5 95 50v590c0 45 -10 45 -95 50v10l140 20h10l-5 -325h5c50 59 123 105 196 105c67 0 124 -40 124 -150v-300c0 -45 10 -45 95 -50v-10h-225v10c65 5 75 5 75 50v303c0 58 -25 112 -110 112c-63 0 -116 -42 -155 -80v-335c0 -45 10 -45 95 -50v-10h-245
zM144 850l-115 -90h-2l113 162h9l113 -162h-2z" />
    <glyph glyph-name="ibreve" unicode="&#x12d;" horiz-adv-x="295" 
d="M150 550c-81 0 -110 70 -110 136h5c10 -46 35 -79 105 -79s96 33 106 79h5c0 -66 -30 -136 -111 -136zM185 510v-450c0 -45 10 -45 95 -50v-10h-245v10c85 5 95 5 95 50v370c0 45 -10 45 -95 50v10l140 20h10z" />
    <glyph glyph-name="imacron" unicode="&#x12b;" horiz-adv-x="295" 
d="M6 567h275v-10h-275v10zM185 510v-450c0 -45 10 -45 95 -50v-10h-245v10c85 5 95 5 95 50v370c0 45 -10 45 -95 50v10l140 20h10z" />
    <glyph glyph-name="iogonek" unicode="&#x12f;" horiz-adv-x="295" 
d="M218 -160v-4c-16 -21 -42 -36 -69 -36c-39 0 -69 32 -69 76c0 37 22 74 90 124h-135v10c85 5 95 5 95 50v370c0 45 -10 45 -95 50v10l140 20h10v-450c0 -45 10 -45 95 -50v-10h-102c-33 -31 -51 -73 -51 -107c0 -52 37 -76 91 -53zM105 629c0 27 22 49 50 49
s50 -22 50 -49c0 -28 -22 -49 -50 -49s-50 21 -50 49z" />
    <glyph glyph-name="itilde" unicode="&#x129;" horiz-adv-x="295" 
d="M3 544l-4 2c19 39 44 95 86 95c36 0 129 -36 164 -36c11 0 29 0 52 35l5 -4c-19 -38 -40 -86 -82 -86s-126 36 -168 36c-13 0 -26 -4 -53 -42zM185 510v-450c0 -45 10 -45 95 -50v-10h-245v10c85 5 95 5 95 50v370c0 45 -10 45 -95 50v10l140 20h10z" />
    <glyph glyph-name="ij" unicode="&#x133;" horiz-adv-x="540" 
d="M440 510v-490c0 -150 -63 -230 -130 -230c-34 0 -45 17 -45 36c0 17 13 34 35 34c23 0 47 -35 60 -35c14 0 25 9 25 80v525c0 45 -10 45 -95 50v10l140 20h10zM360 629c0 27 22 49 50 49s50 -22 50 -49c0 -28 -22 -49 -50 -49s-50 21 -50 49zM105 629c0 27 22 49 50 49
s50 -22 50 -49c0 -28 -22 -49 -50 -49s-50 21 -50 49zM185 510v-450c0 -45 10 -45 95 -50v-10h-245v10c85 5 95 5 95 50v370c0 45 -10 45 -95 50v10l140 20h10z" />
    <glyph glyph-name="dotlessi" unicode="&#x131;" horiz-adv-x="295" 
d="M185 510v-450c0 -45 10 -45 95 -50v-10h-245v10c85 5 95 5 95 50v370c0 45 -10 45 -95 50v10l140 20h10z" />
    <glyph glyph-name="jcircumflex" unicode="&#x135;" horiz-adv-x="275" 
d="M175 510v-490c0 -150 -63 -230 -130 -230c-34 0 -45 17 -45 36c0 17 13 34 35 34c23 0 47 -35 60 -35c14 0 25 9 25 80v525c0 45 -10 45 -95 50v10l140 20h10zM137 642l-115 -90h-2l113 162h9l113 -162h-2z" />
    <glyph glyph-name="dotlessj" unicode="&#x237;" horiz-adv-x="275" 
d="M175 510v-490c0 -150 -63 -230 -130 -230c-34 0 -45 17 -45 36c0 17 13 34 35 34c23 0 47 -35 60 -35c14 0 25 9 25 80v525c0 45 -10 45 -95 50v10l140 20h10z" />
    <glyph glyph-name="kcommaaccent" unicode="&#x137;" horiz-adv-x="585" 
d="M185 730v-460c88 0 100 -2 145 48l77 92c35 41 33 70 -71 80v10h209v-10c-70 -10 -87 -37 -115 -70l-123 -144l198 -228c10 -11 25 -36 75 -41v-7h-115l-189 229c-22 26 -43 31 -91 31v-200c0 -45 10 -45 95 -50v-10h-245v10c85 5 95 5 95 50v590c0 45 -10 45 -95 50v10
l140 20h10zM309 -30c50 0 65 -41 65 -80c0 -48 -28 -91 -91 -125l-4 7c41 23 60 44 60 62c0 6 1 26 -30 26c-34 0 -55 27 -55 55c0 33 27 55 55 55z" />
    <glyph glyph-name="lacute" unicode="&#x13a;" horiz-adv-x="295" 
d="M185 730v-670c0 -45 10 -45 95 -50v-10h-245v10c85 5 95 5 95 50v590c0 45 -10 45 -95 50v10l140 20h10zM266 861l-126 -89l-4 4l83 130c7 11 18 17 28 18c18 1 36 -14 36 -33c0 -10 -4 -21 -17 -30z" />
    <glyph glyph-name="lcaron" unicode="&#x13e;" horiz-adv-x="355" 
d="M185 730v-670c0 -45 10 -45 95 -50v-10h-245v10c85 5 95 5 95 50v590c0 45 -10 45 -95 50v10l140 20h10zM280 730c50 0 65 -41 65 -80c0 -48 -28 -91 -91 -125l-4 7c41 23 60 44 60 62c0 6 1 26 -30 26c-34 0 -55 27 -55 55c0 33 27 55 55 55z" />
    <glyph glyph-name="lcommaaccent" unicode="&#x13c;" horiz-adv-x="295" 
d="M185 730v-670c0 -45 10 -45 95 -50v-10h-245v10c85 5 95 5 95 50v590c0 45 -10 45 -95 50v10l140 20h10zM154 -30c50 0 65 -41 65 -80c0 -48 -28 -91 -91 -125l-4 7c41 23 60 44 60 62c0 6 1 26 -30 26c-34 0 -55 27 -55 55c0 33 27 55 55 55z" />
    <glyph glyph-name="ldot" unicode="&#x140;" horiz-adv-x="334" 
d="M185 730v-670c0 -45 10 -45 95 -50v-10h-245v10c85 5 95 5 95 50v590c0 45 -10 45 -95 50v10l140 20h10zM225 385c0 30 21 51 49 51s50 -21 50 -51c0 -29 -22 -49 -50 -49s-49 20 -49 49z" />
    <glyph glyph-name="lslash" unicode="&#x142;" horiz-adv-x="295" 
d="M185 730v-358l95 39v-13l-95 -39v-299c0 -45 10 -45 95 -50v-10h-245v10c85 5 95 5 95 50v277l-95 -39v13l95 39v300c0 45 -10 45 -95 50v10l140 20h10z" />
    <glyph glyph-name="nacute" unicode="&#x144;" horiz-adv-x="615" 
d="M35 0v10c85 5 95 5 95 50v370c0 45 -10 45 -95 50v10l140 20h10l-5 -105h5c50 59 123 105 196 105c67 0 124 -40 124 -150v-300c0 -45 10 -45 95 -50v-10h-225v10c65 5 75 5 75 50v303c0 58 -25 112 -110 112c-63 0 -116 -42 -155 -80v-335c0 -45 10 -45 95 -50v-10h-245
zM398 641l-126 -89l-4 4l83 130c7 11 18 17 28 18c18 1 36 -14 36 -33c0 -10 -4 -21 -17 -30z" />
    <glyph glyph-name="ncaron" unicode="&#x148;" horiz-adv-x="615" 
d="M35 0v10c85 5 95 5 95 50v370c0 45 -10 45 -95 50v10l140 20h10l-5 -105h5c50 59 123 105 196 105c67 0 124 -40 124 -150v-300c0 -45 10 -45 95 -50v-10h-225v10c65 5 75 5 75 50v303c0 58 -25 112 -110 112c-63 0 -116 -42 -155 -80v-335c0 -45 10 -45 95 -50v-10h-245
zM193 712l115 -90l116 90h2l-113 -162h-9l-113 162h2z" />
    <glyph glyph-name="ncommaaccent" unicode="&#x146;" horiz-adv-x="615" 
d="M35 0v10c85 5 95 5 95 50v370c0 45 -10 45 -95 50v10l140 20h10l-5 -105h5c50 59 123 105 196 105c67 0 124 -40 124 -150v-300c0 -45 10 -45 95 -50v-10h-225v10c65 5 75 5 75 50v303c0 58 -25 112 -110 112c-63 0 -116 -42 -155 -80v-335c0 -45 10 -45 95 -50v-10h-245
zM319 -30c50 0 65 -41 65 -80c0 -48 -28 -91 -91 -125l-4 7c41 23 60 44 60 62c0 6 1 26 -30 26c-34 0 -55 27 -55 55c0 33 27 55 55 55z" />
    <glyph glyph-name="obreve" unicode="&#x14f;" horiz-adv-x="550" 
d="M275 -10c140 0 230 115 230 260s-90 260 -230 260s-230 -115 -230 -260s90 -260 230 -260zM275 500c105 0 170 -100 170 -250s-65 -250 -170 -250s-170 100 -170 250s65 250 170 250zM274 550c-81 0 -110 70 -110 136h5c10 -46 35 -79 105 -79s96 33 106 79h5
c0 -66 -30 -136 -111 -136z" />
    <glyph glyph-name="ohungarumlaut" unicode="&#x151;" horiz-adv-x="550" 
d="M275 -10c140 0 230 115 230 260s-90 260 -230 260s-230 -115 -230 -260s90 -260 230 -260zM275 500c105 0 170 -100 170 -250s-65 -250 -170 -250s-170 100 -170 250s65 250 170 250zM312 641l-127 -88l-3 3l83 130c7 11 18 17 28 18c18 1 36 -14 36 -33
c0 -10 -4 -21 -17 -30zM430 641l-127 -88l-3 3l83 130c7 11 19 17 28 18c19 1 37 -14 37 -33c0 -10 -5 -21 -18 -30z" />
    <glyph glyph-name="omacron" unicode="&#x14d;" horiz-adv-x="550" 
d="M275 -10c140 0 230 115 230 260s-90 260 -230 260s-230 -115 -230 -260s90 -260 230 -260zM275 500c105 0 170 -100 170 -250s-65 -250 -170 -250s-170 100 -170 250s65 250 170 250zM137 567h275v-10h-275v10z" />
    <glyph glyph-name="oslashacute" unicode="&#x1ff;" horiz-adv-x="550" 
d="M385 641l-126 -89l-4 4l83 130c7 11 18 17 28 18c18 1 36 -14 36 -33c0 -10 -4 -21 -17 -30zM275 -10c140 0 230 115 230 260c0 107 -50 198 -132 238l20 52h-10l-19 -48c-27 11 -56 18 -89 18c-140 0 -230 -115 -230 -260c0 -108 50 -200 133 -240l-19 -50h11l18 46
c26 -10 55 -16 87 -16zM275 500c31 0 59 -9 83 -26l-172 -444c-52 40 -81 118 -81 220c0 150 65 250 170 250zM275 0c-31 0 -58 8 -81 23l171 445c51 -40 80 -118 80 -218c0 -150 -65 -250 -170 -250z" />
    <glyph glyph-name="racute" unicode="&#x155;" horiz-adv-x="410" 
d="M35 0v10c85 5 95 5 95 50v370c0 45 -10 45 -95 50v10l140 20h10l-5 -115h5c60 80 113 115 165 115c29 0 50 -15 50 -42c0 -20 -15 -38 -36 -38c-22 0 -34 35 -69 35s-70 -30 -110 -80v-325c0 -45 10 -45 115 -50v-10h-265zM285 641l-126 -89l-4 4l83 130
c7 11 18 17 28 18c18 1 36 -14 36 -33c0 -10 -4 -21 -17 -30z" />
    <glyph glyph-name="rcaron" unicode="&#x159;" horiz-adv-x="410" 
d="M35 0v10c85 5 95 5 95 50v370c0 45 -10 45 -95 50v10l140 20h10l-5 -115h5c60 80 113 115 165 115c29 0 50 -15 50 -42c0 -20 -15 -38 -36 -38c-22 0 -34 35 -69 35s-70 -30 -110 -80v-325c0 -45 10 -45 115 -50v-10h-265zM119 712l115 -90l116 90h2l-113 -162h-9
l-113 162h2z" />
    <glyph glyph-name="rcommaaccent" unicode="&#x157;" horiz-adv-x="410" 
d="M35 0v10c85 5 95 5 95 50v370c0 45 -10 45 -95 50v10l140 20h10l-5 -115h5c60 80 113 115 165 115c29 0 50 -15 50 -42c0 -20 -15 -38 -36 -38c-22 0 -34 35 -69 35s-70 -30 -110 -80v-325c0 -45 10 -45 115 -50v-10h-265zM153 -30c50 0 65 -41 65 -80
c0 -48 -28 -91 -91 -125l-4 7c41 23 60 44 60 62c0 6 1 26 -30 26c-34 0 -55 27 -55 55c0 33 27 55 55 55z" />
    <glyph glyph-name="sacute" unicode="&#x15b;" horiz-adv-x="425" 
d="M360 350h-10c-4 80 -80 150 -143 150c-71 0 -107 -39 -107 -92c0 -148 280 -98 280 -271c0 -95 -75 -147 -175 -147c-55 0 -107 15 -147 35l-13 135h10c24 -120 96 -160 153 -160c77 0 117 50 117 108c0 152 -275 104 -275 270c0 80 70 132 165 132c47 0 97 -12 137 -31z
M312 641l-126 -89l-4 4l83 130c7 11 18 17 28 18c18 1 36 -14 36 -33c0 -10 -4 -21 -17 -30z" />
    <glyph glyph-name="scedilla" unicode="&#x15f;" horiz-adv-x="425" 
d="M360 350h-10c-4 80 -80 150 -143 150c-71 0 -107 -39 -107 -92c0 -148 280 -98 280 -271c0 -94 -73 -145 -171 -147v-23c46 -9 104 -31 104 -84c0 -56 -74 -90 -141 -99l-3 6c31 7 93 23 93 72c0 33 -18 52 -63 63l3 65c-54 1 -105 15 -144 35l-13 135h10
c24 -120 96 -160 153 -160c77 0 117 50 117 108c0 152 -275 104 -275 270c0 80 70 132 165 132c47 0 97 -12 137 -31z" />
    <glyph glyph-name="scircumflex" unicode="&#x15d;" horiz-adv-x="425" 
d="M360 350h-10c-4 80 -80 150 -143 150c-71 0 -107 -39 -107 -92c0 -148 280 -98 280 -271c0 -95 -75 -147 -175 -147c-55 0 -107 15 -147 35l-13 135h10c24 -120 96 -160 153 -160c77 0 117 50 117 108c0 152 -275 104 -275 270c0 80 70 132 165 132c47 0 97 -12 137 -31z
M215 640l-115 -90h-2l113 162h9l113 -162h-2z" />
    <glyph glyph-name="scommaaccent" unicode="&#x219;" horiz-adv-x="425" 
d="M360 350h-10c-4 80 -80 150 -143 150c-71 0 -107 -39 -107 -92c0 -148 280 -98 280 -271c0 -95 -75 -147 -175 -147c-55 0 -107 15 -147 35l-13 135h10c24 -120 96 -160 153 -160c77 0 117 50 117 108c0 152 -275 104 -275 270c0 80 70 132 165 132c47 0 97 -12 137 -31z
M213 -30c50 0 65 -41 65 -80c0 -48 -28 -91 -91 -125l-4 7c41 23 60 44 60 62c0 6 1 26 -30 26c-34 0 -55 27 -55 55c0 33 27 55 55 55z" />
    <glyph glyph-name="tbar" unicode="&#x167;" horiz-adv-x="355" 
d="M175 490v-214h145v-10h-145v-162c0 -75 28 -96 65 -96c36 0 70 25 92 40l3 -8c-41 -32 -80 -50 -122 -50c-63 0 -93 35 -93 120v156h-95v10h95v214h-95v5l95 5l45 150h10v-150h145v-10h-145z" />
    <glyph glyph-name="tcaron" unicode="&#x165;" horiz-adv-x="355" 
d="M175 490v-386c0 -75 28 -96 65 -96c36 0 70 25 92 40l3 -8c-41 -32 -80 -50 -122 -50c-63 0 -93 35 -93 120v380h-95v5l95 5l45 150h10v-150h145v-10h-145zM260 740c50 0 65 -41 65 -80c0 -48 -28 -91 -91 -125l-4 7c41 23 60 44 60 62c0 6 1 26 -30 26
c-34 0 -55 27 -55 55c0 33 27 55 55 55z" />
    <glyph glyph-name="tcommaaccent" unicode="&#x163;" horiz-adv-x="355" 
d="M175 490v-386c0 -75 28 -96 65 -96c36 0 70 25 92 40l3 -8c-41 -32 -80 -50 -122 -50c-63 0 -93 35 -93 120v380h-95v5l95 5l45 150h10v-150h145v-10h-145zM191 -30c50 0 65 -41 65 -80c0 -48 -28 -91 -91 -125l-4 7c41 23 60 44 60 62c0 6 1 26 -30 26
c-34 0 -55 27 -55 55c0 33 27 55 55 55z" />
    <glyph glyph-name="uni021B" unicode="&#x21b;" horiz-adv-x="355" 
d="M175 490v-386c0 -75 28 -96 65 -96c36 0 70 25 92 40l3 -8c-41 -32 -80 -50 -122 -50c-63 0 -93 35 -93 120v380h-95v5l95 5l45 150h10v-150h145v-10h-145zM191 -30c50 0 65 -41 65 -80c0 -48 -28 -91 -91 -125l-4 7c41 23 60 44 60 62c0 6 1 26 -30 26
c-34 0 -55 27 -55 55c0 33 27 55 55 55z" />
    <glyph glyph-name="ubreve" unicode="&#x16d;" horiz-adv-x="605" 
d="M440 105v325c0 45 -10 45 -115 50v10l160 20h10v-440c0 -45 10 -45 95 -50v-10l-135 -20h-10v105h-5c-50 -59 -123 -105 -196 -105c-67 0 -124 40 -124 150v290c0 45 -10 45 -95 50v10l140 20h10v-388c0 -58 30 -97 90 -97c70 0 135 40 175 80zM298 550
c-81 0 -110 70 -110 136h5c10 -46 35 -79 105 -79s96 33 106 79h5c0 -66 -30 -136 -111 -136z" />
    <glyph glyph-name="uhungarumlaut" unicode="&#x171;" horiz-adv-x="605" 
d="M440 105v325c0 45 -10 45 -115 50v10l160 20h10v-440c0 -45 10 -45 95 -50v-10l-135 -20h-10v105h-5c-50 -59 -123 -105 -196 -105c-67 0 -124 40 -124 150v290c0 45 -10 45 -95 50v10l140 20h10v-388c0 -58 30 -97 90 -97c70 0 135 40 175 80zM346 641l-127 -88l-3 3
l83 130c7 11 18 17 28 18c18 1 36 -14 36 -33c0 -10 -4 -21 -17 -30zM464 641l-127 -88l-3 3l83 130c7 11 19 17 28 18c19 1 37 -14 37 -33c0 -10 -5 -21 -18 -30z" />
    <glyph glyph-name="umacron" unicode="&#x16b;" horiz-adv-x="605" 
d="M440 105v325c0 45 -10 45 -115 50v10l160 20h10v-440c0 -45 10 -45 95 -50v-10l-135 -20h-10v105h-5c-50 -59 -123 -105 -196 -105c-67 0 -124 40 -124 150v290c0 45 -10 45 -95 50v10l140 20h10v-388c0 -58 30 -97 90 -97c70 0 135 40 175 80zM170 567h275v-10h-275v10z
" />
    <glyph glyph-name="uogonek" unicode="&#x173;" horiz-adv-x="605" 
d="M505 -160v-4c-16 -21 -42 -36 -69 -36c-39 0 -69 32 -69 76c0 35 19 70 78 115v104h-5c-50 -59 -123 -105 -196 -105c-67 0 -124 40 -124 150v290c0 45 -10 45 -95 50v10l140 20h10v-388c0 -58 30 -97 90 -97c70 0 135 40 175 80v325c0 45 -10 45 -115 50v10l160 20h10
v-440c0 -45 10 -45 95 -50v-10l-135 -20c-27 -29 -41 -66 -41 -97c0 -52 37 -76 91 -53z" />
    <glyph glyph-name="uring" unicode="&#x16f;" horiz-adv-x="605" 
d="M440 105v325c0 45 -10 45 -115 50v10l160 20h10v-440c0 -45 10 -45 95 -50v-10l-135 -20h-10v105h-5c-50 -59 -123 -105 -196 -105c-67 0 -124 40 -124 150v290c0 45 -10 45 -95 50v10l140 20h10v-388c0 -58 30 -97 90 -97c70 0 135 40 175 80zM214 626c0 44 34 77 76 77
c43 0 77 -33 77 -77c0 -42 -34 -76 -77 -76c-42 0 -76 34 -76 76zM221 626c0 -39 30 -69 69 -69c41 0 70 30 70 69c0 41 -29 70 -70 70c-39 0 -69 -29 -69 -70z" />
    <glyph glyph-name="utilde" unicode="&#x169;" horiz-adv-x="605" 
d="M440 105v325c0 45 -10 45 -115 50v10l160 20h10v-440c0 -45 10 -45 95 -50v-10l-135 -20h-10v105h-5c-50 -59 -123 -105 -196 -105c-67 0 -124 40 -124 150v290c0 45 -10 45 -95 50v10l140 20h10v-388c0 -58 30 -97 90 -97c70 0 135 40 175 80zM163 544l-4 2
c19 39 44 95 86 95c36 0 129 -36 164 -36c11 0 29 0 52 35l5 -4c-19 -38 -40 -86 -82 -86s-126 36 -168 36c-13 0 -26 -4 -53 -42z" />
    <glyph glyph-name="wacute" unicode="&#x1e83;" horiz-adv-x="840" 
d="M585 -5l-150 428l-159 -428h-31l-166 428c-13 34 -24 63 -74 67v10h225v-10c-90 -10 -95 -28 -80 -70l132 -372h2l171 457h15l151 -457h2l126 372c18 52 -4 60 -94 70v10h180v-10c-40 -5 -56 -20 -69 -57l-150 -438h-31zM566 641l-126 -89l-4 4l83 130c7 11 18 17 28 18
c18 1 36 -14 36 -33c0 -10 -4 -21 -17 -30z" />
    <glyph glyph-name="wcircumflex" unicode="&#x175;" horiz-adv-x="840" 
d="M585 -5l-150 428l-159 -428h-31l-166 428c-13 34 -24 63 -74 67v10h225v-10c-90 -10 -95 -28 -80 -70l132 -372h2l171 457h15l151 -457h2l126 372c18 52 -4 60 -94 70v10h180v-10c-40 -5 -56 -20 -69 -57l-150 -438h-31zM441 640l-115 -90h-2l113 162h9l113 -162h-2z" />
    <glyph glyph-name="wdieresis" unicode="&#x1e85;" horiz-adv-x="840" 
d="M585 -5l-150 428l-159 -428h-31l-166 428c-13 34 -24 63 -74 67v10h225v-10c-90 -10 -95 -28 -80 -70l132 -372h2l171 457h15l151 -457h2l126 372c18 52 -4 60 -94 70v10h180v-10c-40 -5 -56 -20 -69 -57l-150 -438h-31zM314 595c0 27 19 46 45 46c25 0 46 -19 46 -46
s-21 -45 -46 -45c-26 0 -45 18 -45 45zM488 595c0 27 20 46 46 46c25 0 44 -19 44 -46s-19 -45 -44 -45c-26 0 -46 18 -46 45z" />
    <glyph glyph-name="wgrave" unicode="&#x1e81;" horiz-adv-x="840" 
d="M585 -5l-150 428l-159 -428h-31l-166 428c-13 34 -24 63 -74 67v10h225v-10c-90 -10 -95 -28 -80 -70l132 -372h2l171 457h15l151 -457h2l126 372c18 52 -4 60 -94 70v10h180v-10c-40 -5 -56 -20 -69 -57l-150 -438h-31zM440 552l-126 89c-13 9 -17 20 -17 30
c0 19 18 34 36 33c10 -1 21 -7 28 -18l83 -130z" />
    <glyph glyph-name="ycircumflex" unicode="&#x177;" horiz-adv-x="540" 
d="M466 433l-166 -428c-71 -183 -187 -215 -245 -215c-33 0 -45 16 -45 36s13 34 36 34c20 0 34 -5 58 -5c79 0 126 23 171 118l-196 450c-14 33 -34 65 -74 67v10h225v-10c-90 -10 -97 -29 -80 -70l154 -370h2l143 370c20 51 7 60 -94 70v10h180v-10
c-40 -5 -55 -20 -69 -57zM306 640l-115 -90h-2l113 162h9l113 -162h-2z" />
    <glyph glyph-name="ygrave" unicode="&#x1ef3;" horiz-adv-x="540" 
d="M466 433l-166 -428c-71 -183 -187 -215 -245 -215c-33 0 -45 16 -45 36s13 34 36 34c20 0 34 -5 58 -5c79 0 126 23 171 118l-196 450c-14 33 -34 65 -74 67v10h225v-10c-90 -10 -97 -29 -80 -70l154 -370h2l143 370c20 51 7 60 -94 70v10h180v-10
c-40 -5 -55 -20 -69 -57zM304 552l-126 89c-13 9 -17 20 -17 30c0 19 18 34 36 33c10 -1 21 -7 28 -18l83 -130z" />
    <glyph glyph-name="zacute" unicode="&#x17a;" horiz-adv-x="475" 
d="M93 10h232c55 0 90 40 110 140h10l-15 -150h-400v10l332 480h-207c-55 0 -80 -50 -100 -140h-10l10 150h370v-10zM360 641l-126 -89l-4 4l83 130c7 11 18 17 28 18c18 1 36 -14 36 -33c0 -10 -4 -21 -17 -30z" />
    <glyph glyph-name="zdotaccent" unicode="&#x17c;" horiz-adv-x="475" 
d="M93 10h232c55 0 90 40 110 140h10l-15 -150h-400v10l332 480h-207c-55 0 -80 -50 -100 -140h-10l10 150h370v-10zM198 599c0 30 21 51 49 51s50 -21 50 -51c0 -29 -22 -49 -50 -49s-49 20 -49 49z" />
    <glyph glyph-name="asuperior" horiz-adv-x="307" 
d="M239 618v-184c0 -14 8 -20 19 -20s24 8 38 17l1 -4c-23 -16 -50 -33 -74 -33c-23 0 -29 17 -29 37v11h-1c-32 -29 -62 -48 -99 -48c-46 0 -69 30 -69 66c0 38 26 82 169 94v63c0 44 -23 76 -70 76c-37 0 -63 -24 -63 -43c0 -17 23 -22 23 -36c0 -11 -10 -20 -24 -20
s-26 8 -26 25c0 29 40 87 116 87c63 0 89 -37 89 -88zM194 448v100c-98 -11 -124 -38 -124 -78c0 -32 15 -53 50 -53c27 0 50 15 74 31z" />
    <glyph glyph-name="bsuperior" horiz-adv-x="347" 
d="M100 664h3c23 23 60 42 96 42c77 0 123 -66 123 -156c0 -99 -66 -156 -140 -156c-24 0 -69 6 -97 36l-21 -33h-6v393c0 26 -5 27 -53 30v6l92 12h6zM178 690c-31 0 -57 -16 -75 -32v-171c0 -68 42 -87 72 -87c67 0 98 69 98 149c0 90 -43 141 -95 141z" />
    <glyph glyph-name="csuperior" horiz-adv-x="290" 
d="M177 700c-62 0 -107 -62 -107 -139c0 -93 50 -146 117 -146c38 0 63 15 79 28l3 -5c-12 -11 -47 -44 -103 -44c-92 0 -141 72 -141 153c0 102 72 159 147 159c65 0 98 -38 98 -76c0 -21 -13 -29 -26 -29c-11 0 -22 4 -22 17c0 18 22 21 22 37c0 25 -28 45 -67 45z" />
    <glyph glyph-name="dsuperior" horiz-adv-x="352" 
d="M169 410c30 0 56 17 75 33v170c0 68 -42 87 -72 87c-68 0 -99 -67 -99 -149c0 -90 44 -141 96 -141zM288 838v-396c0 -26 6 -27 54 -30v-6l-89 -12h-6v42h-3c-23 -23 -60 -42 -96 -42c-77 0 -123 66 -123 156c0 99 66 156 139 156c21 0 51 -6 80 -27v111
c0 26 -6 27 -54 30v6l92 12h6z" />
    <glyph glyph-name="esuperior" horiz-adv-x="299" 
d="M172 706c48 0 102 -23 102 -93c0 -11 -2 -26 -6 -36h-198v-15c0 -93 50 -147 116 -147c38 0 63 14 80 28l3 -5c-12 -11 -47 -44 -103 -44c-92 0 -141 72 -141 153c0 102 72 159 147 159zM169 700c-49 0 -91 -48 -98 -117h152c3 14 4 38 4 47c-1 48 -21 70 -58 70z" />
    <glyph glyph-name="fsuperior" horiz-adv-x="208" 
d="M191 700v-6h-73v-259c0 -26 6 -26 65 -29v-6h-163v6c48 3 53 3 53 29v259h-53v3l53 3v21c0 54 29 117 104 117c36 0 66 -20 66 -47c0 -21 -13 -29 -26 -29c-10 0 -21 4 -21 17c0 12 18 17 18 32c0 14 -17 21 -38 21c-48 0 -58 -55 -58 -105v-27h73z" />
    <glyph glyph-name="gsuperior" horiz-adv-x="320" 
d="M150 494c-20 0 -39 3 -56 10c-6 -7 -13 -25 -13 -38c0 -15 12 -19 38 -20l98 -6c48 -3 88 -27 88 -69c0 -72 -87 -97 -169 -97c-85 0 -121 26 -121 64c0 27 33 48 66 68c-16 3 -40 13 -40 42c0 19 13 37 50 58c-36 16 -61 49 -61 94c0 64 51 106 120 106
c27 0 50 -8 68 -19l81 13v-34l-76 17c28 -20 43 -52 43 -82c0 -67 -48 -107 -116 -107zM79 605c0 -65 34 -105 74 -105c48 0 64 46 64 95c0 61 -29 105 -70 105c-45 0 -68 -39 -68 -95zM195 398l-109 8c-20 -22 -31 -40 -31 -60c0 -36 26 -66 86 -66c50 0 118 19 118 72
c0 31 -31 44 -64 46z" />
    <glyph glyph-name="isuperior" horiz-adv-x="181" 
d="M59 777c0 19 15 33 35 33c19 0 35 -14 35 -33s-16 -32 -35 -32c-20 0 -35 13 -35 32zM118 706v-271c0 -26 6 -26 53 -29v-6h-151v6c48 3 53 3 53 29v223c0 26 -5 27 -53 30v6l92 12h6z" />
    <glyph glyph-name="jsuperior" unicode="&#x2b2;" horiz-adv-x="168" 
d="M113 706v-290c0 -92 -44 -142 -88 -142c-21 0 -30 10 -30 24c0 11 8 22 23 22c17 0 28 -26 37 -26c11 0 13 15 13 58v306c0 26 -6 27 -53 30v6l92 12h6zM54 777c0 19 15 33 35 33c19 0 34 -14 34 -33s-15 -32 -34 -32c-20 0 -35 13 -35 32z" />
    <glyph glyph-name="ksuperior" horiz-adv-x="357" 
d="M118 838v-277c51 0 59 0 84 28l45 55c20 24 21 45 -44 50v6h128v-6c-42 -6 -52 -22 -69 -42l-68 -81l115 -141c7 -7 16 -23 43 -26v-4h-79l-105 135c-12 16 -24 20 -50 20v-120c0 -26 6 -26 53 -29v-6h-151v6c48 3 53 3 53 29v355c0 26 -5 27 -53 30v6l92 12h6z" />
    <glyph glyph-name="lsuperior" horiz-adv-x="181" 
d="M118 838v-403c0 -26 6 -26 53 -29v-6h-151v6c48 3 53 3 53 29v355c0 26 -5 27 -53 30v6l92 12h6z" />
    <glyph glyph-name="msuperior" horiz-adv-x="552" 
d="M20 400v6c48 3 53 3 53 29v223c0 26 -5 27 -53 30v6l92 12h6l-3 -63h3c30 35 66 63 110 63c39 0 65 -21 75 -62h1c30 35 66 62 109 62c41 0 76 -24 76 -90v-181c0 -26 6 -26 53 -29v-6h-134v6c31 3 36 3 36 29v192c0 33 -16 55 -49 55c-34 0 -68 -22 -91 -45v-202
c0 -26 5 -26 53 -29v-6h-134v6c30 3 36 3 36 29v192c0 33 -17 55 -50 55c-36 0 -69 -23 -91 -45v-202c0 -26 6 -26 53 -29v-6h-151z" />
    <glyph glyph-name="nsuperior" unicode="&#x207f;" horiz-adv-x="373" 
d="M20 400v6c48 3 53 3 53 29v223c0 26 -5 27 -53 30v6l92 12h6l-3 -63h3c30 35 72 63 116 63c41 0 76 -24 76 -90v-181c0 -26 5 -26 53 -29v-6h-140v6c36 3 42 3 42 29v183c0 34 -15 64 -61 64c-35 0 -64 -24 -86 -45v-202c0 -26 6 -26 53 -29v-6h-151z" />
    <glyph glyph-name="osuperior" horiz-adv-x="332" 
d="M166 394c-86 0 -141 69 -141 156s55 156 141 156s141 -69 141 -156s-55 -156 -141 -156zM166 700c-58 0 -93 -57 -93 -150s35 -150 93 -150c57 0 93 57 93 150s-36 150 -93 150z" />
    <glyph glyph-name="psuperior" horiz-adv-x="357" 
d="M110 664h3c23 23 60 42 96 42c77 0 123 -66 123 -156c0 -99 -67 -156 -140 -156c-21 0 -58 6 -79 22v-101c0 -26 6 -26 53 -29v-6h-151v6c48 3 53 3 53 29v343c0 26 -5 27 -53 30v6l92 12h6zM188 690c-31 0 -57 -16 -75 -32v-171c0 -68 42 -87 72 -87c67 0 98 67 98 149
c0 90 -43 141 -95 141z" />
    <glyph glyph-name="qsuperior" horiz-adv-x="342" 
d="M169 410c30 0 56 17 75 33v170c0 68 -42 87 -72 87c-68 0 -99 -67 -99 -149c0 -90 44 -141 96 -141zM244 315l3 121h-3c-23 -23 -60 -42 -96 -42c-77 0 -123 66 -123 156c0 99 66 156 140 156c24 0 69 -6 97 -36l20 33h6v-388c0 -26 6 -26 54 -29v-6h-152v6
c48 3 53 3 54 29z" />
    <glyph glyph-name="rsuperior" horiz-adv-x="255" 
d="M20 400v6c48 3 53 3 53 29v223c0 26 -5 27 -53 30v6l92 12h6l-3 -69h3c33 46 63 69 95 69c18 0 32 -10 32 -29c0 -14 -10 -26 -24 -26c-16 0 -23 23 -43 23c-19 0 -38 -16 -60 -43v-196c0 -26 6 -26 65 -29v-6h-163z" />
    <glyph glyph-name="ssuperior" horiz-adv-x="256" 
d="M219 610h-6c-5 47 -49 90 -87 90c-40 0 -60 -22 -60 -52c0 -87 165 -61 165 -165c0 -57 -45 -89 -108 -89c-33 0 -66 9 -90 21l-8 81h6c15 -71 58 -96 94 -96c44 0 67 27 67 61c0 87 -164 63 -164 164c0 48 41 81 102 81c28 0 60 -7 84 -19z" />
    <glyph glyph-name="tsuperior" horiz-adv-x="216" 
d="M113 694v-232c0 -42 15 -56 38 -56c21 0 40 15 53 24l2 -5c-26 -20 -52 -31 -78 -31c-40 0 -60 21 -60 72v228h-53v3l53 3l39 90h6v-90h84v-6h-84z" />
    <glyph glyph-name="usuperior" horiz-adv-x="368" 
d="M260 463v195c0 26 -6 27 -65 30v6l103 12h7v-264c0 -26 5 -27 53 -30v-6l-89 -12h-6v63h-3c-30 -35 -72 -63 -116 -63c-41 0 -76 24 -76 90v174c0 26 -5 27 -53 30v6l91 12h7v-232c0 -33 17 -55 50 -55c40 0 75 22 97 44z" />
    <glyph glyph-name="vsuperior" horiz-adv-x="331" 
d="M159 397l-111 257c-9 20 -21 40 -43 40v6h143v-6c-51 -6 -55 -19 -45 -42l88 -214h1l83 214c11 29 3 36 -58 42v6h109v-6c-24 -3 -33 -13 -42 -36l-100 -261h-25z" />
    <glyph glyph-name="wsuperior" unicode="&#x2b7;" horiz-adv-x="511" 
d="M350 397l-90 249l-88 -249h-25l-100 259c-8 20 -14 35 -42 38v6h143v-6c-51 -6 -55 -18 -46 -42l76 -214h1l96 265h14l92 -265h1l72 214c10 29 -2 36 -58 42v6h110v-6c-25 -3 -35 -13 -42 -36l-89 -261h-25z" />
    <glyph glyph-name="xsuperior" unicode="&#x2e3;" horiz-adv-x="339" 
d="M208 452l-55 86l-70 -93c-13 -19 -11 -36 43 -39v-6h-111v6c33 6 43 15 58 35l76 103l-72 115c-13 19 -20 29 -56 35v6h138v-6c-31 -6 -42 -15 -24 -43l52 -83l60 81c20 26 14 42 -37 45v6h108v-6c-32 -6 -41 -16 -57 -37l-70 -95l76 -120c13 -20 26 -30 57 -36v-6h-143
v6c38 6 44 20 27 46z" />
    <glyph glyph-name="ysuperior" unicode="&#x2b8;" horiz-adv-x="331" 
d="M284 658l-97 -252c-43 -111 -111 -132 -149 -132c-21 0 -30 10 -30 24c0 13 8 22 23 22c14 0 23 -8 40 -8c44 0 71 14 97 66l-120 276c-9 20 -20 39 -43 40v6h143v-6c-51 -6 -55 -19 -45 -42l88 -214h1l83 214c11 29 3 36 -58 42v6h109v-6c-24 -3 -33 -13 -42 -36z" />
    <glyph glyph-name="zsuperior" horiz-adv-x="282" 
d="M65 406h128c33 0 55 24 68 85h6l-9 -91h-243v6l190 288h-113c-33 0 -50 -30 -62 -85h-6l5 91h226v-6z" />
    <glyph glyph-name="Eng" unicode="&#x14a;" horiz-adv-x="725" 
d="M580 0l-425 650v-590c0 -45 25 -45 120 -50v-10h-235v10c85 5 105 5 105 50v580c0 45 -20 45 -105 50v10h150l390 -602v542c0 45 -25 45 -120 50v10h235v-10c-85 -5 -105 -5 -105 -50v-620c0 -150 -48 -230 -115 -230c-34 0 -45 17 -45 36c0 17 13 34 35 34
c23 0 47 -35 60 -35c14 0 55 75 55 165v10z" />
    <glyph glyph-name="eng" unicode="&#x14b;" horiz-adv-x="605" 
d="M505 360v-340c0 -150 -63 -230 -130 -230c-34 0 -45 17 -45 36c0 17 13 34 35 34c23 0 47 -35 60 -35c14 0 25 9 25 80v458c0 58 -25 112 -110 112c-63 0 -116 -42 -155 -80v-335c0 -45 10 -45 95 -50v-10h-245v10c85 5 95 5 95 50v370c0 45 -10 45 -95 50v10l140 20h10
l-5 -105h5c50 59 123 105 196 105c67 0 124 -40 124 -150z" />
    <glyph glyph-name="franc" unicode="&#x20a3;" horiz-adv-x="688" 
d="M55 402h67c30 154 151 258 298 258c93 0 162 -32 199 -55l9 -127h-10c-19 84 -86 172 -198 172c-117 0 -213 -104 -239 -248h208l-5 -10h-204c-3 -21 -5 -44 -5 -66c0 -23 2 -44 5 -65h209l-5 -10h-203c25 -146 122 -251 239 -251c130 0 185 97 203 172h10l-14 -126
c-37 -24 -106 -56 -199 -56c-148 0 -269 105 -298 261h-67v10h65c-4 21 -5 42 -5 65s2 45 5 66h-65v10z" />
    <glyph glyph-name="lira" unicode="&#x20a4;" horiz-adv-x="688" 
d="M55 402h67c30 154 151 258 298 258c93 0 162 -32 199 -55l9 -127h-10c-19 84 -86 172 -198 172c-117 0 -213 -104 -239 -248h208l-5 -10h-204c-3 -21 -5 -44 -5 -66c0 -23 2 -44 5 -65h209l-5 -10h-203c25 -146 122 -251 239 -251c130 0 185 97 203 172h10l-14 -126
c-37 -24 -106 -56 -199 -56c-148 0 -269 105 -298 261h-67v10h65c-4 21 -5 42 -5 65s2 45 5 66h-65v10z" />
    <glyph glyph-name="peseta" unicode="&#x20a7;" horiz-adv-x="688" 
d="M55 402h67c30 154 151 258 298 258c93 0 162 -32 199 -55l9 -127h-10c-19 84 -86 172 -198 172c-117 0 -213 -104 -239 -248h208l-5 -10h-204c-3 -21 -5 -44 -5 -66c0 -23 2 -44 5 -65h209l-5 -10h-203c25 -146 122 -251 239 -251c130 0 185 97 203 172h10l-14 -126
c-37 -24 -106 -56 -199 -56c-148 0 -269 105 -298 261h-67v10h65c-4 21 -5 42 -5 65s2 45 5 66h-65v10z" />
    <glyph glyph-name="colonmonetary" unicode="&#x20a1;" horiz-adv-x="628" 
d="M360 0c130 0 185 97 203 172h10l-14 -126c-37 -24 -106 -56 -199 -56c-170 0 -305 140 -305 336c0 195 135 334 305 334c93 0 162 -32 199 -55l9 -127h-10c-8 33 -23 68 -46 97l-268 -537c34 -24 74 -38 116 -38zM115 326c0 -87 24 -164 64 -222l264 527
c-24 12 -52 19 -83 19c-136 0 -245 -142 -245 -324zM187 94c14 -19 30 -36 47 -49l271 539c-15 16 -32 31 -52 42z" />
    <glyph glyph-name="rupiah" horiz-adv-x="1210" 
d="M780 440h5c39 38 104 70 164 70c130 0 206 -110 206 -260c0 -165 -110 -260 -230 -260c-37 0 -105 10 -140 40v-170c0 -45 10 -45 95 -50v-10h-245v10c85 5 95 5 95 50v140h-195c-25 23 -60 68 -75 90l-66 95c-31 45 -69 95 -109 120h-80v-245c0 -45 10 -45 95 -50v-10
h-245v10c85 5 95 5 95 50v580c0 45 -10 45 -95 50v10h279c150 0 231 -80 231 -190c0 -98 -62 -201 -261 -205c78 -29 108 -61 134 -95l92 -125c38 -52 71 -68 200 -74v419c0 45 -10 45 -95 50v10l140 20h10zM924 490c-58 0 -106 -31 -139 -60v-280c0 -115 74 -150 130 -150
c122 0 180 115 180 250c0 150 -79 240 -171 240zM320 690h-115v-375h85c165 0 215 97 215 185c0 80 -40 190 -185 190z" />
    <glyph glyph-name="zero.taboldstyle" 
d="M130 250c0 -170 72 -250 170 -250c97 0 170 80 170 250s-73 250 -170 250c-98 0 -170 -80 -170 -250zM70 250c0 160 96 260 230 260c133 0 230 -100 230 -260s-97 -260 -230 -260c-134 0 -230 100 -230 260z" />
    <glyph glyph-name="one.taboldstyle" 
d="M277 60v422l-197 -60l-3 8l245 80h10v-450c0 -45 25 -45 190 -50v-10h-435v10c165 5 190 5 190 50z" />
    <glyph glyph-name="two.taboldstyle" 
d="M295 500c-90 0 -130 -55 -130 -90c0 -25 35 -25 35 -50c0 -20 -20 -30 -35 -30c-10 0 -40 0 -40 40c0 80 80 140 185 140c90 0 180 -44 180 -155c0 -105 -90 -185 -288 -300h298v-55h-400v10c158 86 330 191 330 355c0 68 -40 135 -135 135z" />
    <glyph glyph-name="three.taboldstyle" 
d="M505 31c0 -130 -125 -191 -215 -191c-105 0 -195 60 -195 140c0 40 30 40 40 40c15 0 35 -10 35 -30c0 -25 -35 -35 -35 -60s50 -79 140 -80c95 -1 170 55 170 166c0 139 -80 174 -200 174v10c72 -5 170 25 170 155c0 70 -35 145 -125 145s-130 -55 -130 -80
s35 -35 35 -60c0 -20 -20 -30 -35 -30c-10 0 -40 0 -40 40c0 75 80 140 185 140c110 0 170 -65 170 -155c0 -85 -77 -138 -160 -158v-2c91 -12 190 -59 190 -164z" />
    <glyph glyph-name="four.taboldstyle" 
d="M430 -150h-55v150h-315v11l360 499h10v-500h110v-10h-110v-150zM375 10v422l-303 -422h303z" />
    <glyph glyph-name="five.taboldstyle" 
d="M160 500h325v-55h-317l-6 -180c274 0 343 -120 343 -220c0 -120 -83 -205 -230 -205c-120 0 -180 61 -180 125c0 35 24 55 40 55c14 0 35 -9 35 -30c0 -25 -35 -31 -35 -60c0 -47 53 -80 130 -80c109 0 180 79 180 180c0 85 -61 185 -280 185h-14z" />
    <glyph glyph-name="six.taboldstyle" 
d="M452 200c0 100 -55 190 -145 190c-55 0 -120 -30 -158 -70c-21 -184 48 -320 153 -320c86 0 150 86 150 200zM517 210c0 -134 -95 -220 -215 -220c-151 0 -219 121 -219 264c0 213 139 381 344 416l3 -7c-175 -50 -253 -173 -282 -327c61 51 118 69 174 69
c120 0 195 -85 195 -195z" />
    <glyph glyph-name="seven.taboldstyle" 
d="M507 490l-267 -640h-76l317 595h-265c-80 0 -103 -6 -113 -96h-10l5 151h409v-10z" />
    <glyph glyph-name="eight.taboldstyle" 
d="M107 490c0 110 111 170 205 170c101 0 190 -65 190 -155c0 -58 -42 -120 -129 -168c76 -36 144 -79 144 -162c0 -125 -120 -185 -225 -185c-136 0 -210 76 -210 160c0 73 45 144 152 190c-69 35 -127 77 -127 150zM132 160c0 -105 75 -160 175 -160c95 0 155 80 155 150
c0 97 -117 135 -217 184c-69 -28 -113 -93 -113 -174zM452 500c0 90 -50 150 -150 150c-90 0 -135 -75 -135 -140c0 -90 102 -125 197 -169c69 41 88 100 88 159z" />
    <glyph glyph-name="nine.taboldstyle" 
d="M148 300c0 -100 55 -190 145 -190c55 0 120 30 158 70c21 184 -48 320 -153 320c-86 0 -150 -86 -150 -200zM83 290c0 134 95 220 215 220c151 0 219 -121 219 -264c0 -213 -139 -381 -344 -416l-3 7c175 50 253 173 282 327c-61 -51 -118 -69 -174 -69
c-120 0 -195 85 -195 195z" />
    <glyph glyph-name="currency.taboldstyle" horiz-adv-x="484" 
d="M94 249c0 45 17 85 46 114l-74 90l8 8l74 -90c26 22 59 36 95 36c35 0 68 -14 93 -36l74 90l8 -8l-73 -89c29 -29 47 -70 47 -115s-18 -86 -47 -114l72 -86l-8 -9l-73 87c-25 -22 -58 -35 -93 -35c-36 0 -69 13 -95 35l-71 -87l-9 9l72 86c-29 29 -46 69 -46 114z
M106 249c0 -79 62 -145 137 -145c74 0 137 66 137 145s-63 146 -137 146c-75 0 -137 -67 -137 -146z" />
    <glyph glyph-name="cent.taboldstyle" 
d="M336 -78v68c-144 3 -257 109 -257 259c0 148 113 258 257 261v75h10v-75c76 -1 132 -25 164 -42l7 -99h-8c-16 63 -71 131 -163 134v-505c105 2 152 77 167 134h8l-11 -99c-32 -18 -88 -42 -164 -43v-68h-10zM136 249c0 -140 88 -248 200 -251v505
c-112 -3 -200 -114 -200 -254z" />
    <glyph glyph-name="dollar.taboldstyle" 
d="M459 361h-9c-20 83 -75 138 -140 142l-3 -214c77 -33 164 -66 164 -158c0 -82 -64 -138 -167 -141l-1 -70h-10l1 70c-58 1 -115 15 -158 37l-8 125h8c19 -117 97 -152 158 -154l3 237c-76 31 -158 60 -158 146c0 67 55 126 161 129l1 70h10l-1 -70c47 -1 97 -12 140 -32z
M420 118c0 60 -53 88 -113 113l-3 -233c74 2 116 61 116 120zM190 401c0 -55 50 -82 107 -108l3 210c-67 -2 -110 -50 -110 -102z" />
    <glyph glyph-name="Euro.taboldstyle" 
d="M54 307h56c25 120 129 203 256 203c79 0 137 -24 169 -42l7 -99h-8c-16 64 -73 134 -168 134c-98 0 -179 -83 -200 -196h174l-4 -7h-171c-3 -17 -4 -34 -4 -51s1 -34 4 -50h175l-4 -8h-170c21 -113 102 -193 200 -193c109 0 157 76 172 134h8l-11 -99
c-32 -18 -90 -43 -169 -43c-127 0 -231 81 -256 201h-56v8h54c-3 16 -4 33 -4 50s2 34 5 51h-55v7z" />
    <glyph glyph-name="franc.taboldstyle" 
d="M54 307h56c25 120 129 203 256 203c79 0 137 -24 169 -42l7 -99h-8c-16 64 -73 134 -168 134c-98 0 -179 -83 -200 -196h174l-4 -7h-171c-3 -17 -4 -34 -4 -51s1 -34 4 -50h175l-4 -8h-170c21 -113 102 -193 200 -193c109 0 157 76 172 134h8l-11 -99
c-32 -18 -90 -43 -169 -43c-127 0 -231 81 -256 201h-56v8h54c-3 16 -4 33 -4 50s2 34 5 51h-55v7z" />
    <glyph glyph-name="sterling.taboldstyle" 
d="M104 252h102c-26 45 -63 84 -63 133c0 67 55 125 163 125c49 0 100 -10 144 -32l8 -116h-8c-20 85 -77 141 -146 141c-67 0 -110 -49 -110 -103c0 -53 39 -95 58 -148h129v-8h-127c5 -15 8 -31 8 -48c0 -48 -24 -102 -55 -143c74 -3 153 -23 198 -23c28 0 71 10 92 86h9
c-10 -35 -28 -133 -123 -133c-66 0 -99 52 -181 64c-27 -34 -60 -57 -90 -57c-11 0 -19 8 -19 18c0 40 84 45 99 45h5c31 43 34 84 34 121c0 26 -9 48 -20 70h-107v8z" />
    <glyph glyph-name="yen.taboldstyle" 
d="M162 179h121l-152 267c-13 23 -28 43 -78 47v7h194v-7c-68 -7 -72 -21 -57 -51l142 -260h2l120 244c20 41 15 60 -68 67v7h160v-7c-43 -7 -60 -21 -74 -49l-131 -265h126v-8h-128v-129c0 -31 8 -31 73 -35v-7h-198v7c65 4 73 4 73 35v129h-125v8z" />
    <glyph glyph-name="lira.taboldstyle" 
d="M54 307h56c25 120 129 203 256 203c79 0 137 -24 169 -42l7 -99h-8c-16 64 -73 134 -168 134c-98 0 -179 -83 -200 -196h174l-4 -7h-171c-3 -17 -4 -34 -4 -51s1 -34 4 -50h175l-4 -8h-170c21 -113 102 -193 200 -193c109 0 157 76 172 134h8l-11 -99
c-32 -18 -90 -43 -169 -43c-127 0 -231 81 -256 201h-56v8h54c-3 16 -4 33 -4 50s2 34 5 51h-55v7z" />
    <glyph glyph-name="peseta.taboldstyle" 
d="M54 307h56c25 120 129 203 256 203c79 0 137 -24 169 -42l7 -99h-8c-16 64 -73 134 -168 134c-98 0 -179 -83 -200 -196h174l-4 -7h-171c-3 -17 -4 -34 -4 -51s1 -34 4 -50h175l-4 -8h-170c21 -113 102 -193 200 -193c109 0 157 76 172 134h8l-11 -99
c-32 -18 -90 -43 -169 -43c-127 0 -231 81 -256 201h-56v8h54c-3 16 -4 33 -4 50s2 34 5 51h-55v7z" />
    <glyph glyph-name="colonmonetary.taboldstyle" 
d="M341 -2c109 0 157 76 172 134h8l-11 -99c-32 -18 -90 -43 -169 -43c-146 0 -262 108 -262 259c0 150 116 261 262 261c79 0 137 -24 169 -42l7 -99h-8c-7 25 -19 51 -38 74l-235 -411c30 -22 66 -34 105 -34zM136 249c0 -64 18 -120 48 -164l229 402
c-21 10 -45 16 -72 16c-114 0 -205 -112 -205 -254zM189 78c12 -16 25 -29 40 -41l236 413c-13 13 -27 24 -44 33z" />
    <glyph glyph-name="florin.taboldstyle" 
d="M312 490l-50 -470c-16 -150 -87 -230 -154 -230c-31 0 -42 15 -42 32c0 19 16 38 39 38s46 -40 59 -40c14 0 26 39 34 110l59 560h-146l1 5l146 5l4 40c8 80 55 190 180 190c52 0 92 -28 92 -69c0 -40 -25 -51 -43 -51c-13 0 -29 5 -29 23c0 20 19 24 19 45
c0 22 -21 42 -46 42c-85 0 -110 -98 -118 -180l-4 -40h180l-2 -10h-179z" />
    <glyph glyph-name="numbersign.taboldstyle" 
d="M63 243h142v169h-142v10h142v143h10v-143h169v143h10v-143h143v-10h-143v-169h143v-10h-143v-142h-10v142h-169v-142h-10v142h-142v10zM215 412v-169h169v169h-169z" />
    <glyph glyph-name="zerosuperior" unicode="&#x2070;" horiz-adv-x="344" 
d="M30 605c0 102 53 201 142 201c88 0 142 -99 142 -201s-54 -201 -142 -201c-89 0 -142 99 -142 201zM265 605c0 119 -35 195 -93 195s-93 -76 -93 -195s35 -195 93 -195s93 76 93 195z" />
    <glyph glyph-name="foursuperior" unicode="&#x2074;" horiz-adv-x="351" 
d="M260 410h-46v111h-184v6l224 279h6v-279h61v-6h-61v-111zM214 527v221l-177 -221h177z" />
    <glyph glyph-name="fivesuperior" unicode="&#x2075;" horiz-adv-x="311" 
d="M70 800h198v-41h-194l-3 -98c171 0 210 -74 210 -132c0 -74 -52 -125 -143 -125c-70 0 -108 37 -108 76c0 22 14 35 27 35c11 0 23 -6 23 -19c0 -15 -22 -21 -22 -39c0 -28 30 -47 74 -47c63 0 101 46 101 104c0 53 -36 110 -160 110h-9z" />
    <glyph glyph-name="sixsuperior" unicode="&#x2076;" horiz-adv-x="327" 
d="M247 530c0 64 -31 114 -81 114c-29 0 -64 -16 -84 -37c-11 -111 25 -197 83 -197c47 0 82 50 82 120zM297 537c0 -82 -60 -133 -132 -133c-90 0 -135 72 -135 158c0 128 87 229 210 250l2 -4c-105 -30 -146 -109 -161 -192c35 29 70 39 100 39c73 0 116 -52 116 -118z
" />
    <glyph glyph-name="sevensuperior" unicode="&#x2077;" horiz-adv-x="311" 
d="M281 794l-152 -384h-58l193 349h-162c-46 0 -60 -5 -66 -54h-6l3 95h248v-6z" />
    <glyph glyph-name="eightsuperior" unicode="&#x2078;" horiz-adv-x="326" 
d="M44 702c0 66 66 104 126 104s116 -37 116 -92c0 -36 -27 -71 -79 -96c46 -23 89 -49 89 -102c0 -77 -72 -112 -138 -112c-84 0 -128 45 -128 94c0 43 30 86 92 111c-42 22 -78 47 -78 93zM67 504c0 -64 44 -94 98 -94c53 0 87 44 87 86c0 57 -66 80 -124 109
c-37 -16 -61 -55 -61 -101zM250 715c0 52 -29 85 -83 85c-50 0 -76 -42 -76 -80c0 -52 57 -74 110 -99c39 24 49 59 49 94z" />
    <glyph glyph-name="ninesuperior" unicode="&#x2079;" horiz-adv-x="327" 
d="M80 680c0 -64 31 -114 81 -114c29 0 64 16 84 37c11 111 -25 197 -83 197c-47 0 -82 -50 -82 -120zM30 673c0 82 60 133 132 133c90 0 135 -72 135 -158c0 -128 -87 -229 -210 -250l-2 4c105 30 145 109 161 192c-35 -29 -70 -39 -100 -39c-73 0 -116 52 -116 118z" />
    <glyph glyph-name="zeroinferior" unicode="&#x2080;" horiz-adv-x="344" 
d="M30 95c0 102 53 201 142 201c88 0 142 -99 142 -201s-54 -201 -142 -201c-89 0 -142 99 -142 201zM265 95c0 119 -35 195 -93 195s-93 -76 -93 -195s35 -195 93 -195s93 76 93 195z" />
    <glyph glyph-name="oneinferior" unicode="&#x2081;" horiz-adv-x="330" 
d="M146 -65v340l-114 -35l-2 5l155 51h6v-361c0 -26 19 -26 109 -29v-6h-264v6c91 3 110 3 110 29z" />
    <glyph glyph-name="twoinferior" unicode="&#x2082;" horiz-adv-x="306" 
d="M144 289c-51 0 -73 -32 -73 -52c0 -17 23 -18 23 -33c0 -13 -14 -19 -24 -19s-27 2 -27 25c0 48 49 86 113 86c59 0 113 -35 113 -111c0 -82 -57 -147 -195 -244h202v-41h-246v6c135 114 191 194 191 286c0 47 -23 97 -77 97z" />
    <glyph glyph-name="threeinferior" unicode="&#x2083;" horiz-adv-x="311" 
d="M281 8c0 -77 -74 -114 -133 -114c-64 0 -118 38 -118 86c0 23 17 25 27 25s23 -6 23 -19c0 -15 -21 -23 -21 -39c0 -15 27 -46 78 -47c53 0 95 32 95 100c0 82 -45 104 -112 104v6c43 -3 97 18 97 92c0 41 -20 87 -71 87s-73 -31 -73 -46c0 -17 22 -24 22 -39
c0 -13 -14 -19 -24 -19c-9 0 -26 2 -26 25c0 46 48 86 113 86c69 0 105 -39 105 -93c0 -50 -44 -84 -104 -95v-1c65 -7 122 -38 122 -99z" />
    <glyph glyph-name="fourinferior" unicode="&#x2084;" horiz-adv-x="351" 
d="M260 -100h-46v111h-184v6l224 279h6v-279h61v-6h-61v-111zM214 17v221l-177 -221h177z" />
    <glyph glyph-name="fiveinferior" unicode="&#x2085;" horiz-adv-x="311" 
d="M70 290h198v-41h-194l-3 -98c171 0 210 -74 210 -132c0 -74 -52 -125 -143 -125c-70 0 -108 37 -108 76c0 22 14 35 27 35c11 0 23 -6 23 -19c0 -15 -22 -21 -22 -39c0 -28 30 -47 74 -47c63 0 101 46 101 104c0 53 -36 110 -160 110h-9z" />
    <glyph glyph-name="sixinferior" unicode="&#x2086;" horiz-adv-x="327" 
d="M247 20c0 64 -31 114 -81 114c-29 0 -64 -16 -84 -37c-11 -111 25 -197 83 -197c47 0 82 50 82 120zM297 27c0 -82 -60 -133 -132 -133c-90 0 -135 72 -135 158c0 128 87 229 210 250l2 -4c-105 -30 -146 -109 -161 -192c35 29 70 39 100 39c73 0 116 -52 116 -118z" />
    <glyph glyph-name="seveninferior" unicode="&#x2087;" horiz-adv-x="311" 
d="M281 284l-152 -384h-58l193 349h-162c-46 0 -60 -5 -66 -54h-6l3 95h248v-6z" />
    <glyph glyph-name="eightinferior" unicode="&#x2088;" horiz-adv-x="326" 
d="M44 192c0 66 66 104 126 104s116 -37 116 -92c0 -36 -27 -71 -79 -96c46 -23 89 -49 89 -102c0 -77 -72 -112 -138 -112c-84 0 -128 45 -128 94c0 43 30 86 92 111c-42 22 -78 47 -78 93zM67 -6c0 -64 44 -94 98 -94c53 0 87 44 87 86c0 57 -66 80 -124 109
c-37 -16 -61 -55 -61 -101zM250 205c0 52 -29 85 -83 85c-50 0 -76 -42 -76 -80c0 -52 57 -74 110 -99c39 24 49 59 49 94z" />
    <glyph glyph-name="nineinferior" unicode="&#x2089;" horiz-adv-x="327" 
d="M80 170c0 -64 31 -114 81 -114c29 0 64 16 84 37c11 111 -25 197 -83 197c-47 0 -82 -50 -82 -120zM30 163c0 82 60 133 132 133c90 0 135 -72 135 -158c0 -128 -87 -229 -210 -250l-2 4c105 30 145 109 161 192c-35 -29 -70 -39 -100 -39c-73 0 -116 52 -116 118z" />
    <glyph glyph-name="zero.denominator" horiz-adv-x="344" 
d="M30 195c0 102 53 201 142 201c88 0 142 -99 142 -201s-54 -201 -142 -201c-89 0 -142 99 -142 201zM265 195c0 119 -35 195 -93 195s-93 -76 -93 -195s35 -195 93 -195s93 76 93 195z" />
    <glyph glyph-name="one.denominator" horiz-adv-x="330" 
d="M146 35v340l-114 -35l-2 5l155 51h6v-361c0 -26 19 -26 109 -29v-6h-264v6c91 3 110 3 110 29z" />
    <glyph glyph-name="two.denominator" horiz-adv-x="306" 
d="M144 389c-51 0 -73 -32 -73 -52c0 -17 23 -18 23 -33c0 -13 -14 -19 -24 -19s-27 2 -27 25c0 48 49 86 113 86c59 0 113 -35 113 -111c0 -82 -57 -147 -195 -244h202v-41h-246v6c135 114 191 194 191 286c0 47 -23 97 -77 97z" />
    <glyph glyph-name="three.denominator" horiz-adv-x="311" 
d="M281 108c0 -77 -74 -114 -133 -114c-64 0 -118 38 -118 86c0 23 17 25 27 25s23 -6 23 -19c0 -15 -21 -23 -21 -39c0 -15 27 -46 78 -47c53 0 95 32 95 100c0 82 -45 104 -112 104v6c43 -3 97 18 97 92c0 41 -20 87 -71 87s-73 -31 -73 -46c0 -17 22 -24 22 -39
c0 -13 -14 -19 -24 -19c-9 0 -26 2 -26 25c0 46 48 86 113 86c69 0 105 -39 105 -93c0 -50 -44 -84 -104 -95v-1c65 -7 122 -38 122 -99z" />
    <glyph glyph-name="four.denominator" horiz-adv-x="351" 
d="M260 0h-46v111h-184v6l224 279h6v-279h61v-6h-61v-111zM214 117v221l-177 -221h177z" />
    <glyph glyph-name="five.denominator" horiz-adv-x="311" 
d="M70 390h198v-41h-194l-3 -98c171 0 210 -74 210 -132c0 -74 -52 -125 -143 -125c-70 0 -108 37 -108 76c0 22 14 35 27 35c11 0 23 -6 23 -19c0 -15 -22 -21 -22 -39c0 -28 30 -47 74 -47c63 0 101 46 101 104c0 53 -36 110 -160 110h-9z" />
    <glyph glyph-name="six.denominator" horiz-adv-x="327" 
d="M247 120c0 64 -31 114 -81 114c-29 0 -64 -16 -84 -37c-11 -111 25 -197 83 -197c47 0 82 50 82 120zM297 127c0 -82 -60 -133 -132 -133c-90 0 -135 72 -135 158c0 128 87 229 210 250l2 -4c-105 -30 -146 -109 -161 -192c35 29 70 39 100 39c73 0 116 -52 116 -118z
" />
    <glyph glyph-name="seven.denominator" horiz-adv-x="311" 
d="M281 384l-152 -384h-58l193 349h-162c-46 0 -60 -5 -66 -54h-6l3 95h248v-6z" />
    <glyph glyph-name="eight.denominator" horiz-adv-x="326" 
d="M44 292c0 66 66 104 126 104s116 -37 116 -92c0 -36 -27 -71 -79 -96c46 -23 89 -49 89 -102c0 -77 -72 -112 -138 -112c-84 0 -128 45 -128 94c0 43 30 86 92 111c-42 22 -78 47 -78 93zM67 94c0 -64 44 -94 98 -94c53 0 87 44 87 86c0 57 -66 80 -124 109
c-37 -16 -61 -55 -61 -101zM250 305c0 52 -29 85 -83 85c-50 0 -76 -42 -76 -80c0 -52 57 -74 110 -99c39 24 49 59 49 94z" />
    <glyph glyph-name="nine.denominator" horiz-adv-x="327" 
d="M80 270c0 -64 31 -114 81 -114c29 0 64 16 84 37c11 111 -25 197 -83 197c-47 0 -82 -50 -82 -120zM30 263c0 82 60 133 132 133c90 0 135 -72 135 -158c0 -128 -87 -229 -210 -250l-2 4c105 30 145 109 161 192c-35 -29 -70 -39 -100 -39c-73 0 -116 52 -116 118z" />
    <glyph glyph-name="zero.numerator" horiz-adv-x="344" 
d="M30 505c0 102 53 201 142 201c88 0 142 -99 142 -201s-54 -201 -142 -201c-89 0 -142 99 -142 201zM265 505c0 119 -35 195 -93 195s-93 -76 -93 -195s35 -195 93 -195s93 76 93 195z" />
    <glyph glyph-name="one.numerator" horiz-adv-x="330" 
d="M146 345v340l-114 -35l-2 5l155 51h6v-361c0 -26 19 -26 109 -29v-6h-264v6c91 3 110 3 110 29z" />
    <glyph glyph-name="two.numerator" horiz-adv-x="306" 
d="M144 699c-51 0 -73 -32 -73 -52c0 -17 23 -18 23 -33c0 -13 -14 -19 -24 -19s-27 2 -27 25c0 48 49 86 113 86c59 0 113 -35 113 -111c0 -82 -57 -147 -195 -244h202v-41h-246v6c135 114 191 194 191 286c0 47 -23 97 -77 97z" />
    <glyph glyph-name="three.numerator" horiz-adv-x="311" 
d="M281 418c0 -77 -74 -114 -133 -114c-64 0 -118 38 -118 86c0 23 17 25 27 25s23 -6 23 -19c0 -15 -21 -23 -21 -39c0 -15 27 -46 78 -47c53 0 95 32 95 100c0 82 -45 104 -112 104v6c43 -3 97 18 97 92c0 41 -20 87 -71 87s-73 -31 -73 -46c0 -17 22 -24 22 -39
c0 -13 -14 -19 -24 -19c-9 0 -26 2 -26 25c0 46 48 86 113 86c69 0 105 -39 105 -93c0 -50 -44 -84 -104 -95v-1c65 -7 122 -38 122 -99z" />
    <glyph glyph-name="four.numerator" horiz-adv-x="351" 
d="M260 310h-46v111h-184v6l224 279h6v-279h61v-6h-61v-111zM214 427v221l-177 -221h177z" />
    <glyph glyph-name="five.numerator" horiz-adv-x="311" 
d="M70 700h198v-41h-194l-3 -98c171 0 210 -74 210 -132c0 -74 -52 -125 -143 -125c-70 0 -108 37 -108 76c0 22 14 35 27 35c11 0 23 -6 23 -19c0 -15 -22 -21 -22 -39c0 -28 30 -47 74 -47c63 0 101 46 101 104c0 53 -36 110 -160 110h-9z" />
    <glyph glyph-name="six.numerator" horiz-adv-x="327" 
d="M247 430c0 64 -31 114 -81 114c-29 0 -64 -16 -84 -37c-11 -111 25 -197 83 -197c47 0 82 50 82 120zM297 437c0 -82 -60 -133 -132 -133c-90 0 -135 72 -135 158c0 128 87 229 210 250l2 -4c-105 -30 -146 -109 -161 -192c35 29 70 39 100 39c73 0 116 -52 116 -118z
" />
    <glyph glyph-name="seven.numerator" horiz-adv-x="311" 
d="M281 694l-152 -384h-58l193 349h-162c-46 0 -60 -5 -66 -54h-6l3 95h248v-6z" />
    <glyph glyph-name="eight.numerator" horiz-adv-x="326" 
d="M44 602c0 66 66 104 126 104s116 -37 116 -92c0 -36 -27 -71 -79 -96c46 -23 89 -49 89 -102c0 -77 -72 -112 -138 -112c-84 0 -128 45 -128 94c0 43 30 86 92 111c-42 22 -78 47 -78 93zM67 404c0 -64 44 -94 98 -94c53 0 87 44 87 86c0 57 -66 80 -124 109
c-37 -16 -61 -55 -61 -101zM250 615c0 52 -29 85 -83 85c-50 0 -76 -42 -76 -80c0 -52 57 -74 110 -99c39 24 49 59 49 94z" />
    <glyph glyph-name="nine.numerator" horiz-adv-x="327" 
d="M80 580c0 -64 31 -114 81 -114c29 0 64 16 84 37c11 111 -25 197 -83 197c-47 0 -82 -50 -82 -120zM30 573c0 82 60 133 132 133c90 0 135 -72 135 -158c0 -128 -87 -229 -210 -250l-2 4c105 30 145 109 161 192c-35 -29 -70 -39 -100 -39c-73 0 -116 52 -116 118z" />
    <glyph glyph-name="onethird" unicode="&#x2153;" horiz-adv-x="850" 
d="M146 345v340l-114 -35l-2 5l155 51h6v-361c0 -26 19 -26 109 -29v-6h-264v6c91 3 110 3 110 29zM820 108c0 61 -57 92 -122 99v1c60 11 104 45 104 95c0 54 -36 93 -105 93c-65 0 -113 -40 -113 -86c0 -23 17 -25 26 -25c10 0 24 6 24 19c0 15 -22 22 -22 39
c0 15 22 46 73 46s71 -46 71 -87c0 -74 -54 -95 -97 -92v-6c67 0 112 -22 112 -104c0 -68 -42 -100 -95 -100c-51 1 -78 32 -78 47c0 16 21 24 21 39c0 13 -13 19 -23 19s-27 -2 -27 -25c0 -48 54 -86 118 -86c59 0 133 37 133 114zM574 710h9l-263 -720h-10z" />
    <glyph glyph-name="oneeighth" unicode="&#x215b;" horiz-adv-x="850" 
d="M568 292c0 -46 36 -71 78 -93c-62 -25 -92 -68 -92 -111c0 -49 44 -94 128 -94c66 0 138 35 138 112c0 53 -43 79 -89 102c52 25 79 60 79 96c0 55 -56 92 -116 92s-126 -38 -126 -104zM591 94c0 46 24 85 61 101c58 -29 124 -52 124 -109c0 -42 -34 -86 -87 -86
c-54 0 -98 30 -98 94zM774 305c0 -35 -10 -70 -49 -94c-53 25 -110 47 -110 99c0 38 26 80 76 80c54 0 83 -33 83 -85zM146 345v340l-114 -35l-2 5l155 51h6v-361c0 -26 19 -26 109 -29v-6h-264v6c91 3 110 3 110 29zM564 710h9l-263 -720h-10z" />
    <glyph glyph-name="twothirds" unicode="&#x2154;" horiz-adv-x="850" 
d="M144 699c-51 0 -73 -32 -73 -52c0 -17 23 -18 23 -33c0 -13 -14 -19 -24 -19s-27 2 -27 25c0 48 49 86 113 86c59 0 113 -35 113 -111c0 -82 -57 -147 -195 -244h202v-41h-246v6c135 114 191 194 191 286c0 47 -23 97 -77 97zM820 108c0 61 -57 92 -122 99v1
c60 11 104 45 104 95c0 54 -36 93 -105 93c-65 0 -113 -40 -113 -86c0 -23 17 -25 26 -25c10 0 24 6 24 19c0 15 -22 22 -22 39c0 15 22 46 73 46s71 -46 71 -87c0 -74 -54 -95 -97 -92v-6c67 0 112 -22 112 -104c0 -68 -42 -100 -95 -100c-51 1 -78 32 -78 47
c0 16 21 24 21 39c0 13 -13 19 -23 19s-27 -2 -27 -25c0 -48 54 -86 118 -86c59 0 133 37 133 114zM574 710h9l-263 -720h-10z" />
    <glyph glyph-name="threeeighths" unicode="&#x215c;" horiz-adv-x="850" 
d="M568 292c0 -46 36 -71 78 -93c-62 -25 -92 -68 -92 -111c0 -49 44 -94 128 -94c66 0 138 35 138 112c0 53 -43 79 -89 102c52 25 79 60 79 96c0 55 -56 92 -116 92s-126 -38 -126 -104zM591 94c0 46 24 85 61 101c58 -29 124 -52 124 -109c0 -42 -34 -86 -87 -86
c-54 0 -98 30 -98 94zM281 418c0 61 -57 92 -122 99v1c60 11 104 45 104 95c0 54 -36 93 -105 93c-65 0 -113 -40 -113 -86c0 -23 17 -25 26 -25c10 0 24 6 24 19c0 15 -22 22 -22 39c0 15 22 46 73 46s71 -46 71 -87c0 -74 -54 -95 -97 -92v-6c67 0 112 -22 112 -104
c0 -68 -42 -100 -95 -100c-51 1 -78 32 -78 47c0 16 21 24 21 39c0 13 -13 19 -23 19s-27 -2 -27 -25c0 -48 54 -86 118 -86c59 0 133 37 133 114zM774 305c0 -35 -10 -70 -49 -94c-53 25 -110 47 -110 99c0 38 26 80 76 80c54 0 83 -33 83 -85zM544 710h9l-263 -720h-10z
" />
    <glyph glyph-name="fiveeighths" unicode="&#x215d;" horiz-adv-x="850" 
d="M568 292c0 -46 36 -71 78 -93c-62 -25 -92 -68 -92 -111c0 -49 44 -94 128 -94c66 0 138 35 138 112c0 53 -43 79 -89 102c52 25 79 60 79 96c0 55 -56 92 -116 92s-126 -38 -126 -104zM70 700h198v-41h-194l-3 -98c171 0 210 -74 210 -132c0 -74 -52 -125 -143 -125
c-70 0 -108 37 -108 76c0 22 14 35 27 35c11 0 23 -6 23 -19c0 -15 -22 -21 -22 -39c0 -28 30 -47 74 -47c63 0 101 46 101 104c0 53 -36 110 -160 110h-9zM591 94c0 46 24 85 61 101c58 -29 124 -52 124 -109c0 -42 -34 -86 -87 -86c-54 0 -98 30 -98 94zM774 305
c0 -35 -10 -70 -49 -94c-53 25 -110 47 -110 99c0 38 26 80 76 80c54 0 83 -33 83 -85zM544 710h9l-263 -720h-10z" />
    <glyph glyph-name="seveneighths" unicode="&#x215e;" horiz-adv-x="850" 
d="M568 292c0 -46 36 -71 78 -93c-62 -25 -92 -68 -92 -111c0 -49 44 -94 128 -94c66 0 138 35 138 112c0 53 -43 79 -89 102c52 25 79 60 79 96c0 55 -56 92 -116 92s-126 -38 -126 -104zM591 94c0 46 24 85 61 101c58 -29 124 -52 124 -109c0 -42 -34 -86 -87 -86
c-54 0 -98 30 -98 94zM281 694l-152 -384h-58l193 349h-162c-46 0 -60 -5 -66 -54h-6l3 95h248v-6zM774 305c0 -35 -10 -70 -49 -94c-53 25 -110 47 -110 99c0 38 26 80 76 80c54 0 83 -33 83 -85zM504 710h9l-263 -720h-10z" />
    <glyph glyph-name="exclamdbl" unicode="&#x203c;" horiz-adv-x="510" 
d="M161 160h-10c-4 170 -31 460 -31 530c0 15 2 40 36 40s36 -25 36 -40c0 -70 -29 -360 -31 -530zM100 50c0 31 24 55 55 55s55 -24 55 -55s-24 -55 -55 -55s-55 24 -55 55zM361 160h-10c-4 170 -31 460 -31 530c0 15 2 40 36 40s36 -25 36 -40c0 -70 -29 -360 -31 -530z
M300 50c0 31 24 55 55 55s55 -24 55 -55s-24 -55 -55 -55s-55 24 -55 55z" />
    <glyph glyph-name="fraction" unicode="&#x2044;" horiz-adv-x="413" 
d="M334 710h9l-263 -720h-10z" />
    <glyph glyph-name="uni2215" unicode="&#x2215;" horiz-adv-x="413" 
d="M334 710h9l-263 -720h-10z" />
    <glyph glyph-name="uni2219" unicode="&#x2219;" horiz-adv-x="299" 
d="M100 345c0 30 21 51 49 51s50 -21 50 -51c0 -29 -22 -49 -50 -49s-49 20 -49 49z" />
    <glyph glyph-name="lessequal" unicode="&#x2264;" horiz-adv-x="560" 
d="M112 339l345 -179v-18h-354v10h347l-347 178v17l354 180v-11z" />
    <glyph glyph-name="approxequal" unicode="&#x2248;" horiz-adv-x="550" 
d="M110 344l-4 2c21 43 48 104 94 104c40 0 127 -62 166 -62c35 0 49 20 75 60l3 -2c-21 -42 -43 -94 -89 -94c-47 0 -123 62 -170 62c-36 0 -45 -26 -75 -70zM110 194l-4 2c21 43 48 104 94 104c40 0 127 -62 166 -62c35 0 49 20 75 60l3 -2c-21 -42 -43 -94 -89 -94
c-47 0 -123 62 -170 62c-36 0 -45 -26 -75 -70z" />
    <glyph glyph-name="notequal" unicode="&#x2260;" horiz-adv-x="560" 
d="M103 262h151l38 130h-189v10h192l57 192h9l-57 -192h153v-10h-156l-38 -130h194v-10h-197l-57 -193h-9l57 193h-148v10z" />
    <glyph glyph-name="estimated" unicode="&#x212e;" horiz-adv-x="695" 
d="M666 349h-498v-235c51 -52 111 -78 179 -78c102 0 183 53 238 157l44 -26c-81 -123 -152 -177 -282 -177c-191 0 -319 156 -319 359c0 207 131 361 319 361c172 0 311 -123 319 -361zM168 397h359v189c-51 51 -112 77 -181 77c-70 0 -129 -26 -178 -77v-189z" />
    <glyph glyph-name="partialdiff" unicode="&#x2202;" horiz-adv-x="553" 
d="M107 155c0 -85 47 -155 118 -155c119 0 245 181 226 420c-29 7 -81 12 -113 12c-122 0 -231 -115 -231 -277zM317 690c-77 0 -120 -55 -125 -80c-5 -22 35 -35 35 -54c0 -24 -25 -36 -43 -36c-8 0 -33 0 -33 29c0 80 86 151 169 151c134 0 188 -134 188 -322
c0 -217 -100 -388 -289 -388c-103 0 -174 68 -174 176c0 190 165 279 295 279c38 0 81 -6 111 -18c-4 101 -23 263 -134 263z" />
    <glyph glyph-name="greaterequal" unicode="&#x2265;" horiz-adv-x="560" 
d="M103 160l345 179l-345 177v11l354 -180v-17l-347 -178h347v-10h-354v18z" />
    <glyph glyph-name="percent.oldstyle" horiz-adv-x="638" 
d="M454 500h9l-276 -500h-10zM346 112c1 66 51 119 124 119c68 0 119 -53 117 -119c-3 -67 -52 -120 -125 -120c-68 0 -118 53 -116 120zM382 112c0 -70 33 -116 84 -116s83 46 83 116c0 69 -32 115 -83 115s-84 -46 -84 -115zM51 387c2 67 51 120 124 120
c68 0 119 -53 117 -120c-2 -66 -51 -119 -125 -119c-67 0 -117 53 -116 119zM88 387c0 -69 33 -115 83 -115c51 0 83 46 83 115c0 70 -32 116 -83 116c-50 0 -83 -46 -83 -116z" />
    <glyph glyph-name="perthousand.oldstyle" horiz-adv-x="918" 
d="M454 500h9l-276 -500h-10zM346 112c1 66 51 119 124 119c68 0 119 -53 117 -119c-3 -67 -52 -120 -125 -120c-68 0 -118 53 -116 120zM382 112c0 -70 33 -116 84 -116s83 46 83 116c0 69 -32 115 -83 115s-84 -46 -84 -115zM51 387c2 67 51 120 124 120
c68 0 119 -53 117 -120c-2 -66 -51 -119 -125 -119c-67 0 -117 53 -116 119zM88 387c0 -69 33 -115 83 -115c51 0 83 46 83 115c0 70 -32 116 -83 116c-50 0 -83 -46 -83 -116zM626 112c1 66 51 119 124 119c68 0 119 -53 117 -119c-3 -67 -52 -120 -125 -120
c-68 0 -118 53 -116 120zM662 112c0 -70 33 -116 84 -116s83 46 83 116c0 69 -32 115 -83 115s-84 -46 -84 -115z" />
    <glyph glyph-name="figuredash" unicode="&#x2012;" horiz-adv-x="534" 
d="M60 273h414v-10h-414v10z" />
    <glyph glyph-name="threequartersemdash" horiz-adv-x="634" 
d="M60 273h514v-10h-514v10z" />
    <glyph glyph-name="minus" unicode="&#x2212;" horiz-adv-x="560" 
d="M103 330h354v-10h-354v10z" />
    <glyph glyph-name="overscore" horiz-adv-x="475" 
d="M100 567h275v-10h-275v10z" />
    <glyph glyph-name="uni03BC" unicode="&#x3bc;" horiz-adv-x="605" 
d="M440 105v325c0 45 -10 45 -115 50v10l160 20h10v-440c0 -45 10 -45 95 -50v-10l-135 -20h-10v105h-5c-50 -59 -123 -105 -196 -105c-28 0 -53 7 -74 22c-2 -145 -59 -222 -125 -222c-34 0 -45 17 -45 36c0 17 13 34 35 34c23 0 47 -35 60 -35c14 0 25 9 25 80v525
c0 45 -10 45 -95 50v10l140 20h10v-388c0 -58 30 -97 90 -97c70 0 135 40 175 80z" />
    <glyph glyph-name="onedotenleader" unicode="&#x2024;" horiz-adv-x="290" 
d="M90 50c0 31 24 55 55 55s55 -24 55 -55s-24 -55 -55 -55s-55 24 -55 55z" />
    <glyph glyph-name="twodotenleader" unicode="&#x2025;" horiz-adv-x="460" 
d="M90 50c0 31 24 55 55 55s55 -24 55 -55s-24 -55 -55 -55s-55 24 -55 55zM260 50c0 31 24 55 55 55s55 -24 55 -55s-24 -55 -55 -55s-55 24 -55 55z" />
    <glyph glyph-name="afii61352" unicode="&#x2116;" horiz-adv-x="1040" 
d="M590 -5h-10l-425 655v-590c0 -45 25 -45 120 -50v-10h-235v10c85 5 105 5 105 50v580c0 45 -20 45 -105 50v10h150l390 -602v542c0 45 -25 45 -120 50v10h235v-10c-85 -5 -105 -5 -105 -50v-645zM690 343h310v-10h-310v10zM847 394c-86 0 -141 69 -141 156
s55 156 141 156s141 -69 141 -156s-55 -156 -141 -156zM847 700c-58 0 -93 -57 -93 -150s35 -150 93 -150c57 0 93 57 93 150s-36 150 -93 150z" />
    <glyph glyph-name="product" unicode="&#x220f;" horiz-adv-x="735" 
d="M540 690h-345v-890c0 -45 10 -45 95 -50v-10h-245v10c85 5 95 5 95 50v840c0 45 -10 45 -95 50v10h645v-10c-85 -5 -95 -5 -95 -50v-840c0 -45 10 -45 95 -50v-10h-245v10c85 5 95 5 95 50v890z" />
    <glyph glyph-name="summation" unicode="&#x2211;" horiz-adv-x="570" 
d="M510 700l5 -160h-10c-20 87 -54 150 -135 150h-256l208 -340l-208 -340h246c81 0 135 50 155 150h10l-10 -160h-470v10l213 340l-213 340v10h465z" />
    <glyph glyph-name="radical" unicode="&#x221a;" horiz-adv-x="760" 
d="M804 900h856v-10h-849l-366 -990h-45l-167 510h-173v10h269l132 -444z" />
    <glyph glyph-name="infinity" unicode="&#x221e;" horiz-adv-x="961" 
d="M261 190c-119 0 -161 70 -161 155s42 155 161 155c97 0 163 -68 224 -139c58 71 120 139 215 139c119 0 161 -70 161 -155s-42 -155 -161 -155c-95 0 -157 67 -215 138c-61 -71 -127 -138 -224 -138zM261 490c-106 0 -151 -64 -151 -145s45 -145 151 -145
c91 0 150 71 210 145c-60 73 -119 145 -210 145zM700 490c-82 0 -140 -72 -201 -145c61 -73 119 -145 201 -145c106 0 151 64 151 145s-45 145 -151 145z" />
    <glyph glyph-name="integral" unicode="&#x222b;" horiz-adv-x="340" 
d="M242 540l-55 -520c-16 -150 -87 -230 -154 -230c-31 0 -42 15 -42 32c0 19 16 38 39 38s46 -40 59 -40c14 0 26 39 34 110l64 610c8 80 55 190 180 190c52 0 92 -28 92 -69c0 -40 -25 -51 -43 -51c-13 0 -29 5 -29 23c0 20 19 24 19 45c0 22 -21 42 -46 42
c-85 0 -109 -98 -118 -180z" />
    <glyph glyph-name="lozenge" unicode="&#x25ca;" horiz-adv-x="612" 
d="M295 -30l-195 374l195 374h22l195 -374l-195 -374h-22zM115 344l191 -367l190 367l-190 367z" />
    <glyph glyph-name="uni037E" unicode="&#x37e;" horiz-adv-x="299" 
d="M100 345c0 30 21 51 49 51s50 -21 50 -51c0 -29 -22 -49 -50 -49s-49 20 -49 49z" />
    <glyph glyph-name="litre" unicode="&#x2113;" horiz-adv-x="424" 
d="M40 156l-12 11l89 99v243c0 67 12 118 38 151c25 32 56 50 94 50c56 0 91 -39 91 -99c0 -34 -10 -71 -29 -112s-60 -100 -122 -176v-168c0 -51 7 -86 21 -106c15 -20 34 -29 57 -29c21 0 42 9 61 29c19 19 36 53 51 103h16c-13 -55 -33 -97 -64 -127
c-22 -23 -51 -35 -84 -35c-54 0 -101 35 -119 90c-7 21 -11 56 -11 107v52zM189 543v-193c84 103 126 183 126 242c0 57 -28 89 -63 89c-18 0 -33 -9 -45 -28c-13 -19 -18 -55 -18 -110z" />
    <glyph glyph-name="Delta" unicode="&#x394;" horiz-adv-x="694" 
d="M94 10h450l-222 637h-2zM614 0h-534l250 705h29z" />
    <glyph glyph-name="Delta" unicode="&#x2206;" horiz-adv-x="694" 
d="M94 10h450l-222 637h-2zM614 0h-534l250 705h29z" />
    <glyph glyph-name="Omega" unicode="&#x3a9;" horiz-adv-x="780" 
d="M390 700c-142 0 -250 -114 -250 -290c0 -143 72 -244 184 -272v-138h-259l-10 160h10c10 -81 68 -101 143 -101h106v73c-136 29 -239 128 -239 278c0 180 127 300 315 300s315 -120 315 -300c0 -150 -103 -249 -239 -278v-73h106c75 0 133 20 143 101h10l-10 -160h-259
v138c112 28 184 129 184 272c0 176 -108 290 -250 290z" />
    <glyph glyph-name="Omega" unicode="&#x2126;" horiz-adv-x="780" 
d="M390 700c-142 0 -250 -114 -250 -290c0 -143 72 -244 184 -272v-138h-259l-10 160h10c10 -81 68 -101 143 -101h106v73c-136 29 -239 128 -239 278c0 180 127 300 315 300s315 -120 315 -300c0 -150 -103 -249 -239 -278v-73h106c75 0 133 20 143 101h10l-10 -160h-259
v138c112 28 184 129 184 272c0 176 -108 290 -250 290z" />
    <glyph glyph-name="pi" unicode="&#x3c0;" horiz-adv-x="620" 
d="M455 490h-270v-430c0 -45 10 -45 95 -50v-10h-245v10c85 5 95 5 95 50v380c0 45 -10 45 -95 50v10h570v-10c-85 -5 -95 -5 -95 -50v-380c0 -45 10 -45 95 -50v-10h-245v10c85 5 95 5 95 50v430z" />
    <glyph glyph-name="uni0259" unicode="&#x259;" horiz-adv-x="495" 
d="M210 -10c-77 0 -165 37 -165 152c0 18 4 44 10 60h338c1 9 2 18 2 28c0 153 -83 250 -200 250c-66 0 -106 -25 -136 -47l-4 7c21 19 79 70 165 70c150 0 230 -120 230 -255c0 -170 -115 -265 -240 -265zM215 0c85 0 163 81 177 192h-276c-5 -20 -6 -58 -6 -74
c2 -78 35 -118 105 -118z" />
    <glyph glyph-name="uni018F" unicode="&#x18f;" horiz-adv-x="665" 
d="M279 -10c-103 0 -224 51 -224 209c0 26 6 62 14 84h480c1 12 2 24 2 37c0 218 -121 354 -289 354c-94 0 -147 -36 -187 -65l-4 7c29 27 110 94 222 94c206 0 317 -167 317 -355c0 -237 -157 -365 -331 -365zM286 0c140 0 244 120 262 273h-402c-11 -39 -13 -80 -13 -104
c3 -101 65 -169 153 -169z" />
    <glyph glyph-name="Germandbls" horiz-adv-x="635" 
d="M475 600c0 -82 -119 -134 -119 -187c0 -90 234 -131 234 -276c0 -95 -75 -147 -165 -147c-45 0 -80 10 -127 35l-13 135h10c24 -120 74 -160 131 -160c69 0 109 60 109 118c0 147 -210 147 -210 250c0 67 100 127 100 232c0 60 -36 100 -85 100c-86 0 -145 -73 -145 -210
v-490h-150v10c85 5 95 5 95 50v410h-95v5l95 5v10c0 102 85 220 205 220c75 0 130 -45 130 -110z" />
    <glyph glyph-name="Dotlessi" horiz-adv-x="335" 
d="M140 60v580c0 45 -10 45 -95 50v10h245v-10c-85 -5 -95 -5 -95 -50v-580c0 -45 10 -45 95 -50v-10h-245v10c85 5 95 5 95 50z" />
    <glyph glyph-name="Dotlessj" horiz-adv-x="365" 
d="M180 175v465c0 45 -10 45 -95 50v10h245v-10c-85 -5 -95 -5 -95 -50v-440c0 -135 -95 -210 -172 -210c-38 0 -53 15 -53 35s15 30 40 30c22 0 35 -35 70 -35c46 0 60 60 60 155z" />
    <glyph glyph-name="AT" horiz-adv-x="850" 
d="M494 272l46 232c-18 20 -47 33 -75 33c-100 0 -142 -154 -142 -246c0 -64 15 -131 60 -131c44 0 98 46 111 112zM561 506l36 29h5l-52 -278c-8 -42 -17 -94 39 -94c59 0 151 107 151 258c0 184 -133 278 -280 278c-177 0 -332 -189 -332 -384c0 -189 116 -306 292 -306
c81 0 181 28 247 81l4 -6c-72 -60 -169 -95 -272 -95c-197 0 -319 136 -319 324c0 226 183 396 382 396c168 0 308 -97 308 -284c0 -165 -104 -273 -200 -273c-54 0 -77 35 -80 74c-31 -54 -81 -76 -121 -76c-75 0 -111 64 -111 136c0 119 85 260 202 260
c33 0 72 -11 101 -40z" />
    <glyph glyph-name="Ampersand" horiz-adv-x="728" 
d="M132 195c0 -105 43 -185 146 -185c46 0 131 27 180 86l-228 273c-53 -35 -98 -111 -98 -174zM413 577c0 69 -32 123 -112 123c-79 0 -112 -65 -112 -109c0 -73 28 -118 85 -190c108 57 139 124 139 176zM539 0l-74 88c-80 -83 -162 -98 -210 -98c-111 0 -185 70 -185 179
c0 105 90 160 154 209c-53 63 -93 119 -93 182c0 90 76 150 166 150c88 0 146 -47 146 -131c0 -56 -53 -125 -163 -185l212 -255c23 34 65 104 86 164c19 52 -24 77 -104 87v10h214v-10c-80 -10 -76 -35 -97 -87c-30 -74 -62 -128 -92 -170l61 -66c31 -36 52 -52 93 -57v-10
h-114z" />
    <glyph glyph-name="Asciicircum" horiz-adv-x="458" 
d="M229 841l-127 -101h-2l124 180h9l125 -180h-2z" />
    <glyph glyph-name="Commaaccent" horiz-adv-x="320" 
d="M155 -30c50 0 65 -41 65 -80c0 -48 -28 -91 -91 -125l-4 7c41 23 60 44 60 62c0 6 1 26 -30 26c-34 0 -55 27 -55 55c0 33 27 55 55 55z" />
    <glyph glyph-name="uni02C9.uc" horiz-adv-x="504" 
d="M100 782h304v-10h-304v10z" />
    <glyph glyph-name="Asciitilde" horiz-adv-x="538" 
d="M104 764l-4 2c19 39 49 107 91 107c36 0 131 -42 175 -42c21 0 43 10 66 45l5 -4c-19 -38 -50 -96 -92 -96s-127 40 -169 40c-28 0 -45 -14 -72 -52z" />
    <glyph glyph-name="Undercommaaccent" horiz-adv-x="320" 
d="M155 -30c50 0 65 -41 65 -80c0 -48 -28 -91 -91 -125l-4 7c41 23 60 44 60 62c0 6 1 26 -30 26c-34 0 -55 27 -55 55c0 33 27 55 55 55z" />
    <glyph glyph-name="idotaccent" horiz-adv-x="295" 
d="M105 629c0 27 22 49 50 49s50 -22 50 -49c0 -28 -22 -49 -50 -49s-50 21 -50 49zM185 510v-450c0 -45 10 -45 95 -50v-10h-245v10c85 5 95 5 95 50v370c0 45 -10 45 -95 50v10l140 20h10z" />
    <glyph glyph-name="egravesuperior" horiz-adv-x="299" 
d="M172 706c48 0 102 -23 102 -93c0 -11 -2 -26 -6 -36h-198v-15c0 -93 50 -147 116 -147c38 0 63 14 80 28l3 -5c-12 -11 -47 -44 -103 -44c-92 0 -141 72 -141 153c0 102 72 159 147 159zM169 700c-49 0 -91 -48 -98 -117h152c3 14 4 38 4 47c-1 48 -21 70 -58 70z
M179 734l-81 61c-9 6 -12 13 -12 20c0 12 12 22 24 21c6 0 14 -5 18 -12l53 -89z" />
    <glyph glyph-name="hsuperior" unicode="&#x2b0;" horiz-adv-x="373" 
d="M20 400v6c48 3 53 3 53 29v355c0 26 -5 27 -53 30v6l92 12h6l-3 -195h3c30 35 72 63 116 63c41 0 76 -24 76 -90v-181c0 -26 5 -26 53 -29v-6h-140v6c36 3 42 3 42 29v183c0 34 -15 64 -61 64c-35 0 -64 -24 -86 -45v-202c0 -26 6 -26 53 -29v-6h-151z" />
    <glyph glyph-name="uaccutesuperior" horiz-adv-x="368" 
d="M260 463v195c0 26 -6 27 -65 30v6l103 12h7v-264c0 -26 5 -27 53 -30v-6l-89 -12h-6v63h-3c-30 -35 -72 -63 -116 -63c-41 0 -76 24 -76 90v174c0 26 -5 27 -53 30v6l91 12h7v-232c0 -33 17 -55 50 -55c40 0 75 22 97 44zM249 795l-81 -61l-2 1l53 89c4 7 12 12 18 12
c12 1 24 -9 24 -21c0 -7 -3 -14 -12 -20z" />
    <glyph glyph-name="Periodcentered" horiz-adv-x="356" 
d="M124 338c0 31 24 55 55 55s55 -24 55 -55s-24 -55 -55 -55s-55 24 -55 55z" />
    <glyph glyph-name="Hyphen" horiz-adv-x="434" 
d="M60 363h314v-10h-314v10z" />
    <glyph glyph-name="Endash" horiz-adv-x="534" 
d="M60 363h414v-10h-414v10z" />
    <glyph glyph-name="Emdash" horiz-adv-x="634" 
d="M60 363h514v-10h-514v10z" />
    <glyph glyph-name="Questiondown" horiz-adv-x="485" 
d="M275 0c90 0 130 55 130 80c0 35 -35 35 -35 60c0 20 20 30 35 30c10 0 40 0 40 -40c0 -80 -80 -140 -185 -140c-90 0 -180 55 -180 175c0 125 137 207 205 235l-8 160h14l8 -163c-77 -37 -159 -115 -159 -232c0 -80 40 -165 135 -165zM335 670c0 -31 -24 -55 -55 -55
s-55 24 -55 55s24 55 55 55s55 -24 55 -55z" />
    <glyph glyph-name="Exclamdown" horiz-adv-x="310" 
d="M151 560h10c2 -170 31 -460 31 -530c0 -15 -2 -40 -36 -40s-36 25 -36 40c0 70 27 360 31 530zM100 670c0 31 24 55 55 55s55 -24 55 -55s-24 -55 -55 -55s-55 24 -55 55z" />
    <glyph glyph-name="Guilsinglleft" horiz-adv-x="474" 
d="M374 535l-183 -176l183 -179v-11l-274 181v17l274 180v-12z" />
    <glyph glyph-name="Guilsinglright" horiz-adv-x="474" 
d="M283 359l-183 176v12l274 -180v-17l-274 -181v11z" />
    <glyph glyph-name="Guillemotleft" horiz-adv-x="724" 
d="M374 535l-183 -176l183 -179v-11l-274 181v17l274 180v-12zM624 535l-183 -176l183 -179v-11l-274 181v17l274 180v-12z" />
    <glyph glyph-name="Guillemotright" horiz-adv-x="724" 
d="M533 359l-183 176v12l274 -180v-17l-274 -181v11zM283 359l-183 176v12l274 -180v-17l-274 -181v11z" />
    <glyph glyph-name="Parenleft" horiz-adv-x="334" 
d="M110 340c0 185 73 350 180 460h4c-95 -135 -124 -283 -124 -460s29 -325 124 -460h-4c-107 110 -180 275 -180 460z" />
    <glyph glyph-name="Parenright" horiz-adv-x="334" 
d="M224 340c0 -185 -73 -350 -180 -460h-4c95 135 124 283 124 460s-29 325 -124 460h4c107 -110 180 -275 180 -460z" />
    <glyph glyph-name="Bracketleft" horiz-adv-x="320" 
d="M300 -89v-11h-200v900h200v-11h-150v-878h150z" />
    <glyph glyph-name="Bracketright" horiz-adv-x="320" 
d="M20 789v11h200v-900h-200v11h150v878h-150z" />
    <glyph glyph-name="Braceleft" horiz-adv-x="364" 
d="M61 351c59 -19 151 -46 151 -129c0 -58 -13 -157 -13 -195c0 -95 64 -115 145 -117v-10c-133 0 -216 43 -216 139c0 69 24 121 24 192c0 77 -51 110 -132 118v3c81 8 132 41 132 118c0 71 -24 122 -24 191c0 96 83 139 216 139v-10c-81 -2 -145 -25 -145 -117
c0 -38 13 -136 13 -194c0 -83 -92 -109 -151 -128z" />
    <glyph glyph-name="Braceright" horiz-adv-x="364" 
d="M303 351c-59 19 -151 45 -151 128c0 58 13 156 13 194c0 92 -64 115 -145 117v10c133 0 216 -43 216 -139c0 -69 -24 -120 -24 -191c0 -77 51 -110 132 -118v-3c-81 -8 -132 -41 -132 -118c0 -71 24 -123 24 -192c0 -96 -83 -139 -216 -139v10c81 2 145 22 145 117
c0 38 -13 137 -13 195c0 83 92 110 151 129z" />
    <glyph glyph-name="zeroslash" horiz-adv-x="590" 
d="M65 325c0 170 85 335 230 335s230 -165 230 -335s-85 -335 -230 -335s-230 165 -230 335zM465 325c0 122 -24 216 -67 271l-205 -544c27 -34 62 -52 102 -52c105 0 170 125 170 325zM295 650c-105 0 -170 -125 -170 -325c0 -117 22 -208 61 -264l204 544
c-26 29 -58 45 -95 45z" />
    <glyph glyph-name="zero.tab" 
d="M70 325c0 170 85 335 230 335s230 -165 230 -335s-85 -335 -230 -335s-230 165 -230 335zM470 325c0 200 -65 325 -170 325s-170 -125 -170 -325s65 -325 170 -325s170 125 170 325z" />
    <glyph glyph-name="zeroslash.tab" 
d="M70 325c0 170 85 335 230 335s230 -165 230 -335s-85 -335 -230 -335s-230 165 -230 335zM470 325c0 122 -24 216 -67 271l-205 -544c27 -34 62 -52 102 -52c105 0 170 125 170 325zM300 650c-105 0 -170 -125 -170 -325c0 -117 22 -208 61 -264l204 544
c-26 29 -58 45 -95 45z" />
    <glyph glyph-name="zeroslash.taboldstyle" 
d="M70 250c0 160 96 260 230 260c133 0 230 -100 230 -260s-97 -260 -230 -260c-134 0 -230 100 -230 260zM130 250c0 -114 32 -187 83 -223l168 450c-24 15 -52 23 -81 23c-98 0 -170 -80 -170 -250zM300 0c97 0 170 80 170 250c0 111 -31 184 -80 221l-169 -450
c23 -14 50 -21 79 -21z" />
    <glyph glyph-name="one.tab" 
d="M277 60v572l-197 -60l-3 8l245 80h10v-600c0 -45 35 -45 190 -50v-10h-435v10c155 5 190 5 190 50z" />
    <glyph glyph-name="two.tab" 
d="M295 650c-90 0 -130 -55 -130 -90c0 -25 35 -25 35 -50c0 -20 -20 -30 -35 -30c-10 0 -40 0 -40 40c0 80 80 140 185 140c90 0 180 -55 180 -185c0 -140 -93 -250 -323 -420h333v-55h-400v10c230 180 330 320 330 475c0 80 -40 165 -135 165z" />
    <glyph glyph-name="three.tab" 
d="M505 181c0 -130 -125 -191 -215 -191c-105 0 -195 60 -195 140c0 40 30 40 40 40c15 0 35 -10 35 -30c0 -25 -35 -35 -35 -60s50 -79 140 -80c95 -1 170 55 170 166c0 139 -80 174 -200 174v10c72 -5 170 25 170 155c0 70 -35 145 -125 145s-130 -55 -130 -80
s35 -35 35 -60c0 -20 -20 -30 -35 -30c-10 0 -40 0 -40 40c0 75 80 140 185 140c110 0 170 -65 170 -155c0 -85 -77 -138 -160 -158v-2c91 -12 190 -59 190 -164z" />
    <glyph glyph-name="four.tab" 
d="M430 0h-55v189h-315v11l360 460h10v-461h110v-10h-110v-189zM375 199v386l-303 -386h303z" />
    <glyph glyph-name="five.tab" 
d="M160 650h325v-55h-317l-6 -180c274 0 343 -120 343 -220c0 -120 -83 -205 -230 -205c-120 0 -180 61 -180 125c0 35 24 55 40 55c14 0 35 -9 35 -30c0 -25 -35 -31 -35 -60c0 -47 53 -80 130 -80c109 0 180 79 180 180c0 85 -61 185 -280 185h-14z" />
    <glyph glyph-name="six.tab" 
d="M452 200c0 100 -55 190 -145 190c-55 0 -120 -30 -158 -70c-21 -184 48 -320 153 -320c86 0 150 86 150 200zM517 210c0 -134 -95 -220 -215 -220c-151 0 -219 121 -219 264c0 213 139 381 344 416l3 -7c-175 -50 -253 -173 -282 -327c61 51 118 69 174 69
c120 0 195 -85 195 -195z" />
    <glyph glyph-name="seven.tab" 
d="M507 640l-267 -640h-76l317 595h-265c-80 0 -103 -6 -113 -96h-10l5 151h409v-10z" />
    <glyph glyph-name="eight.tab" 
d="M107 490c0 110 111 170 205 170c101 0 190 -65 190 -155c0 -58 -42 -120 -129 -168c76 -36 144 -79 144 -162c0 -125 -120 -185 -225 -185c-136 0 -210 76 -210 160c0 73 45 144 152 190c-69 35 -127 77 -127 150zM132 160c0 -105 75 -160 175 -160c95 0 155 80 155 150
c0 97 -117 135 -217 184c-69 -28 -113 -93 -113 -174zM452 500c0 90 -50 150 -150 150c-90 0 -135 -75 -135 -140c0 -90 102 -125 197 -169c69 41 88 100 88 159z" />
    <glyph glyph-name="nine.tab" 
d="M148 450c0 -100 55 -190 145 -190c55 0 120 30 158 70c21 184 -48 320 -153 320c-86 0 -150 -86 -150 -200zM83 440c0 134 95 220 215 220c151 0 219 -121 219 -264c0 -213 -139 -381 -344 -416l-3 7c175 50 253 173 282 327c-61 -51 -118 -69 -174 -69
c-120 0 -195 85 -195 195z" />
    <glyph glyph-name="zero.oldstyle" horiz-adv-x="590" 
d="M125 250c0 -170 72 -250 170 -250c97 0 170 80 170 250s-73 250 -170 250c-98 0 -170 -80 -170 -250zM65 250c0 160 96 260 230 260c133 0 230 -100 230 -260s-97 -260 -230 -260c-134 0 -230 100 -230 260z" />
    <glyph glyph-name="zeroslash.oldstyle" horiz-adv-x="590" 
d="M65 250c0 160 96 260 230 260c133 0 230 -100 230 -260s-97 -260 -230 -260c-134 0 -230 100 -230 260zM125 250c0 -114 32 -187 83 -223l168 450c-24 15 -52 23 -81 23c-98 0 -170 -80 -170 -250zM295 0c97 0 170 80 170 250c0 111 -31 184 -80 221l-169 -450
c23 -14 50 -21 79 -21z" />
    <glyph glyph-name="one.oldstyle" horiz-adv-x="410" 
d="M195 60v422l-147 -60l-3 8l195 80h10v-450c0 -45 55 -45 140 -50v-10h-335v10c85 5 140 5 140 50z" />
    <glyph glyph-name="two.oldstyle" horiz-adv-x="495" 
d="M235 500c-90 0 -130 -55 -130 -90c0 -25 35 -25 35 -50c0 -20 -20 -30 -35 -30c-10 0 -40 0 -40 40c0 80 80 140 185 140c90 0 180 -44 180 -155c0 -105 -90 -185 -288 -300h298v-55h-400v10c158 86 330 191 330 355c0 68 -40 135 -135 135z" />
    <glyph glyph-name="three.oldstyle" horiz-adv-x="535" 
d="M465 31c0 -130 -125 -191 -215 -191c-105 0 -195 60 -195 140c0 40 30 40 40 40c15 0 35 -10 35 -30c0 -25 -35 -35 -35 -60s50 -79 140 -80c95 -1 170 55 170 166c0 139 -80 174 -200 174v10c72 -5 170 25 170 155c0 70 -35 145 -125 145s-130 -55 -130 -80
s35 -35 35 -60c0 -20 -20 -30 -35 -30c-10 0 -40 0 -40 40c0 75 80 140 185 140c110 0 170 -65 170 -155c0 -85 -77 -138 -160 -158v-2c91 -12 190 -59 190 -164z" />
    <glyph glyph-name="four.oldstyle" horiz-adv-x="540" 
d="M400 -150h-55v150h-315v11l360 499h10v-500h110v-10h-110v-150zM345 10v422l-303 -422h303z" />
    <glyph glyph-name="five.oldstyle" horiz-adv-x="535" 
d="M120 500h325v-55h-317l-6 -180c274 0 343 -120 343 -220c0 -120 -83 -205 -230 -205c-120 0 -180 61 -180 125c0 35 24 55 40 55c14 0 35 -9 35 -30c0 -25 -35 -31 -35 -60c0 -47 53 -80 130 -80c109 0 180 79 180 180c0 85 -61 185 -280 185h-14z" />
    <glyph glyph-name="six.oldstyle" horiz-adv-x="564" 
d="M434 200c0 100 -55 190 -145 190c-55 0 -120 -30 -158 -70c-21 -184 48 -320 153 -320c86 0 150 86 150 200zM499 210c0 -134 -95 -220 -215 -220c-151 0 -219 121 -219 264c0 213 139 381 344 416l3 -7c-175 -50 -253 -173 -282 -327c61 51 118 69 174 69
c120 0 195 -85 195 -195z" />
    <glyph glyph-name="seven.oldstyle" horiz-adv-x="484" 
d="M454 490l-267 -640h-76l317 595h-265c-80 0 -103 -6 -113 -96h-10l5 151h409v-10z" />
    <glyph glyph-name="eight.oldstyle" horiz-adv-x="545" 
d="M80 490c0 110 111 170 205 170c101 0 190 -65 190 -155c0 -58 -42 -120 -129 -168c76 -36 144 -79 144 -162c0 -125 -120 -185 -225 -185c-136 0 -210 76 -210 160c0 73 45 144 152 190c-69 35 -127 77 -127 150zM105 160c0 -105 75 -160 175 -160c95 0 155 80 155 150
c0 97 -117 135 -217 184c-69 -28 -113 -93 -113 -174zM425 500c0 90 -50 150 -150 150c-90 0 -135 -75 -135 -140c0 -90 102 -125 197 -169c69 41 88 100 88 159z" />
    <glyph glyph-name="nine.oldstyle" horiz-adv-x="564" 
d="M130 300c0 -100 55 -190 145 -190c55 0 120 30 158 70c21 184 -48 320 -153 320c-86 0 -150 -86 -150 -200zM65 290c0 134 95 220 215 220c151 0 219 -121 219 -264c0 -213 -139 -381 -344 -416l-3 7c175 50 253 173 282 327c-61 -51 -118 -69 -174 -69
c-120 0 -195 85 -195 195z" />
    <glyph glyph-name="currency.oldstyle" horiz-adv-x="552" 
d="M128 249c0 45 17 85 46 114l-74 90l8 8l74 -90c26 22 59 36 95 36c35 0 68 -14 93 -36l74 90l8 -8l-73 -89c29 -29 47 -70 47 -115s-18 -86 -47 -114l72 -86l-8 -9l-73 87c-25 -22 -58 -35 -93 -35c-36 0 -69 13 -95 35l-71 -87l-9 9l72 86c-29 29 -46 69 -46 114z
M140 249c0 -79 62 -145 137 -145c74 0 137 66 137 145s-63 146 -137 146c-75 0 -137 -67 -137 -146z" />
    <glyph glyph-name="dollar.oldstyle" horiz-adv-x="473" 
d="M396 361h-9c-20 83 -75 138 -140 142l-3 -214c77 -33 164 -66 164 -158c0 -82 -64 -138 -167 -141l-1 -70h-10l1 70c-58 1 -115 15 -158 37l-8 125h8c19 -117 97 -152 158 -154l3 237c-76 31 -158 60 -158 146c0 67 55 126 161 129l1 70h10l-1 -70c47 -1 97 -12 140 -32z
M357 118c0 60 -53 88 -113 113l-3 -233c74 2 116 61 116 120zM127 401c0 -55 50 -82 107 -108l3 210c-67 -2 -110 -50 -110 -102z" />
    <glyph glyph-name="cent.oldstyle" horiz-adv-x="572" 
d="M322 -78v68c-144 3 -257 109 -257 259c0 148 113 258 257 261v75h10v-75c76 -1 132 -25 164 -42l7 -99h-8c-16 63 -71 131 -163 134v-505c105 2 152 77 167 134h8l-11 -99c-32 -18 -88 -42 -164 -43v-68h-10zM122 249c0 -140 88 -248 200 -251v505
c-112 -3 -200 -114 -200 -254z" />
    <glyph glyph-name="sigma" unicode="&#x3c3;" horiz-adv-x="552" 
d="M128 249c0 45 17 85 46 114l-74 90l8 8l74 -90c26 22 59 36 95 36c35 0 68 -14 93 -36l74 90l8 -8l-73 -89c29 -29 47 -70 47 -115s-18 -86 -47 -114l72 -86l-8 -9l-73 87c-25 -22 -58 -35 -93 -35c-36 0 -69 13 -95 35l-71 -87l-9 9l72 86c-29 29 -46 69 -46 114z
M140 249c0 -79 62 -145 137 -145c74 0 137 66 137 145s-63 146 -137 146c-75 0 -137 -67 -137 -146z" />
    <glyph glyph-name="uni03C2" unicode="&#x3c2;" horiz-adv-x="552" 
d="M128 249c0 45 17 85 46 114l-74 90l8 8l74 -90c26 22 59 36 95 36c35 0 68 -14 93 -36l74 90l8 -8l-73 -89c29 -29 47 -70 47 -115s-18 -86 -47 -114l72 -86l-8 -9l-73 87c-25 -22 -58 -35 -93 -35c-36 0 -69 13 -95 35l-71 -87l-9 9l72 86c-29 29 -46 69 -46 114z
M140 249c0 -79 62 -145 137 -145c74 0 137 66 137 145s-63 146 -137 146c-75 0 -137 -67 -137 -146z" />
    <glyph glyph-name="Euro.oldstyle" 
d="M54 307h56c25 120 129 203 256 203c79 0 137 -24 169 -42l7 -99h-8c-16 64 -73 134 -168 134c-98 0 -179 -83 -200 -196h174l-4 -7h-171c-3 -17 -4 -34 -4 -51s1 -34 4 -50h175l-4 -8h-170c21 -113 102 -193 200 -193c109 0 157 76 172 134h8l-11 -99
c-32 -18 -90 -43 -169 -43c-127 0 -231 81 -256 201h-56v8h54c-3 16 -4 33 -4 50s2 34 5 51h-55v7z" />
    <glyph glyph-name="franc.oldstyle" 
d="M54 307h56c25 120 129 203 256 203c79 0 137 -24 169 -42l7 -99h-8c-16 64 -73 134 -168 134c-98 0 -179 -83 -200 -196h174l-4 -7h-171c-3 -17 -4 -34 -4 -51s1 -34 4 -50h175l-4 -8h-170c21 -113 102 -193 200 -193c109 0 157 76 172 134h8l-11 -99
c-32 -18 -90 -43 -169 -43c-127 0 -231 81 -256 201h-56v8h54c-3 16 -4 33 -4 50s2 34 5 51h-55v7z" />
    <glyph glyph-name="lira.oldstyle" 
d="M54 307h56c25 120 129 203 256 203c79 0 137 -24 169 -42l7 -99h-8c-16 64 -73 134 -168 134c-98 0 -179 -83 -200 -196h174l-4 -7h-171c-3 -17 -4 -34 -4 -51s1 -34 4 -50h175l-4 -8h-170c21 -113 102 -193 200 -193c109 0 157 76 172 134h8l-11 -99
c-32 -18 -90 -43 -169 -43c-127 0 -231 81 -256 201h-56v8h54c-3 16 -4 33 -4 50s2 34 5 51h-55v7z" />
    <glyph glyph-name="peseta.oldstyle" 
d="M54 307h56c25 120 129 203 256 203c79 0 137 -24 169 -42l7 -99h-8c-16 64 -73 134 -168 134c-98 0 -179 -83 -200 -196h174l-4 -7h-171c-3 -17 -4 -34 -4 -51s1 -34 4 -50h175l-4 -8h-170c21 -113 102 -193 200 -193c109 0 157 76 172 134h8l-11 -99
c-32 -18 -90 -43 -169 -43c-127 0 -231 81 -256 201h-56v8h54c-3 16 -4 33 -4 50s2 34 5 51h-55v7z" />
    <glyph glyph-name="rupiah.oldstyle" horiz-adv-x="1210" 
d="M780 440h5c39 38 104 70 164 70c130 0 206 -110 206 -260c0 -165 -110 -260 -230 -260c-37 0 -105 10 -140 40v-170c0 -45 10 -45 95 -50v-10h-245v10c85 5 95 5 95 50v140h-195c-25 23 -60 68 -75 90l-66 95c-31 45 -69 95 -109 120h-80v-245c0 -45 10 -45 95 -50v-10
h-245v10c85 5 95 5 95 50v580c0 45 -10 45 -95 50v10h279c150 0 231 -80 231 -190c0 -98 -62 -201 -261 -205c78 -29 108 -61 134 -95l92 -125c38 -52 71 -68 200 -74v419c0 45 -10 45 -95 50v10l140 20h10zM924 490c-58 0 -106 -31 -139 -60v-280c0 -115 74 -150 130 -150
c122 0 180 115 180 250c0 150 -79 240 -171 240zM320 690h-115v-375h85c165 0 215 97 215 185c0 80 -40 190 -185 190z" />
    <glyph glyph-name="sterling.oldstyle" 
d="M104 252h102c-26 45 -63 84 -63 133c0 67 55 125 163 125c49 0 100 -10 144 -32l8 -116h-8c-20 85 -77 141 -146 141c-67 0 -110 -49 -110 -103c0 -53 39 -95 58 -148h129v-8h-127c5 -15 8 -31 8 -48c0 -48 -24 -102 -55 -143c74 -3 153 -23 198 -23c28 0 71 10 92 86h9
c-10 -35 -28 -133 -123 -133c-66 0 -99 52 -181 64c-27 -34 -60 -57 -90 -57c-11 0 -19 8 -19 18c0 40 84 45 99 45h5c31 43 34 84 34 121c0 26 -9 48 -20 70h-107v8z" />
    <glyph glyph-name="yen.oldstyle" 
d="M162 179h121l-152 267c-13 23 -28 43 -78 47v7h194v-7c-68 -7 -72 -21 -57 -51l142 -260h2l120 244c20 41 15 60 -68 67v7h160v-7c-43 -7 -60 -21 -74 -49l-131 -265h126v-8h-128v-129c0 -31 8 -31 73 -35v-7h-198v7c65 4 73 4 73 35v129h-125v8z" />
    <glyph glyph-name="florin.oldstyle" 
d="M312 490l-50 -470c-16 -150 -87 -230 -154 -230c-31 0 -42 15 -42 32c0 19 16 38 39 38s46 -40 59 -40c14 0 26 39 34 110l59 560h-146l1 5l146 5l4 40c8 80 55 190 180 190c52 0 92 -28 92 -69c0 -40 -25 -51 -43 -51c-13 0 -29 5 -29 23c0 20 19 24 19 45
c0 22 -21 42 -46 42c-85 0 -110 -98 -118 -180l-4 -40h180l-2 -10h-179z" />
    <glyph glyph-name="numbersign.oldstyle" 
d="M63 243h142v169h-142v10h142v143h10v-143h169v143h10v-143h143v-10h-143v-169h143v-10h-143v-142h-10v142h-169v-142h-10v142h-142v10zM215 412v-169h169v169h-169z" />
    <glyph glyph-name="rupiah.taboldstyle" horiz-adv-x="1210" 
d="M780 440h5c39 38 104 70 164 70c130 0 206 -110 206 -260c0 -165 -110 -260 -230 -260c-37 0 -105 10 -140 40v-170c0 -45 10 -45 95 -50v-10h-245v10c85 5 95 5 95 50v140h-195c-25 23 -60 68 -75 90l-66 95c-31 45 -69 95 -109 120h-80v-245c0 -45 10 -45 95 -50v-10
h-245v10c85 5 95 5 95 50v580c0 45 -10 45 -95 50v10h279c150 0 231 -80 231 -190c0 -98 -62 -201 -261 -205c78 -29 108 -61 134 -95l92 -125c38 -52 71 -68 200 -74v419c0 45 -10 45 -95 50v10l140 20h10zM924 490c-58 0 -106 -31 -139 -60v-280c0 -115 74 -150 130 -150
c122 0 180 115 180 250c0 150 -79 240 -171 240zM320 690h-115v-375h85c165 0 215 97 215 185c0 80 -40 190 -185 190z" />
    <glyph glyph-name="colonmonetary.oldstyle" 
d="M341 -2c109 0 157 76 172 134h8l-11 -99c-32 -18 -90 -43 -169 -43c-146 0 -262 108 -262 259c0 150 116 261 262 261c79 0 137 -24 169 -42l7 -99h-8c-7 25 -19 51 -38 74l-235 -411c30 -22 66 -34 105 -34zM136 249c0 -64 18 -120 48 -164l229 402
c-21 10 -45 16 -72 16c-114 0 -205 -112 -205 -254zM189 78c12 -16 25 -29 40 -41l236 413c-13 13 -27 24 -44 33z" />
    <glyph glyph-name="cent.tab" horiz-adv-x="447" 
d="M250 190v40c-110 2 -195 92 -195 216s85 211 195 214v40h10v-40c57 -1 100 -22 124 -36l6 -83h-6c-12 52 -55 110 -124 113v-418c78 2 114 66 126 113h6l-8 -83c-24 -15 -67 -35 -124 -36v-40h-10zM104 446c0 -132 64 -207 146 -210v418c-82 -3 -146 -78 -146 -208z" />
    <glyph glyph-name="sterling.tab" horiz-adv-x="594" 
d="M68 330h121c-30 61 -74 113 -74 175c0 84 63 155 190 155c57 0 117 -14 168 -42l10 -149h-9c-24 111 -92 181 -172 181c-82 0 -132 -61 -132 -130c0 -68 43 -122 66 -190h156v-10h-153c6 -21 11 -44 11 -68c0 -63 -28 -135 -67 -187c88 -3 182 -30 237 -30
c32 0 84 12 109 115h10c-11 -42 -32 -170 -144 -170c-76 0 -119 62 -217 78c-31 -41 -69 -68 -102 -68c-12 0 -21 10 -21 21c0 49 96 54 113 54h4c39 59 43 116 43 165c0 33 -9 62 -22 90h-125v10z" />
    <glyph glyph-name="yen.tab" horiz-adv-x="688" 
d="M183 229h145l-180 349c-16 30 -33 58 -93 63v9h225v-9c-82 -9 -87 -29 -68 -66l168 -343h2l143 323c24 53 17 77 -79 86v9h187v-9c-51 -9 -70 -27 -87 -63l-156 -349h150v-10h-152v-164c0 -41 9 -41 87 -46v-9h-230v9c78 5 87 5 87 46v164h-149v10z" />
    <glyph glyph-name="Euro.tab" horiz-adv-x="688" 
d="M55 402h67c30 154 151 258 298 258c93 0 162 -32 199 -55l9 -127h-10c-19 84 -86 172 -198 172c-117 0 -213 -104 -239 -248h208l-5 -10h-204c-3 -21 -5 -44 -5 -66c0 -23 2 -44 5 -65h209l-5 -10h-203c25 -146 122 -251 239 -251c130 0 185 97 203 172h10l-14 -126
c-37 -24 -106 -56 -199 -56c-148 0 -269 105 -298 261h-67v10h65c-4 21 -5 42 -5 65s2 45 5 66h-65v10z" />
    <glyph glyph-name="franc.tab" horiz-adv-x="688" 
d="M55 402h67c30 154 151 258 298 258c93 0 162 -32 199 -55l9 -127h-10c-19 84 -86 172 -198 172c-117 0 -213 -104 -239 -248h208l-5 -10h-204c-3 -21 -5 -44 -5 -66c0 -23 2 -44 5 -65h209l-5 -10h-203c25 -146 122 -251 239 -251c130 0 185 97 203 172h10l-14 -126
c-37 -24 -106 -56 -199 -56c-148 0 -269 105 -298 261h-67v10h65c-4 21 -5 42 -5 65s2 45 5 66h-65v10z" />
    <glyph glyph-name="lira.tab" horiz-adv-x="688" 
d="M55 402h67c30 154 151 258 298 258c93 0 162 -32 199 -55l9 -127h-10c-19 84 -86 172 -198 172c-117 0 -213 -104 -239 -248h208l-5 -10h-204c-3 -21 -5 -44 -5 -66c0 -23 2 -44 5 -65h209l-5 -10h-203c25 -146 122 -251 239 -251c130 0 185 97 203 172h10l-14 -126
c-37 -24 -106 -56 -199 -56c-148 0 -269 105 -298 261h-67v10h65c-4 21 -5 42 -5 65s2 45 5 66h-65v10z" />
    <glyph glyph-name="peseta.tab" horiz-adv-x="688" 
d="M55 402h67c30 154 151 258 298 258c93 0 162 -32 199 -55l9 -127h-10c-19 84 -86 172 -198 172c-117 0 -213 -104 -239 -248h208l-5 -10h-204c-3 -21 -5 -44 -5 -66c0 -23 2 -44 5 -65h209l-5 -10h-203c25 -146 122 -251 239 -251c130 0 185 97 203 172h10l-14 -126
c-37 -24 -106 -56 -199 -56c-148 0 -269 105 -298 261h-67v10h65c-4 21 -5 42 -5 65s2 45 5 66h-65v10z" />
    <glyph glyph-name="colonmonetary.tab" horiz-adv-x="628" 
d="M360 0c130 0 185 97 203 172h10l-14 -126c-37 -24 -106 -56 -199 -56c-170 0 -305 140 -305 336c0 195 135 334 305 334c93 0 162 -32 199 -55l9 -127h-10c-8 33 -23 68 -46 97l-268 -537c34 -24 74 -38 116 -38zM115 326c0 -87 24 -164 64 -222l264 527
c-24 12 -52 19 -83 19c-136 0 -245 -142 -245 -324zM187 94c14 -19 30 -36 47 -49l271 539c-15 16 -32 31 -52 42z" />
    <glyph glyph-name="rupiah.tab" horiz-adv-x="1210" 
d="M780 440h5c39 38 104 70 164 70c130 0 206 -110 206 -260c0 -165 -110 -260 -230 -260c-37 0 -105 10 -140 40v-170c0 -45 10 -45 95 -50v-10h-245v10c85 5 95 5 95 50v140h-195c-25 23 -60 68 -75 90l-66 95c-31 45 -69 95 -109 120h-80v-245c0 -45 10 -45 95 -50v-10
h-245v10c85 5 95 5 95 50v580c0 45 -10 45 -95 50v10h279c150 0 231 -80 231 -190c0 -98 -62 -201 -261 -205c78 -29 108 -61 134 -95l92 -125c38 -52 71 -68 200 -74v419c0 45 -10 45 -95 50v10l140 20h10zM924 490c-58 0 -106 -31 -139 -60v-280c0 -115 74 -150 130 -150
c122 0 180 115 180 250c0 150 -79 240 -171 240zM320 690h-115v-375h85c165 0 215 97 215 185c0 80 -40 190 -185 190z" />
    <glyph glyph-name="florin.tab" horiz-adv-x="340" 
d="M237 490l-50 -470c-16 -150 -87 -230 -154 -230c-31 0 -42 15 -42 32c0 19 16 38 39 38s46 -40 59 -40c14 0 26 39 34 110l59 560h-96l1 5l96 5l4 40c8 80 55 190 180 190c52 0 92 -28 92 -69c0 -40 -25 -51 -43 -51c-13 0 -29 5 -29 23c0 20 19 24 19 45
c0 22 -21 42 -46 42c-85 0 -110 -98 -118 -180l-4 -40h130l-2 -10h-129z" />
    <glyph glyph-name="numbersign.tab" 
d="M63 243h142v169h-142v10h142v143h10v-143h169v143h10v-143h143v-10h-143v-169h143v-10h-143v-142h-10v142h-169v-142h-10v142h-142v10zM215 412v-169h169v169h-169z" />
    <glyph glyph-name="zeroslashsuperior" horiz-adv-x="344" 
d="M30 605c0 102 53 201 142 201c88 0 142 -99 142 -201s-54 -201 -142 -201c-89 0 -142 99 -142 201zM265 605c0 63 -10 115 -28 149l-132 -294c16 -32 39 -50 67 -50c58 0 93 76 93 195zM172 800c-58 0 -93 -76 -93 -195c0 -57 8 -104 23 -138l131 293
c-15 26 -36 40 -61 40z" />
    <glyph glyph-name="zeroslashinferior" horiz-adv-x="344" 
d="M30 95c0 102 53 201 142 201c88 0 142 -99 142 -201s-54 -201 -142 -201c-89 0 -142 99 -142 201zM265 95c0 63 -10 115 -28 149l-132 -294c16 -32 39 -50 67 -50c58 0 93 76 93 195zM172 290c-58 0 -93 -76 -93 -195c0 -57 8 -104 22 -137l132 292c-15 26 -36 40 -61 40
z" />
    <glyph glyph-name="zeroslash.denominator" horiz-adv-x="344" 
d="M30 195c0 102 53 201 142 201c88 0 142 -99 142 -201s-54 -201 -142 -201c-89 0 -142 99 -142 201zM265 195c0 63 -10 115 -28 149l-132 -295c16 -32 39 -49 67 -49c58 0 93 76 93 195zM172 390c-58 0 -93 -76 -93 -195c0 -57 8 -104 22 -138l132 293
c-15 26 -36 40 -61 40z" />
    <glyph glyph-name="zeroslash.numerator" horiz-adv-x="344" 
d="M30 505c0 102 53 201 142 201c88 0 142 -99 142 -201s-54 -201 -142 -201c-89 0 -142 99 -142 201zM265 505c0 63 -10 115 -28 149l-132 -294c16 -32 39 -50 67 -50c58 0 93 76 93 195zM172 700c-58 0 -93 -76 -93 -195c0 -57 8 -104 23 -138l131 293
c-15 26 -36 40 -61 40z" />
    <glyph glyph-name="parenleft_zero_parenright" horiz-adv-x="800" 
d="M287 350c0 -82 42 -161 114 -161c70 0 113 79 113 161s-43 161 -113 161c-72 0 -114 -79 -114 -161zM475 350c0 -95 -28 -156 -74 -156c-47 0 -75 61 -75 156s28 156 75 156c46 0 74 -61 74 -156zM50 350c0 193 157 350 350 350s350 -157 350 -350s-157 -350 -350 -350
s-350 157 -350 350z" />
    </font>
</defs>
</svg>
