<?xml version="1.0" encoding="utf-8"?>
<!-- Generator: Adobe Illustrator 24.0.1, SVG Export Plug-In . SVG Version: 6.00 Build 0)  -->
<svg version="1.1" id="Layer_1" xmlns="http://www.w3.org/2000/svg" xmlns:xlink="http://www.w3.org/1999/xlink" x="0px" y="0px"
	 viewBox="0 0 64 64" style="enable-background:new 0 0 64 64;" xml:space="preserve">
<style type="text/css">
	.st0{fill:#737373;}
</style>
<g id="strawberry" transform="translate(273 3274)">
	<g id="Group_1424" transform="translate(0 0)">
		<g id="Group_1423" transform="translate(0)">
			<path id="Path_892" class="st0" d="M-210.7-3256.7l-11.7-1.3l9.3-9.3c0.8-0.7,0.8-1.9,0.1-2.6c-0.7-0.8-1.9-0.8-2.6-0.1
				c0,0-0.1,0.1-0.1,0.1l-9.3,9.3l-1.3-11.7c-0.1-1-1-1.8-2.1-1.7c-1,0.1-1.8,1-1.7,2.1l1.1,10.3c-4.7-4.5-9.5-8.1-15.3-8.1
				c-5.1,0-10.5,2.9-16.4,8.8c-6,6.3-10,14.1-11.7,22.6c-0.9,4.1-1,8.3-0.3,12.4c0.6,3.9,2.4,7.5,5.1,10.3c3.6,3.6,9,5.6,15.4,5.6
				c5.6-0.1,11.1-1.3,16.2-3.5c5.1-2.1,9.8-5.1,13.8-9c7.4-7.4,10-13.7,8.3-20.1c-1.1-4.2-4.1-7.9-7.6-11.6l10.3,1.1
				c1,0.1,2-0.6,2.1-1.7C-208.9-3255.7-209.6-3256.6-210.7-3256.7L-210.7-3256.7L-210.7-3256.7z M-217.4-3241.6
				c0.8,3.1,1,8.2-7.3,16.5c-7.4,7-17.2,11-27.3,11.4c-3.8,0-9.1-0.8-12.7-4.5c-4-4-5.4-11.1-3.8-19.4c1.6-7.8,5.3-14.9,10.7-20.7
				c5.2-5.2,9.6-7.7,13.7-7.7c5.7,0,10.7,5,16.4,10.7C-222.9-3250.4-218.7-3246.2-217.4-3241.6z"/>
		</g>
	</g>
	<g id="Group_1426" transform="translate(19.554 27.77)">
		<g id="Group_1425">
			<path id="Path_893" class="st0" d="M-260.2-3259.8c-0.7-0.7-1.9-0.7-2.7,0s-0.7,1.9,0,2.7c0.7,0.7,1.9,0.7,2.7,0
				c0.4-0.4,0.6-0.8,0.6-1.3C-259.6-3259-259.8-3259.4-260.2-3259.8z"/>
		</g>
	</g>
	<g id="Group_1428" transform="translate(14.925 11.571)">
		<g id="Group_1427">
			<path id="Path_894" class="st0" d="M-262.5-3267.8c-0.7-0.7-1.9-0.7-2.7,0s-0.7,1.9,0,2.7s1.9,0.7,2.7,0c0.4-0.4,0.6-0.8,0.6-1.3
				C-261.9-3266.9-262.1-3267.4-262.5-3267.8z"/>
		</g>
	</g>
	<g id="Group_1430" transform="translate(12.611 20.828)">
		<g id="Group_1429">
			<path id="Path_895" class="st0" d="M-263.6-3263.2c-0.7-0.7-1.9-0.7-2.6,0c-0.7,0.7-0.7,1.9,0,2.6c0.7,0.7,1.9,0.7,2.6,0
				c0.3-0.4,0.5-0.8,0.5-1.3C-263-3262.4-263.2-3262.8-263.6-3263.2z"/>
		</g>
	</g>
	<g id="Group_1432" transform="translate(10.297 30.084)">
		<g id="Group_1431">
			<path id="Path_896" class="st0" d="M-264.7-3258.6c-0.7-0.7-1.9-0.7-2.6,0s-0.7,1.9,0,2.6c0.7,0.7,1.9,0.7,2.6,0
				c0.4-0.4,0.5-0.8,0.5-1.3C-264.2-3257.8-264.4-3258.3-264.7-3258.6z"/>
		</g>
	</g>
	<g id="Group_1434" transform="translate(28.811 25.456)">
		<g id="Group_1433">
			<path id="Path_897" class="st0" d="M-255.6-3260.9c-0.7-0.7-1.9-0.7-2.7,0c-0.7,0.7-0.7,1.9,0,2.7c0.7,0.7,1.9,0.7,2.7,0
				c0.4-0.4,0.5-0.8,0.5-1.3C-255.1-3260.1-255.3-3260.6-255.6-3260.9z"/>
		</g>
	</g>
	<g id="Group_1436" transform="translate(21.868 18.513)">
		<g id="Group_1435">
			<path id="Path_898" class="st0" d="M-259-3264.3c-0.7-0.7-1.9-0.7-2.6,0c-0.7,0.7-0.7,1.9,0,2.6c0.7,0.7,1.9,0.7,2.6,0
				c0.4-0.4,0.5-0.8,0.5-1.3C-258.5-3263.5-258.7-3264-259-3264.3z"/>
		</g>
	</g>
</g>
</svg>
