<?xml version="1.0" standalone="no"?>
<!DOCTYPE svg PUBLIC "-//W3C//DTD SVG 20010904//EN"
 "http://www.w3.org/TR/2001/REC-SVG-20010904/DTD/svg10.dtd">
<svg version="1.0" xmlns="http://www.w3.org/2000/svg"
 width="700.000000pt" height="700.000000pt" viewBox="0 0 700.000000 700.000000"
 preserveAspectRatio="xMidYMid meet">
<metadata>
Created by potrace 1.11, written by Peter Selinger 2001-2013
</metadata>
<g transform="translate(0.000000,700.000000) scale(0.100000,-0.100000)"
fill="#000000" stroke="none">
<path d="M4820 6984 c-53 -23 -98 -72 -116 -126 -15 -46 -15 -100 1 -208 2
-14 6 -52 10 -85 3 -33 8 -78 10 -100 3 -22 10 -87 15 -145 12 -117 17 -164
25 -230 3 -25 7 -63 9 -85 10 -91 17 -162 21 -195 2 -19 6 -64 10 -100 l7 -65
-43 41 c-42 39 -98 90 -171 156 -18 17 -53 46 -78 67 -25 20 -49 41 -55 47 -5
6 -57 47 -115 91 -367 279 -656 413 -1015 471 -64 11 -354 8 -420 -3 -339 -58
-673 -212 -1022 -471 -265 -196 -543 -456 -744 -697 -212 -252 -376 -489 -548
-790 -30 -54 -191 -374 -191 -381 0 -3 -11 -29 -24 -58 -73 -159 -178 -454
-232 -648 -35 -128 -97 -397 -108 -474 -4 -21 -8 -41 -10 -45 -2 -3 -7 -31
-10 -61 -4 -30 -11 -80 -16 -110 -5 -30 -9 -230 -9 -445 0 -399 0 -395 44
-670 35 -211 167 -540 300 -744 110 -169 277 -352 422 -464 77 -59 254 -167
348 -212 96 -46 217 -95 235 -95 9 0 20 -4 25 -8 11 -10 145 -50 191 -58 16
-3 37 -7 46 -10 31 -9 148 -32 203 -40 22 -3 51 -7 65 -9 187 -27 580 -27 800
0 19 2 58 6 85 9 70 8 170 24 315 53 69 13 136 26 150 29 14 3 52 12 85 21 33
8 65 16 70 17 29 7 108 30 163 47 34 12 68 22 75 23 7 2 19 5 27 8 8 3 62 22
120 43 318 113 732 309 970 460 476 302 775 558 1119 960 373 434 586 845 644
1245 14 95 15 331 3 420 -27 183 -82 360 -168 535 -27 55 -54 109 -61 120 -7
10 -30 49 -52 85 -34 56 -136 204 -172 250 -111 141 -172 214 -318 374 l-100
109 65 -6 c94 -9 359 -37 400 -42 19 -2 62 -7 95 -10 71 -7 139 -15 180 -20
17 -2 61 -7 98 -10 37 -4 76 -8 86 -10 39 -7 189 -19 233 -18 61 1 124 36 162
91 24 34 31 55 34 105 4 78 -17 121 -79 159 -45 28 -64 33 -159 43 -30 3 -71
8 -90 10 -64 8 -204 24 -270 30 -36 4 -76 8 -90 10 -14 2 -50 6 -80 10 -30 3
-71 8 -90 10 -19 3 -66 7 -103 10 -37 4 -77 8 -87 10 -10 2 -47 6 -82 10 -35
3 -79 8 -98 10 -19 2 -64 7 -100 11 -36 4 -74 8 -85 10 -11 1 -24 3 -30 3 -5
1 230 241 522 534 481 481 532 536 543 577 40 151 -99 290 -251 250 -40 -11
-96 -64 -576 -543 -334 -332 -533 -525 -534 -514 -1 9 -2 20 -3 25 -1 4 -6 41
-10 82 -8 85 -14 139 -21 190 -3 19 -7 64 -10 99 -4 36 -8 67 -9 70 -2 3 -7
47 -11 96 -4 50 -8 92 -10 95 -1 3 -6 39 -10 80 -3 41 -8 87 -10 103 -2 15 -6
55 -10 90 -3 34 -8 73 -10 87 -2 14 -7 54 -10 90 -12 124 -25 201 -39 228 -18
34 -62 75 -101 94 -41 20 -123 21 -165 2z m-1525 -868 c330 -39 711 -259 1144
-661 372 -345 923 -909 1157 -1185 549 -647 653 -1121 375 -1705 -50 -105
-191 -342 -224 -378 -7 -6 -32 -39 -56 -72 -166 -225 -399 -466 -651 -676 -61
-51 -319 -243 -335 -250 -5 -2 -49 -30 -96 -61 -225 -147 -603 -337 -856 -429
-283 -102 -622 -195 -823 -225 -19 -3 -46 -7 -60 -10 -28 -5 -236 -33 -290
-39 -602 -68 -1170 63 -1540 353 -84 66 -235 228 -295 318 -149 222 -256 519
-299 829 -31 227 -27 647 9 860 3 17 7 51 10 76 3 26 8 58 10 70 3 13 8 38 11
54 47 263 188 714 299 960 71 156 96 208 161 330 41 77 79 147 84 155 5 8 40
65 77 125 211 345 472 661 757 919 43 39 84 76 90 81 54 51 244 196 343 261
268 179 506 273 773 306 39 5 159 2 225 -6z"/>
<path d="M2582 5105 c-103 -31 -154 -92 -155 -186 -1 -85 44 -165 113 -198 98
-48 234 0 286 100 77 150 -79 332 -244 284z"/>
<path d="M3695 3951 c-149 -67 -151 -282 -3 -355 127 -63 275 17 283 154 3 57
-15 122 -45 158 -47 57 -160 78 -235 43z"/>
<path d="M2196 3585 c-148 -51 -174 -261 -44 -351 36 -25 50 -29 113 -29 60 0
78 4 109 25 59 40 93 124 87 221 -1 31 -62 104 -104 126 -41 21 -112 25 -161
8z"/>
<path d="M4813 2816 c-75 -36 -106 -86 -107 -174 0 -116 66 -198 171 -210 51
-5 138 20 172 51 76 70 80 217 8 295 -58 63 -158 78 -244 38z"/>
<path d="M3340 2460 c-101 -29 -161 -106 -155 -200 8 -121 90 -202 205 -202
188 2 281 208 155 345 -49 52 -137 77 -205 57z"/>
<path d="M1821 2073 c-13 -3 -42 -24 -66 -47 -92 -93 -79 -240 28 -309 23 -15
52 -28 67 -28 70 -5 114 2 143 23 74 50 103 107 94 188 -15 135 -116 201 -266
173z"/>
</g>
</svg>
