<?xml version="1.0" encoding="utf-8"?>
<!-- Generator: Adobe Illustrator 24.0.1, SVG Export Plug-In . SVG Version: 6.00 Build 0)  -->
<svg version="1.1" id="Layer_1" xmlns="http://www.w3.org/2000/svg" xmlns:xlink="http://www.w3.org/1999/xlink" x="0px" y="0px"
	 viewBox="0 0 1920 1312" style="enable-background:new 0 0 1920 1312;" xml:space="preserve">
<style type="text/css">
	.st0{fill:#272727;}
	.st1{fill:#141111;}
</style>
<path class="st0" d="M1920,927.8V1312H0V0h906.5c-1.1,84.7,26.8,178,128.8,255.8c253,192.9,142.7,315.6,118.1,552.6
	c-17.6,315.9,339.4,407.8,466.7,397.1c196-8.3,286-212,286-212L1920,927.8z"/>
<path class="st1" d="M1920,927.8V1312H0v-234c539.7-34.6,823.1,183,957.8,195.4c135.7,12.5,239.3-89.3,132.1-292.8
	c-107.1-203.6,151.3-484.3-91.5-679C833.2,169.2,805.2,85.5,805.3,0h101.2c-1.1,84.7,26.8,178,128.8,255.8
	c253,192.9,142.7,315.6,118.1,552.6c-17.6,315.9,339.4,407.8,466.7,397.1c196-8.3,286-212,286-212L1920,927.8z"/>
</svg>
